<?xml version="1.0" encoding="UTF-8" standalone="no"?>
<svg
   xmlns:dc="http://purl.org/dc/elements/1.1/"
   xmlns:cc="http://creativecommons.org/ns#"
   xmlns:rdf="http://www.w3.org/1999/02/22-rdf-syntax-ns#"
   xmlns:svg="http://www.w3.org/2000/svg"
   xmlns="http://www.w3.org/2000/svg"
   viewBox="0 0 17.716538 23.212839"
   height="4.5mm"
   xml:space="preserve"
   version="1.1"
   id="svg2"><metadata
     id="metadata8"><rdf:RDF><cc:Work
         rdf:about=""><dc:format>image/svg+xml</dc:format><dc:type
           rdf:resource="http://purl.org/dc/dcmitype/StillImage" /><dc:title></dc:title></cc:Work></rdf:RDF></metadata><defs
     id="defs6"><clipPath
       id="clipPath18"
       clipPathUnits="userSpaceOnUse"><path
         id="path20"
         d="m 6659.84,1287.97 3629.96,0 0,960 -3629.96,0 0,-960 z" /></clipPath><clipPath
       id="clipPath138"
       clipPathUnits="userSpaceOnUse"><path
         id="path140"
         d="m 1275.04,4562.9 3620,0 0,959.996 -3620,0 0,-959.996 z" /></clipPath><clipPath
       id="clipPath258"
       clipPathUnits="userSpaceOnUse"><path
         id="path260"
         d="m 0,898.191 3630,0 0,960 -3630,0 0,-960 z" /></clipPath></defs><g
     transform="matrix(1.25,0,0,-1.25,-633.47599,245.51639)"
     id="g10"><g
       transform="matrix(0.1,0,0,0.1,-2.9260002,-8.7780007)"
       id="g12"><path
         id="path36"
         style="fill:#999999;fill-opacity:1;fill-rule:evenodd;stroke:none"
         d="m 5110.4169,1943.7927 -3.1618,-18.6166 40.394,-6.3225 22.1982,-2.8163 12.9402,-0.7793 27.0339,1.3118 10.3631,2.8098 0.229,27.4342 -1.8099,16.2984 -0.3519,24.0602 -3.8637,9.8353 -8.7813,9.3083 -10.8892,5.4446 -14.9288,0.175 c 0,0 -16.5088,-0.702 -20.1965,-2.6348 l -12.4701,-2.9848 c 0,0 -11.4161,-2.9858 -21.2504,-21.0754 l -7.3774,-12.997 -3.6877,-12.1172 -4.3897,-16.3337" /><path
         id="path38"
         style="fill:#999999;fill-opacity:1;fill-rule:evenodd;stroke:none"
         d="m 5122.008,1979.796 -10.5382,-7.0245 -9.6592,-15.1048 -1.2299,-2.6338 11.5911,-2.9858 5.7965,18.0896 3.8637,7.9025 0.176,1.7568" /><path
         id="path40"
         style="fill:#999999;fill-opacity:1;fill-rule:evenodd;stroke:none"
         d="m 5218.6036,1979.445 -0.4003,-13.6971 2.3322,-19.1454 15.8049,3.1608 -7.0245,21.6024 -6.8495,9.1323 -3.5118,1.4049 -0.351,-2.4579" /><path
         id="path42"
         style="fill:#999999;fill-opacity:1;fill-rule:evenodd;stroke:none"
         d="m 5123.4129,1921.8384 2.1078,-24.4121 21.0754,0.1759 -1.0548,17.7387 -4.2147,4.0387 -17.9137,2.4588" /><path
         id="path44"
         style="fill:#999999;fill-opacity:1;fill-rule:evenodd;stroke:none"
         d="m 5167.3187,1916.6573 -1.6647,-24.8171 15.1877,-3.8097 5.0963,0.4878 2.1041,21.6415 0,4.3906 -20.7234,2.1069" /><path
         id="path46"
         style="fill:#999999;fill-opacity:1;fill-rule:evenodd;stroke:none"
         d="m 5155.0255,2008.7748 11.9431,2.6338 12.1181,0.7039 17.0357,-0.3519 10.1863,-5.0936 -0.1751,15.4548 0.526,7.5524 -8.2543,15.8068 -7.5515,5.2686 -21.0754,-1.9318 -14.225,-3.5128 -0.3519,-10.8882 0.526,-17.3876 -0.702,-7.9025" /><path
         id="path48"
         style="fill:#a0a0a0;fill-opacity:1;fill-rule:evenodd;stroke:none"
         d="m 5175.8682,2039.1026 -3.2344,0.3054 -1.8006,-3.5714 0.702,-5.1578 2.3183,-1.7699 4.7621,0.823 2.4113,3.3275 -1.74,4.0899 -1.4952,0.122 -0.4888,-3.0835 -1.4645,-1.8611 -1.3742,-0.092 -1.525,2.5342 1.7391,2.0753 1.5567,1.6786 -0.3668,0.58" /><path
         id="path50"
         style="fill:#a0a0a0;fill-opacity:1;fill-rule:evenodd;stroke:none"
         d="m 5200.8641,2036.5237 -1.7559,-11.7662 2.2828,-3.5136 4.0397,2.4588 1.2289,5.9715 -4.0387,6.4985 -1.7568,0.351" /><path
         id="path52"
         style="fill:#a0a0a0;fill-opacity:1;fill-rule:evenodd;stroke:none"
         d="m 5153.6206,2035.4698 -2.6338,-4.3897 -0.045,-7.2899 1.6507,-2.8843 2.8275,-2.3843 0.1331,8.5188 -1.5818,7.3764 -0.351,1.053" /><path
         id="path54"
         style="fill:#a0a0a0;fill-opacity:1;fill-rule:evenodd;stroke:none"
         d="m 5163.9018,2035.4586 -2.4644,-0.5837 -1.322,-1.3696 -0.3045,-2.2893 1.8016,0.9152 2.2893,2.3508 0.3045,0.8547 -0.3045,0.1219" /><path
         id="path56"
         style="fill:#a0a0a0;fill-opacity:1;fill-rule:evenodd;stroke:none"
         d="m 5164.3925,2030.9832 -0.7942,-1.6786 2.5957,0.062 0.8845,3.2957 -1.526,1.5576 -0.9459,-0.1229 -0.3668,-0.4571 0.1527,-2.6562" /><path
         id="path58"
         style="fill:#231f20;fill-opacity:1;fill-rule:evenodd;stroke:none"
         d="m 5173.4662,2034.2399 c 0.2951,-0.7578 0.822,-1.2857 1.5808,-1.5799 0.6815,1.0753 2.5547,0.958 2.1078,3.1608 -1.7354,-0.02 -3.7287,0.216 -3.6886,-1.5809 z m -1.58,-3.1598 c 2.4616,-2.9942 7.626,-1.0735 8.4304,2.1068 -1.2634,0.6694 0.1834,4.0481 -2.1079,3.6878 0.6434,-3.9801 -1.2605,-5.4129 -4.2147,-5.7946 -0.742,1.0138 -1.3937,2.1199 -1.5808,3.6877 0.4534,1.8285 2.1897,2.376 3.1608,3.6868 -3.9792,2.8862 -4.468,-4.7128 -3.6878,-7.3745 z m 11.0651,10.0102 c -2.5733,-0.061 -5.5535,0.2831 -7.3773,-0.5269 3.67,-1.5995 6.1586,-4.3795 5.7955,-10.0112 -5.6456,-7.8085 -15.2621,1.7587 -9.4833,9.4842 -3.6719,0.2514 -10.3585,-2.551 -15.2798,-2.1078 7.1502,2.0008 18.4555,5.4045 26.3449,3.1617" /><path
         id="path60"
         style="fill:#231f20;fill-opacity:1;fill-rule:evenodd;stroke:none"
         d="m 5161.8759,2030.5522 c 1.6489,-0.244 2.3509,0.458 2.1079,2.1078 -1.6507,0.2448 -2.3536,-0.4581 -2.1079,-2.1078 z m 2.1079,-1.0539 c 2.0752,-0.3194 2.3322,1.1796 2.6338,2.6338 -0.1685,0.6117 -1.6311,2.4821 -2.1078,1.0548 1.4505,-0.8165 0.051,-3.1626 -0.526,-3.6886 z m -3.6887,2.1078 c 1.7186,0.7392 2.1422,2.7744 3.6887,3.6887 -2.3062,-0.1537 -3.9969,-0.9217 -3.6887,-3.6887 z m 7.9034,-2.1078 c -1.8714,-0.9385 -3.1152,-2.5063 -6.3226,-2.1069 -8.2655,6.9975 6.4185,13.415 6.3226,2.1069" /><path
         id="path62"
         style="fill:#e32024;fill-opacity:1;fill-rule:evenodd;stroke:none"
         d="m 5163.9838,2035.2948 c -1.5465,-0.9143 -1.9701,-2.9495 -3.6887,-3.6887" /><path
         id="path64"
         style="fill:#231f20;fill-opacity:1;fill-rule:evenodd;stroke:none"
         d="m 5190.3259,2026.3375 c 0.6191,-0.086 0.446,-0.9599 0.5279,-1.58 -11.8034,-1.4114 -21.4534,-5.0302 -31.6126,-4.2156 1.6469,2.699 5.4874,1.3369 7.9024,1.5799 7.2973,0.7365 14.6365,3.5202 22.1303,3.6878 0.6116,-0.085 0.9356,0.1164 1.052,0.5279" /><path
         id="path66"
         style="fill:#231f20;fill-opacity:1;fill-rule:evenodd;stroke:none"
         d="m 5148.176,1972.0686 c -3.1896,-0.8575 -5.4585,-0.094 -7.3764,1.5808 0.216,-2.982 5.9054,-4.5005 7.3764,-1.5808 z m -7.9024,4.2147 c 1.8211,-2.1255 3.6598,-4.306 7.3755,-3.1608 0.216,1.269 -0.9627,1.1451 -0.527,2.6348 1.0474,-0.01 0.6704,-1.4385 2.1079,-1.0549 1.1823,6.3449 -8.9648,8.1054 -8.9564,1.5809 z m -0.5279,-4.2147 c -1.9672,6.2452 1.0623,9.7095 4.2156,10.0112 12.0334,1.1489 4.2967,-21.1676 -4.2156,-10.0112" /><path
         id="path68"
         style="fill:#231f20;fill-opacity:1;fill-rule:evenodd;stroke:none"
         d="m 5158.7133,1972.5946 c 2.091,-0.9599 9.3595,-2.1646 7.3773,1.5809 -1.9113,-2.39 -5.9482,-0.2644 -7.3773,1.0539 0,-0.878 0,-1.7559 0,-2.6348 z m 6.3225,2.1078 c 0.5912,1.6926 2.1209,2.4467 2.6357,4.2147 -6.3234,5.4213 -12.402,-4.7407 -2.6357,-4.2147 z m 3.6887,5.2696 c 0.6731,-3.2316 -0.6713,-7.3187 -2.6339,-9.4843 -3.9987,-0.31 -7.0384,0.338 -8.9573,2.1069 -1.0418,8.1762 5.8878,11.8434 11.5912,7.3774" /><path
         id="path70"
         style="fill:#231f20;fill-opacity:1;fill-rule:evenodd;stroke:none"
         d="m 5180.3166,1972.0686 c 2.9718,-0.162 5.5144,0.1042 5.7946,2.6338 -2.8107,-0.5819 -5.2118,-0.6871 -7.3755,0.527 -0.023,-1.6032 1.1126,-2.0492 1.5809,-3.1608 z m 0.5269,7.9034 c -1.2457,-1.2364 0.086,-2.5883 0,-4.2147 2.1525,-0.5177 2.1293,0.058 4.7417,0 -0.3743,1.9523 0.9003,2.2595 0.526,4.2147 -2.0017,-0.2374 -3.7483,1.3658 -5.2677,0 z m 5.7956,2.1078 c 1.7438,-2.6776 1.2019,-5.1215 1.053,-8.9573 -9.1966,-9.8325 -15.2147,11.2932 -1.053,8.9573" /><path
         id="path72"
         style="fill:#828282;fill-opacity:1;fill-rule:evenodd;stroke:none"
         d="m 5149.23,1974.7024 c -1.4375,-0.3836 -1.0605,1.0474 -2.1079,1.0549 -0.4357,-1.4897 0.743,-1.3658 0.527,-2.6348 -3.7157,-1.1452 -5.5544,1.0353 -7.3755,3.1608 -0.01,6.5245 10.1387,4.764 8.9564,-1.5809" /><path
         id="path74"
         style="fill:#828282;fill-opacity:1;fill-rule:evenodd;stroke:none"
         d="m 5167.6715,1978.9171 c -0.5148,-1.768 -2.0445,-2.5221 -2.6357,-4.2147 -9.7663,-0.526 -3.6877,9.636 2.6357,4.2147" /><path
         id="path76"
         style="fill:#828282;fill-opacity:1;fill-rule:evenodd;stroke:none"
         d="m 5186.1112,1979.972 c 0.3743,-1.9552 -0.9003,-2.2624 -0.526,-4.2147 -2.6124,0.058 -2.5892,-0.5177 -4.7417,0 0.086,1.6264 -1.2457,2.9783 0,4.2147 1.5194,1.3658 3.266,-0.2374 5.2677,0" /><path
         id="path78"
         style="fill:#828282;fill-opacity:1;fill-rule:evenodd;stroke:none"
         d="m 5158.7133,1975.2294 c 1.4291,-1.3183 5.466,-3.4439 7.3773,-1.0539 1.9822,-3.7455 -5.2863,-2.5408 -7.3773,-1.5809 0,0.8789 0,1.7568 0,2.6348" /><path
         id="path80"
         style="fill:#828282;fill-opacity:1;fill-rule:evenodd;stroke:none"
         d="m 5178.7357,1975.2294 c 2.1637,-1.2141 4.5648,-1.1089 7.3755,-0.527 -0.2802,-2.5296 -2.8228,-2.7958 -5.7946,-2.6338 -0.4683,1.1116 -1.6042,1.5576 -1.5809,3.1608" /><path
         id="path82"
         style="fill:#828282;fill-opacity:1;fill-rule:evenodd;stroke:none"
         d="m 5140.7996,1973.6494 c 1.9179,-1.6749 4.1868,-2.4383 7.3764,-1.5808 -1.471,-2.9197 -7.1604,-1.4012 -7.3764,1.5808" /><path
         id="path84"
         style="fill:#231f20;fill-opacity:1;fill-rule:evenodd;stroke:none"
         d="m 5146.0682,1962.5843 c -2.4039,-2.3359 -9.3623,-0.1201 -12.645,-1.5799 1.8099,2.3229 9.3036,1.4151 12.645,1.5799" /><path
         id="path86"
         style="fill:#231f20;fill-opacity:1;fill-rule:evenodd;stroke:none"
         d="m 5169.7784,1954.6819 c -0.3231,0.4692 -0.6359,0.9421 0,1.0529 5.7956,0 11.5911,0 17.3876,0 -19.7496,4.0676 -32.578,2.8313 -54.2698,2.1079 -0.5958,-1.6545 0.1518,-1.3919 -0.526,-2.6348 12.5277,-2.5314 25.1672,3.1142 37.4082,-0.526 -12.0855,0.4012 -24.7213,-1.269 -37.9352,-2.1079 -0.2942,2.686 -0.6908,6.4268 0,9.4834 1.9096,0.5046 0.5354,-2.2745 1.58,-2.6339 14.4316,1.0781 36.1848,0.972 54.7958,-1.5808 0.7262,0.6796 0.5214,2.2893 0.527,3.6877 -11.2867,1.9049 -33.3145,-1.9551 -42.1499,1.5818 13.1469,-0.8044 28.8177,0.1 43.2038,0 -0.9794,-3.8861 1.0446,-4.8999 1.5809,-8.4303 -7.1791,-0.5493 -15.3376,0.1489 -21.6024,0" /><path
         id="path88"
         style="fill:#999999;fill-opacity:1;fill-rule:evenodd;stroke:none"
         d="m 5112.8757,1957.3157 c -2.97,-2.3685 -6.4641,0.1573 -10.0112,-1.0539 1.6814,1.6656 7.4714,1.9989 10.0112,1.0539" /><path
         id="path90"
         style="fill:#ffffff;fill-opacity:1;fill-rule:evenodd;stroke:none"
         d="m 5103.3914,1952.0471 c 0.096,-0.8202 -0.068,-5.8878 -2.1078,-6.3225 0.1732,2.5835 0.4636,4.2352 2.1078,6.3225" /><path
         id="path92"
         style="fill:#ffffff;fill-opacity:1;fill-rule:evenodd;stroke:none"
         d="m 5233.0037,1947.8324 c -0.352,-2.4607 0.8472,-3.3684 1.5818,-4.7426 -0.1192,-0.7588 -1.5725,-0.1834 -1.5818,-1.053 -2.0436,0.4124 -1.4925,3.4234 -2.6339,4.7417 0.077,1.1516 1.3276,1.1321 2.6339,1.0539" /><path
         id="path94"
         style="fill:#ffffff;fill-opacity:1;fill-rule:evenodd;stroke:none"
         d="m 5235.1115,1947.8324 c 2.145,0.036 2.2689,-1.9477 2.1078,-4.2157 -1.2802,0.8277 -1.9728,2.241 -2.1078,4.2157" /><path
         id="path96"
         style="fill:#ffffff;fill-opacity:1;fill-rule:evenodd;stroke:none"
         d="m 5225.6282,1946.7785 c 2.6403,0.2849 1.6171,-4.1542 0.5269,-4.7417 -1.2941,0.4702 -1.4282,3.685 -0.5269,4.7417" /><path
         id="path98"
         style="fill:#ffffff;fill-opacity:1;fill-rule:evenodd;stroke:none"
         d="m 5222.4664,1946.2515 c 2.4188,-0.162 0.1741,-3.293 0,-4.2147 -1.3583,0.7225 -0.1164,3.2278 0,4.2147" /><path
         id="path100"
         style="fill:#231f20;fill-opacity:1;fill-rule:evenodd;stroke:none"
         d="m 5112.8757,1929.3908 c 0.4236,-0.2793 0.8546,-0.5493 1.5799,-0.526 -0.037,-1.5446 -0.1909,-2.9718 -2.1069,-2.6357 -0.07,1.2988 -0.08,2.5389 0.527,3.1617" /><path
         id="path102"
         style="fill:#231f20;fill-opacity:1;fill-rule:evenodd;stroke:none"
         d="m 5133.4232,1926.757 c 0.1201,-1.8769 -0.7579,-2.7549 -2.6348,-2.6348 -0.4087,0.4692 -0.5651,1.1889 -0.526,2.1069 0.6228,0.608 1.8629,0.5968 3.1608,0.5279" /><path
         id="path104"
         style="fill:#231f20;fill-opacity:1;fill-rule:evenodd;stroke:none"
         d="m 5211.9292,1923.5943 c 0.8779,0 1.7559,0 2.6348,0 0.3612,-1.7652 -0.8845,-1.9253 -2.1079,-2.1069 -0.4087,0.4693 -0.5669,1.1899 -0.5269,2.1069" /><path
         id="path106"
         style="fill:#231f20;fill-opacity:1;fill-rule:evenodd;stroke:none"
         d="m 5158.7133,1923.0683 c 0.7029,0 1.4058,0 2.1078,0 0.7802,-1.6507 0.021,-2.1544 -1.053,-3.1617 -1.3462,0.059 -1.0464,1.7642 -1.0548,3.1617" /><path
         id="path108"
         style="fill:#231f20;fill-opacity:1;fill-rule:evenodd;stroke:none"
         d="m 5194.0146,1922.0144 c 0.121,-1.8769 -0.7569,-2.7549 -2.6338,-2.6348 -1.3947,1.9067 0.8202,4.1226 2.6338,2.6348" /><path
         id="path110"
         style="fill:#f0b13f;fill-opacity:1;fill-rule:evenodd;stroke:none"
         d="m 5133.9511,1909.3693 c 2.5603,2.5762 8.6221,0.2067 1.5799,0 -0.527,0 -1.0539,0 -1.5799,0" /><path
         id="path112"
         style="fill:#f0b13f;fill-opacity:1;fill-rule:evenodd;stroke:none"
         d="m 5177.6809,1908.8424 c -0.5819,-1.35 -2.8294,-1.0353 -4.7408,-1.053 0.905,1.0251 2.7279,1.1349 4.7408,1.053" /><path
         id="path114"
         style="fill:#b4b3b3;fill-opacity:1;fill-rule:evenodd;stroke:none"
         d="m 5132.3702,1896.1973 c -2.5603,-4.1132 -8.3903,-4.4335 -7.3764,-11.0642 1.308,-8.5606 18.5272,-7.2581 18.9675,2.1079 0.1071,2.2949 -2.0743,3.0556 -1.5808,6.8485 4.2026,-1.417 4.1486,-7.0906 4.2156,-12.645 -4.8841,-7.8178 -22.6237,-5.6336 -24.2371,3.6886 -0.891,5.1458 2.6422,11.3892 10.0112,11.0642" /><path
         id="path116"
         style="fill:#ffffff;fill-opacity:1;fill-rule:evenodd;stroke:none"
         d="m 5134.4771,1889.8748 c 0.2625,-1.6572 -1.148,-2.0594 0,-3.1608 2.5612,1.7419 2.1665,0.8128 5.7965,0.527 0.2979,-2.9337 -1.8369,-3.4327 -3.1627,-4.7417 -3.5108,0.527 -4.9744,3.1031 -7.3755,4.7417 0.6517,2.0128 2.9411,4.872 4.7417,2.6338" /><path
         id="path118"
         style="fill:#b4b3b3;fill-opacity:1;fill-rule:evenodd;stroke:none"
         d="m 5173.994,1888.2939 c -2.4076,-4.601 -7.5486,-5.2425 -5.7955,-12.645 3.6365,-5.2491 16.8625,-6.9957 17.3867,2.1078 3.441,-14.373 -17.5068,-10.0652 -21.0754,-3.1617 0.3864,0.4925 0.9571,0.7979 1.5808,1.0539 -0.1433,1.0856 -2.334,0.1257 -2.1068,1.5809 0.9049,6.1186 3.1654,10.8845 10.0102,11.0641" /><path
         id="path120"
         style="fill:#b4b3b3;fill-opacity:1;fill-rule:evenodd;stroke:none"
         d="m 5173.4662,1884.0792 c -2.1526,-1.578 -0.9906,-4.6811 -3.1599,-5.2686 0.3463,-4.454 8.7478,-5.763 11.0632,-2.1078 -0.188,2.6469 0.1406,4.778 1.054,6.3225 2.9271,-0.9775 1.2457,-6.383 0.5278,-8.4303 -8.2692,-6.3728 -20.3278,5.2202 -9.4851,9.4842" /><path
         id="path122"
         style="fill:#ffffff;fill-opacity:1;fill-rule:evenodd;stroke:none"
         d="m 5177.6809,1884.0792 c 1.1442,0.089 0.2392,-1.8694 0.5278,-2.6347 -1.3108,-0.058 -1.6311,-0.9878 -2.6347,0 -0.2542,1.835 1.3211,1.8396 2.1069,2.6347" /><path
         id="path124"
         style="fill:#ffffff;fill-opacity:1;fill-rule:evenodd;stroke:none"
         d="m 5172.9401,1880.3915 c 2.51,-0.4758 3.0863,-2.8862 6.3226,-2.6348 -1.3779,-2.9075 -4.2892,-1.3946 -6.8495,-1.0539 0.01,1.3993 -0.2002,3.009 0.5269,3.6887" /><path
         id="path126"
         style="fill:#231f20;fill-opacity:1;fill-rule:evenodd;stroke:none"
         d="m 5109.7139,1875.6489 c -4.0424,-1.7671 -4.7211,2.1199 0,0" /><path
         id="path128"
         style="fill:#231f20;fill-opacity:1;fill-rule:evenodd;stroke:none"
         d="m 5172.4132,1876.7028 c 2.5603,-0.3407 5.4716,-1.8536 6.8495,1.0539 -3.2363,-0.2514 -3.8126,2.159 -6.3226,2.6348 -0.7271,-0.6797 -0.5213,-2.2894 -0.5269,-3.6887 z m 3.1608,4.7417 c 1.0036,-0.9878 1.3239,-0.058 2.6347,0 -0.2886,0.7653 0.6164,2.7241 -0.5278,2.6347 -0.7858,-0.7951 -2.3611,-0.7997 -2.1069,-2.6347 z m 7.3773,-6.8495 c 0.7179,2.0473 2.3993,7.4528 -0.5278,8.4303 -0.9134,-1.5445 -1.242,-3.6756 -1.054,-6.3225 -2.3154,-3.6552 -10.7169,-2.3462 -11.0632,2.1078 2.1693,0.5875 1.0073,3.6906 3.1599,5.2686 -10.8427,-4.264 1.2159,-15.857 9.4851,-9.4842 z m -18.9675,2.6348 c -0.2272,-1.4552 1.9635,-0.4953 2.1068,-1.5809 -0.6237,-0.256 -1.1944,-0.5614 -1.5808,-1.0539 3.5686,-6.9035 24.5164,-11.2113 21.0754,3.1617 -0.5242,-9.1035 -13.7502,-7.3569 -17.3867,-2.1078 -1.7531,7.4025 3.3879,8.044 5.7955,12.645 -6.8448,-0.1796 -9.1053,-4.9455 -10.0102,-11.0641 z m -34.2484,10.0112 c 2.4011,-1.6386 3.8647,-4.2147 7.3755,-4.7417 1.3258,1.309 3.4606,1.808 3.1627,4.7417 -3.63,0.2858 -3.2353,1.2149 -5.7965,-0.527 -1.148,1.1014 0.2625,1.5036 0,3.1608 -1.8006,2.2382 -4.09,-0.621 -4.7417,-2.6338 z m -1.5808,0 c -0.1676,2.1217 3.4177,3.2241 2.1078,4.7407 -2.0669,-0.06 -4.2873,-3.5248 -3.6887,-7.9025 2.1395,-3.7566 12.0334,-4.0732 12.119,-2.6347 -6.1531,-0.7085 -8.0244,2.8656 -10.5381,5.7965 z m -5.7956,-2.1079 c 1.6134,-9.3222 19.353,-11.5064 24.2371,-3.6886 -0.067,5.5544 -0.013,11.228 -4.2156,12.645 -0.4935,-3.7929 1.6879,-4.5536 1.5808,-6.8485 -0.4403,-9.366 -17.6595,-10.6685 -18.9675,-2.1079 -1.0139,6.6307 4.8161,6.951 7.3764,11.0642 -7.369,0.325 -10.9022,-5.9184 -10.0112,-11.0642 z m 44.2586,17.3868 c 0.6899,-3.8088 -1.296,-7.3029 0,-10.0103 4.6244,-2.7512 11.8146,-2.9374 18.4406,-3.6878 1.1312,4.1403 2.443,10.8976 1.053,15.8049 -4.4167,-0.7904 -14.8357,-1.4421 -19.4936,-2.1068 z m -41.6238,1.5808 c 0.8956,-1.3881 0.052,-4.5145 1.0529,-5.7965 4.9233,0.5223 14.1515,-0.9775 19.4946,0 0.2746,2.9094 -0.3007,4.9679 -0.526,7.3774 -7.2564,0.055 -14.4885,0.086 -20.0215,-1.5809 z m 41.6238,0 c 7.5245,0.972 13.4913,-0.1629 20.0215,2.6339 -4.3516,0.6908 -15.8301,0.2569 -20.0215,-2.6339 z m -41.0969,2.1078 c 7.085,1.5986 15.6094,-0.8444 18.9676,2.1069 -5.4855,-0.6917 -12.7894,1.5455 -18.9676,-2.1069 z m 42.1508,9.4834 c -0.3584,-1.9254 -0.7355,-3.8312 -0.5279,-6.3226 6.7229,-0.2039 13.4476,1.7364 19.4955,0.527 0.5903,1.6591 0.046,1.1936 0,3.1608 -4.6653,3.1133 -14.7994,1.7689 -18.9676,2.6348 z m -42.6777,-3.6878 c 7.9099,-0.5567 11.3919,0.7495 18.4397,1.053 -2.4058,7.0524 -11.9971,6.7461 -18.9676,7.9034 -0.073,-4.0155 0.6508,-4.4996 0.5279,-8.9564 z m 48.4724,5.2677 c 13.8581,-1.0055 32.2727,-1.2783 45.3125,1.5818 0.2597,1.8481 0.7857,3.4289 0.5269,5.7956 -17.6613,1.3146 -35.9185,-2.4272 -53.7419,-1.0549 -19.5476,1.5073 -38.315,6.0572 -55.8498,6.8504 -1.7475,-0.1843 -0.8267,-3.0369 -1.0529,-4.7426 18.4052,-4.4893 35.3059,-5.519 55.4205,-8.5085 m 58.3849,24.8432 c 0.1741,0.9217 2.4188,4.0527 0,4.2147 -0.1164,-0.9869 -1.3583,-3.4922 0,-4.2147 z m 3.6887,0 c 1.0902,0.5875 2.1134,5.0266 -0.5269,4.7417 -0.9013,-1.0567 -0.7672,-4.2715 0.5269,-4.7417 z m 11.0642,1.5799 c 0.1611,2.268 0.037,4.252 -2.1078,4.2157 0.135,-1.9747 0.8276,-3.388 2.1078,-4.2157 z m -6.8495,3.1618 c 1.1414,-1.3183 0.5903,-4.3293 2.6339,-4.7417 0.01,0.8696 1.4626,0.2942 1.5818,1.053 -0.7346,1.3742 -1.9338,2.2819 -1.5818,4.7426 -1.3063,0.078 -2.5566,0.098 -2.6339,-1.0539 z m -8.4294,1.0539 c 4.2259,0.6908 8.7841,1.0502 12.6451,2.1069 -1.8965,1.1042 -11.2355,0.7625 -12.6451,-2.1069 z m -114.3343,-2.6357 c 2.997,0.1657 2.5724,3.752 3.1618,6.3234 l -2.1069,0 c -0.043,-2.4169 -1.3388,-3.5788 -1.0549,-6.3234 z m -2.6338,0.5279 c 0.8249,1.1293 2.3946,4.2473 1.0539,5.7955 -0.3063,-1.6497 -2.4532,-4.1895 -1.0539,-5.7955 z m -3.6887,0 c 2.0399,0.4347 2.2037,5.5023 2.1078,6.3225 -1.6442,-2.0873 -1.9346,-3.739 -2.1078,-6.3225 z m 119.6029,4.7426 c 4.5517,0.715 10.6992,-0.162 13.172,2.6338 -3.1617,-0.01 -10.3613,-0.5232 -13.172,-2.6338 z m -123.2907,-2.1079 c 1.9729,-1.0278 3.4076,2.3853 3.6878,4.7417 -2.4644,1.5176 -3.7585,-2.0361 -3.6878,-4.7417 z m 14.7529,6.3226 c -1.8732,0.7746 -7.1111,0.9477 -8.9573,0 1.6125,-1.1201 8.3587,-2.7996 8.9573,0 z m -9.4842,1.5799 c 3.5471,1.2112 7.0412,-1.3146 10.0112,1.0539 -2.5398,0.945 -8.3298,0.6117 -10.0112,-1.0539 z m 1.0539,2.6348 c 3.8385,-0.3259 6.1065,0.9189 10.0102,0.5269 0.8203,4.4493 3.4839,7.0543 3.6887,12.1181 -1.3974,0.01 -3.103,-0.2923 -3.1617,1.053 0.3817,2.0324 2.6972,3.6216 4.2156,1.5809 0.073,1.8601 1.5074,2.3564 1.58,4.2156 -8.0608,-3.8814 -12.7186,-11.1657 -16.3328,-19.4945 z m 116.4402,-6.3226 c 4.3748,0.7188 8.2646,1.9226 13.1729,2.1079 -2.5519,10.7951 -5.1466,21.5492 -13.6989,26.343 -2.781,-8.461 0.3445,-19.5029 0.526,-28.4509 z m -107.4829,-1.5808 c -1.6805,-5.8487 -3.2912,-14.0602 -4.2147,-18.9676 23.4262,-3.3293 45.4251,-5.8161 64.2791,-7.9034 15.6523,2.5296 32.2476,1.3314 46.3655,2.6348 2.321,17.8196 -3.0947,35.5443 -2.1069,53.741 -0.1005,1.4812 -1.7205,1.4431 -2.1078,2.6348 1.3435,0.061 2.7102,0.1 2.6339,1.5808 -1.5353,16.2863 -18.6185,30.704 -36.3553,25.8171 -1.8238,0.2774 -2.3517,0.8882 -4.2147,1.0539 -7.6762,0.6824 -18.1231,-3.4206 -22.6562,-4.7426 -1.0884,-0.3165 -2.4979,0.3296 -3.6878,0 -3.7333,-1.0325 -9.2701,-3.644 -11.592,-5.2677 -6.5404,-4.5797 -11.0242,-13.981 -15.2789,-21.6023 -1.5213,-2.7242 -3.9885,-4.7017 -4.7417,-6.8495 -2.3294,-6.6391 -2.6962,-13.6729 -5.7965,-19.4955 m 41.6238,65.8601 c 0.1918,4.3701 0.4758,11.1358 -1.5808,14.7528 -3.0324,-3.3507 -3.2009,-13.2995 1.5808,-14.7528 z m 45.8386,2.6347 c 8.0458,0.1909 5.5842,12.2345 0.5269,13.699 -0.9124,-3.2195 -1.6395,-9.0765 -0.5269,-13.699 z m -3.6878,-10.0093 c 2.4951,-1.8974 5.2109,-3.5714 8.4304,-4.7426 0.2774,4.399 -0.1518,10.3789 -1.0539,13.6989 -0.7663,-0.8155 -2.0548,-1.1069 -3.6887,-1.0539 -4.2715,4.9391 -2.1516,13.4858 0.5269,19.4946 -2.1785,3.0909 -3.7967,6.7405 -7.3764,8.4303 0.7336,-11.9105 3.0649,-22.0027 3.1617,-35.8273 z m -40.5699,33.1925 c -1.6637,-12.0007 0.6685,-23.0519 -1.053,-35.8282 12.7372,2.1646 27.1503,4.7761 40.043,2.6357 -0.6136,12.6152 -1.1284,26.574 -4.7426,37.9351 -11.9431,-1.0529 -24.496,-1.497 -34.2474,-4.7426 z m 3.6887,-169.1292 c -0.9813,-2.0854 -5.8421,-0.1107 -8.9573,0 2.5947,1.5353 8.7906,1.0456 11.5911,0 -0.9366,7.4361 2.7288,10.2673 6.3225,13.1721 -1.4626,0.8211 -3.0695,1.498 -4.2156,2.6338 -0.1527,10.378 0.4227,13.9038 1.0548,23.1832 -5.6075,1.1489 -13.6123,1.889 -20.5493,3.1617 2.4625,-7.49 1.0986,-11.1656 2.1078,-21.0754 -1.3081,-0.6228 -3.1003,-0.7634 -4.7417,-1.0539 5.1923,-2.7967 8.1865,-14.6718 1.5809,-18.4406 0.5819,-1.349 2.8294,-1.0343 4.7417,-1.0539 -0.068,-2.7418 -6.5637,0.9431 -5.7965,-2.6348 -3.5286,2.8359 -24.6105,0.2914 -33.1926,-0.526 0.9068,4.7035 11.229,0.918 15.8058,4.2147 -5.9203,3.766 -5.9966,15.1867 0.527,18.4406 -5.0098,3.3414 -2.0827,17.0097 -3.6878,24.7632 -4.7854,2.065 -12.3126,1.3881 -16.3328,4.2156 0.1127,6.7359 1.4133,12.2848 2.6339,17.9137 -1.674,1.1489 -5.8068,2.6059 -7.9034,1.5809 -1.1507,0.077 -1.1312,1.3276 -1.053,2.6338 -0.4795,1.2746 -1.5557,-1.1936 -3.1617,-0.526 -0.063,6.2778 2.8508,9.4777 5.7956,14.7519 4.4176,7.9127 10.1881,15.6848 18.9675,18.9676 7.3793,12.6432 15.2575,24.7873 32.1396,27.9258 0.9487,2.388 0.3743,6.2992 0.527,9.4833 -2.3313,2.0594 -4.346,4.4354 -4.2147,8.9573 -6.4157,2.726 -16.4743,-0.6517 -22.6554,0 0.9869,3.2567 6.6959,1.2001 10.5373,1.5809 4.0722,0.4031 8.1119,2.1692 11.5902,0 1.0194,3.0072 2.7232,8.5616 4.5685,7.2005 1.0762,2.6226 1.012,6.7005 0.701,10.7131 6.5534,1.3277 13.7549,3.3843 21.0754,4.2157 4.3702,0.4953 11.2523,1.9439 15.2799,1.053 6.9733,-1.5427 9.5829,-8.5859 12.5426,-15.1039 0.7951,-1.7512 1.4822,-0.8314 4.318,-7.5515 8.881,1.0633 19.7981,0.8221 26.3441,1.58 -1.0679,-3.7567 -6.438,-1.5446 -10.0113,-1.58 -5.8719,-0.06 -11.9505,-1.5659 -16.3328,-1.5808 -0.243,-1.6395 -1.6497,-3.4234 -1.9262,-5.0303 -0.9161,-5.3487 -0.5838,-10.3743 0.8714,-15.5191 1.4151,-4.9986 9.6509,-9.1826 11.5921,-15.8058 0.7969,-2.7186 -0.109,-5.0601 1.0539,-8.4304 0.8519,-1.079 2.5361,-1.3286 3.6887,-2.1078 8.1799,-9.2236 12.956,-24.603 15.2789,-37.9352 -5.6038,-2.6347 -10.4041,-0.1508 -13.172,-2.1069 -1.6926,-0.4636 -0.7216,1.7364 -2.1069,1.5809 -1.0754,-0.1555 -1.0344,-1.4263 -2.1079,-1.5809 0.8622,-7.9508 -0.5306,-13.3982 -0.5269,-21.6023 -8.6305,-3.7362 -18.3876,-3.0873 -30.5606,-3.1617 0.1443,-1.5837 -2.9885,-7.4156 -0.4543,-11.2625 -3.7585,-3.8461 1.8713,-16.8486 -5.8682,-17.1884 2.5575,-3.7669 4.3097,-8.3373 4.2156,-14.7538 1.8732,-0.8184 0.3184,1.7903 1.5809,1.5808 13.0752,0.3408 20.7821,2.3741 34.7743,1.5809 -3.9298,-1.6218 -11.1833,-0.9245 -16.8606,-2.1069 -0.6173,-0.086 -0.4432,-0.9617 -0.527,-1.5818 -2.2903,1.0893 -8.5532,0.2411 -12.6451,0 1.849,-0.9729 -2.564,-1.9039 -2.6338,0 -3.536,-0.5549 -6.4277,-4.534 -9.4842,-5.2686 -10.1118,-2.4309 -15.8338,4.8683 -22.1284,9.4842" /><path
         id="path130"
         style="fill:#b4b3b3;fill-opacity:1;fill-rule:evenodd;stroke:none"
         d="m 5138.6927,1881.4445 c -0.086,-1.4385 -9.9795,-1.1219 -12.119,2.6347 -0.5986,4.3777 1.6218,7.8429 3.6887,7.9025 1.3099,-1.5166 -2.2754,-2.619 -2.1078,-4.7407 2.5137,-2.9309 4.385,-6.505 10.5381,-5.7965" /><path
         id="path132"
         style="fill:#231f20;fill-opacity:1;fill-rule:evenodd;stroke:none"
         d="m 5220.3586,1976.8102 c 0.8789,0 1.7568,0 2.6348,0 0.6768,-2.2474 0.4804,-4.022 -2.1069,-4.2156 -0.7988,1.484 0.176,2.1618 -0.5279,4.2156" /></g></g></svg>
