<?xml version="1.0" encoding="UTF-8"?>
<!DOCTYPE svg PUBLIC "-//W3C//DTD SVG 1.1//EN" "http://www.w3.org/Graphics/SVG/1.1/DTD/svg11.dtd">
<svg width="134mm" height="94mm" viewBox="0 0 13400 9400" version="1.1" baseProfile="tiny" xmlns="http://www.w3.org/2000/svg" stroke-width="28.222" stroke-linejoin="round" xml:space="preserve">
 <path fill="rgb(255,255,255)" stroke="none" d="M 6706,9377 L 19,9377 19,0 13393,0 13393,9377 6706,9377 Z"/>
 <path fill="none" stroke="rgb(179,179,179)" stroke-linejoin="round" d="M 7382,6779 L 1733,6779 1733,387 13032,387 13032,6779 7382,6779 Z"/>
 <path fill="none" stroke="rgb(179,179,179)" stroke-linejoin="round" d="M 1733,386 L 1733,6778"/>
 <path fill="none" stroke="rgb(179,179,179)" stroke-linejoin="round" d="M 3347,386 L 3347,6778"/>
 <path fill="none" stroke="rgb(179,179,179)" stroke-linejoin="round" d="M 4961,386 L 4961,6778"/>
 <path fill="none" stroke="rgb(179,179,179)" stroke-linejoin="round" d="M 6575,386 L 6575,6778"/>
 <path fill="none" stroke="rgb(179,179,179)" stroke-linejoin="round" d="M 8189,386 L 8189,6778"/>
 <path fill="none" stroke="rgb(179,179,179)" stroke-linejoin="round" d="M 9803,386 L 9803,6778"/>
 <path fill="none" stroke="rgb(179,179,179)" stroke-linejoin="round" d="M 11417,386 L 11417,6778"/>
 <path fill="none" stroke="rgb(179,179,179)" stroke-linejoin="round" d="M 13032,386 L 13032,6778"/>
 <path fill="none" stroke="rgb(221,221,221)" stroke-linejoin="round" d="M 2540,386 L 2540,6778"/>
 <path fill="none" stroke="rgb(221,221,221)" stroke-linejoin="round" d="M 4154,386 L 4154,6778"/>
 <path fill="none" stroke="rgb(221,221,221)" stroke-linejoin="round" d="M 5768,386 L 5768,6778"/>
 <path fill="none" stroke="rgb(221,221,221)" stroke-linejoin="round" d="M 7382,386 L 7382,6778"/>
 <path fill="none" stroke="rgb(221,221,221)" stroke-linejoin="round" d="M 8996,386 L 8996,6778"/>
 <path fill="none" stroke="rgb(221,221,221)" stroke-linejoin="round" d="M 10610,386 L 10610,6778"/>
 <path fill="none" stroke="rgb(221,221,221)" stroke-linejoin="round" d="M 12224,386 L 12224,6778"/>
 <path fill="none" stroke="rgb(179,179,179)" stroke-linejoin="round" d="M 13032,6778 L 1733,6778"/>
 <path fill="none" stroke="rgb(179,179,179)" stroke-linejoin="round" d="M 13032,5712 L 1733,5712"/>
 <path fill="none" stroke="rgb(179,179,179)" stroke-linejoin="round" d="M 13032,4648 L 1733,4648"/>
 <path fill="none" stroke="rgb(179,179,179)" stroke-linejoin="round" d="M 13032,3582 L 1733,3582"/>
 <path fill="none" stroke="rgb(179,179,179)" stroke-linejoin="round" d="M 13032,2517 L 1733,2517"/>
 <path fill="none" stroke="rgb(179,179,179)" stroke-linejoin="round" d="M 13032,1451 L 1733,1451"/>
 <path fill="none" stroke="rgb(179,179,179)" stroke-linejoin="round" d="M 13032,386 L 1733,386"/>
 <path fill="none" stroke="rgb(221,221,221)" stroke-linejoin="round" d="M 13032,6245 L 1733,6245"/>
 <path fill="none" stroke="rgb(221,221,221)" stroke-linejoin="round" d="M 13032,5179 L 1733,5179"/>
 <path fill="none" stroke="rgb(221,221,221)" stroke-linejoin="round" d="M 13032,4115 L 1733,4115"/>
 <path fill="none" stroke="rgb(221,221,221)" stroke-linejoin="round" d="M 13032,3049 L 1733,3049"/>
 <path fill="none" stroke="rgb(221,221,221)" stroke-linejoin="round" d="M 13032,1984 L 1733,1984"/>
 <path fill="none" stroke="rgb(221,221,221)" stroke-linejoin="round" d="M 13032,918 L 1733,918"/>
 <path fill="none" stroke="rgb(179,179,179)" stroke-linejoin="round" d="M 1733,6928 L 1733,6778"/>
 <path fill="none" stroke="rgb(179,179,179)" stroke-linejoin="round" d="M 1733,6928 L 1733,6778"/>
 <path fill="none" stroke="rgb(179,179,179)" stroke-linejoin="round" d="M 3347,6928 L 3347,6778"/>
 <path fill="none" stroke="rgb(179,179,179)" stroke-linejoin="round" d="M 3347,6928 L 3347,6778"/>
 <path fill="none" stroke="rgb(179,179,179)" stroke-linejoin="round" d="M 4961,6928 L 4961,6778"/>
 <path fill="none" stroke="rgb(179,179,179)" stroke-linejoin="round" d="M 4961,6928 L 4961,6778"/>
 <path fill="none" stroke="rgb(179,179,179)" stroke-linejoin="round" d="M 6575,6928 L 6575,6778"/>
 <path fill="none" stroke="rgb(179,179,179)" stroke-linejoin="round" d="M 6575,6928 L 6575,6778"/>
 <path fill="none" stroke="rgb(179,179,179)" stroke-linejoin="round" d="M 8189,6928 L 8189,6778"/>
 <path fill="none" stroke="rgb(179,179,179)" stroke-linejoin="round" d="M 8189,6928 L 8189,6778"/>
 <path fill="none" stroke="rgb(179,179,179)" stroke-linejoin="round" d="M 9803,6928 L 9803,6778"/>
 <path fill="none" stroke="rgb(179,179,179)" stroke-linejoin="round" d="M 9803,6928 L 9803,6778"/>
 <path fill="none" stroke="rgb(179,179,179)" stroke-linejoin="round" d="M 11417,6928 L 11417,6778"/>
 <path fill="none" stroke="rgb(179,179,179)" stroke-linejoin="round" d="M 11417,6928 L 11417,6778"/>
 <path fill="none" stroke="rgb(179,179,179)" stroke-linejoin="round" d="M 13032,6928 L 13032,6778"/>
 <path fill="none" stroke="rgb(179,179,179)" stroke-linejoin="round" d="M 13032,6928 L 13032,6778"/>
 <path fill="none" stroke="rgb(179,179,179)" stroke-linejoin="round" d="M 1733,6778 L 13032,6778"/>
 <path fill="none" stroke="rgb(179,179,179)" stroke-linejoin="round" d="M 1583,6778 L 1733,6778"/>
 <path fill="none" stroke="rgb(179,179,179)" stroke-linejoin="round" d="M 1583,6778 L 1733,6778"/>
 <path fill="none" stroke="rgb(179,179,179)" stroke-linejoin="round" d="M 1583,5712 L 1733,5712"/>
 <path fill="none" stroke="rgb(179,179,179)" stroke-linejoin="round" d="M 1583,5712 L 1733,5712"/>
 <path fill="none" stroke="rgb(179,179,179)" stroke-linejoin="round" d="M 1583,4648 L 1733,4648"/>
 <path fill="none" stroke="rgb(179,179,179)" stroke-linejoin="round" d="M 1583,4648 L 1733,4648"/>
 <path fill="none" stroke="rgb(179,179,179)" stroke-linejoin="round" d="M 1583,3582 L 1733,3582"/>
 <path fill="none" stroke="rgb(179,179,179)" stroke-linejoin="round" d="M 1583,3582 L 1733,3582"/>
 <path fill="none" stroke="rgb(179,179,179)" stroke-linejoin="round" d="M 1583,2517 L 1733,2517"/>
 <path fill="none" stroke="rgb(179,179,179)" stroke-linejoin="round" d="M 1583,2517 L 1733,2517"/>
 <path fill="none" stroke="rgb(179,179,179)" stroke-linejoin="round" d="M 1583,1451 L 1733,1451"/>
 <path fill="none" stroke="rgb(179,179,179)" stroke-linejoin="round" d="M 1583,1451 L 1733,1451"/>
 <path fill="none" stroke="rgb(179,179,179)" stroke-linejoin="round" d="M 1583,386 L 1733,386"/>
 <path fill="none" stroke="rgb(179,179,179)" stroke-linejoin="round" d="M 1583,386 L 1733,386"/>
 <path fill="none" stroke="rgb(179,179,179)" stroke-linejoin="round" d="M 1733,6778 L 1733,386"/>
 <path fill="none" stroke="rgb(255,66,14)" stroke-width="80" stroke-linejoin="round" d="M 2540,5636 L 3347,5255 4154,4875 4961,4495 5768,4115 6575,3734 7382,3354 11417,1451"/>
 <path fill="rgb(255,66,14)" stroke="none" d="M 2415,5636 L 2540,5761 2665,5636 2540,5511 2415,5636 Z"/>
 <path fill="none" stroke="rgb(255,66,14)" stroke-linejoin="round" d="M 2415,5636 L 2540,5761 2665,5636 2540,5511 2415,5636 Z"/>
 <path fill="rgb(255,66,14)" stroke="none" d="M 3222,5255 L 3347,5380 3472,5255 3347,5130 3222,5255 Z"/>
 <path fill="none" stroke="rgb(255,66,14)" stroke-linejoin="round" d="M 3222,5255 L 3347,5380 3472,5255 3347,5130 3222,5255 Z"/>
 <path fill="rgb(255,66,14)" stroke="none" d="M 4029,4875 L 4154,5000 4279,4875 4154,4750 4029,4875 Z"/>
 <path fill="none" stroke="rgb(255,66,14)" stroke-linejoin="round" d="M 4029,4875 L 4154,5000 4279,4875 4154,4750 4029,4875 Z"/>
 <path fill="rgb(255,66,14)" stroke="none" d="M 4836,4495 L 4961,4620 5086,4495 4961,4370 4836,4495 Z"/>
 <path fill="none" stroke="rgb(255,66,14)" stroke-linejoin="round" d="M 4836,4495 L 4961,4620 5086,4495 4961,4370 4836,4495 Z"/>
 <path fill="rgb(255,66,14)" stroke="none" d="M 5643,4115 L 5768,4240 5893,4115 5768,3990 5643,4115 Z"/>
 <path fill="none" stroke="rgb(255,66,14)" stroke-linejoin="round" d="M 5643,4115 L 5768,4240 5893,4115 5768,3990 5643,4115 Z"/>
 <path fill="rgb(255,66,14)" stroke="none" d="M 6450,3734 L 6575,3859 6700,3734 6575,3609 6450,3734 Z"/>
 <path fill="none" stroke="rgb(255,66,14)" stroke-linejoin="round" d="M 6450,3734 L 6575,3859 6700,3734 6575,3609 6450,3734 Z"/>
 <path fill="rgb(255,66,14)" stroke="none" d="M 7257,3354 L 7382,3479 7507,3354 7382,3229 7257,3354 Z"/>
 <path fill="none" stroke="rgb(255,66,14)" stroke-linejoin="round" d="M 7257,3354 L 7382,3479 7507,3354 7382,3229 7257,3354 Z"/>
 <path fill="rgb(255,66,14)" stroke="none" d="M 11292,1451 L 11417,1576 11542,1451 11417,1326 11292,1451 Z"/>
 <path fill="none" stroke="rgb(255,66,14)" stroke-linejoin="round" d="M 11292,1451 L 11417,1576 11542,1451 11417,1326 11292,1451 Z"/>
 <path fill="none" stroke="rgb(0,69,134)" stroke-width="80" stroke-linejoin="round" d="M 2540,5733 L 3347,5371 4154,5062 4961,4732 5768,4434 6575,4083 7382,3763 11417,2303"/>
 <path fill="rgb(0,69,134)" stroke="none" d="M 2415,5608 L 2415,5858 2665,5858 2665,5608 2415,5608 Z"/>
 <path fill="none" stroke="rgb(0,69,134)" stroke-linejoin="round" d="M 2415,5608 L 2415,5858 2665,5858 2665,5608 2415,5608 Z"/>
 <path fill="rgb(0,69,134)" stroke="none" d="M 3222,5246 L 3222,5496 3472,5496 3472,5246 3222,5246 Z"/>
 <path fill="none" stroke="rgb(0,69,134)" stroke-linejoin="round" d="M 3222,5246 L 3222,5496 3472,5496 3472,5246 3222,5246 Z"/>
 <path fill="rgb(0,69,134)" stroke="none" d="M 4029,4937 L 4029,5187 4279,5187 4279,4937 4029,4937 Z"/>
 <path fill="none" stroke="rgb(0,69,134)" stroke-linejoin="round" d="M 4029,4937 L 4029,5187 4279,5187 4279,4937 4029,4937 Z"/>
 <path fill="rgb(0,69,134)" stroke="none" d="M 4836,4608 L 4836,4857 5086,4857 5086,4608 4836,4608 Z"/>
 <path fill="none" stroke="rgb(0,69,134)" stroke-linejoin="round" d="M 4836,4608 L 4836,4857 5086,4857 5086,4608 4836,4608 Z"/>
 <path fill="rgb(0,69,134)" stroke="none" d="M 5643,4309 L 5643,4559 5893,4559 5893,4309 5643,4309 Z"/>
 <path fill="none" stroke="rgb(0,69,134)" stroke-linejoin="round" d="M 5643,4309 L 5643,4559 5893,4559 5893,4309 5643,4309 Z"/>
 <path fill="rgb(0,69,134)" stroke="none" d="M 6450,3958 L 6450,4208 6700,4208 6700,3958 6450,3958 Z"/>
 <path fill="none" stroke="rgb(0,69,134)" stroke-linejoin="round" d="M 6450,3958 L 6450,4208 6700,4208 6700,3958 6450,3958 Z"/>
 <path fill="rgb(0,69,134)" stroke="none" d="M 7257,3638 L 7257,3888 7507,3888 7507,3638 7257,3638 Z"/>
 <path fill="none" stroke="rgb(0,69,134)" stroke-linejoin="round" d="M 7257,3638 L 7257,3888 7507,3888 7507,3638 7257,3638 Z"/>
 <path fill="rgb(0,69,134)" stroke="none" d="M 11292,2178 L 11292,2428 11542,2428 11542,2178 11292,2178 Z"/>
 <path fill="none" stroke="rgb(0,69,134)" stroke-linejoin="round" d="M 11292,2178 L 11292,2428 11542,2428 11542,2178 11292,2178 Z"/>
 <text class="TextShape"><tspan class="TextParagraph" font-family="Liberation Sans" font-size="353px" font-weight="400"><tspan class="TextPosition" x="1640" y="7346"/><tspan class="TextPosition" x="1640" y="7346"><tspan fill="rgb(0,0,0)" stroke="none">1</tspan></tspan></tspan></text>
 <text class="TextShape"><tspan class="TextParagraph" font-family="Liberation Sans" font-size="353px" font-weight="400"><tspan class="TextPosition" x="3254" y="7346"/><tspan class="TextPosition" x="3254" y="7346"><tspan fill="rgb(0,0,0)" stroke="none">2</tspan></tspan></tspan></text>
 <text class="TextShape"><tspan class="TextParagraph" font-family="Liberation Sans" font-size="353px" font-weight="400"><tspan class="TextPosition" x="4868" y="7346"/><tspan class="TextPosition" x="4868" y="7346"><tspan fill="rgb(0,0,0)" stroke="none">3</tspan></tspan></tspan></text>
 <text class="TextShape"><tspan class="TextParagraph" font-family="Liberation Sans" font-size="353px" font-weight="400"><tspan class="TextPosition" x="6482" y="7346"/><tspan class="TextPosition" x="6482" y="7346"><tspan fill="rgb(0,0,0)" stroke="none">4</tspan></tspan></tspan></text>
 <text class="TextShape"><tspan class="TextParagraph" font-family="Liberation Sans" font-size="353px" font-weight="400"><tspan class="TextPosition" x="8097" y="7346"/><tspan class="TextPosition" x="8097" y="7346"><tspan fill="rgb(0,0,0)" stroke="none">5</tspan></tspan></tspan></text>
 <text class="TextShape"><tspan class="TextParagraph" font-family="Liberation Sans" font-size="353px" font-weight="400"><tspan class="TextPosition" x="9711" y="7346"/><tspan class="TextPosition" x="9711" y="7346"><tspan fill="rgb(0,0,0)" stroke="none">6</tspan></tspan></tspan></text>
 <text class="TextShape"><tspan class="TextParagraph" font-family="Liberation Sans" font-size="353px" font-weight="400"><tspan class="TextPosition" x="11325" y="7346"/><tspan class="TextPosition" x="11325" y="7346"><tspan fill="rgb(0,0,0)" stroke="none">7</tspan></tspan></tspan></text>
 <text class="TextShape"><tspan class="TextParagraph" font-family="Liberation Sans" font-size="353px" font-weight="400"><tspan class="TextPosition" x="12940" y="7346"/><tspan class="TextPosition" x="12940" y="7346"><tspan fill="rgb(0,0,0)" stroke="none">8</tspan></tspan></tspan></text>
 <text class="TextShape"><tspan class="TextParagraph" font-family="Liberation Sans" font-size="353px" font-weight="400"><tspan class="TextPosition" x="1298" y="6899"/><tspan class="TextPosition" x="1298" y="6899"><tspan fill="rgb(0,0,0)" stroke="none">0</tspan></tspan></tspan></text>
 <text class="TextShape"><tspan class="TextParagraph" font-family="Liberation Sans" font-size="353px" font-weight="400"><tspan class="TextPosition" x="1298" y="5833"/><tspan class="TextPosition" x="1298" y="5833"><tspan fill="rgb(0,0,0)" stroke="none">1</tspan></tspan></tspan></text>
 <text class="TextShape"><tspan class="TextParagraph" font-family="Liberation Sans" font-size="353px" font-weight="400"><tspan class="TextPosition" x="1298" y="4768"/><tspan class="TextPosition" x="1298" y="4768"><tspan fill="rgb(0,0,0)" stroke="none">2</tspan></tspan></tspan></text>
 <text class="TextShape"><tspan class="TextParagraph" font-family="Liberation Sans" font-size="353px" font-weight="400"><tspan class="TextPosition" x="1298" y="3702"/><tspan class="TextPosition" x="1298" y="3702"><tspan fill="rgb(0,0,0)" stroke="none">3</tspan></tspan></tspan></text>
 <text class="TextShape"><tspan class="TextParagraph" font-family="Liberation Sans" font-size="353px" font-weight="400"><tspan class="TextPosition" x="1298" y="2637"/><tspan class="TextPosition" x="1298" y="2637"><tspan fill="rgb(0,0,0)" stroke="none">4</tspan></tspan></tspan></text>
 <text class="TextShape"><tspan class="TextParagraph" font-family="Liberation Sans" font-size="353px" font-weight="400"><tspan class="TextPosition" x="1298" y="1571"/><tspan class="TextPosition" x="1298" y="1571"><tspan fill="rgb(0,0,0)" stroke="none">5</tspan></tspan></tspan></text>
 <text class="TextShape"><tspan class="TextParagraph" font-family="Liberation Sans" font-size="353px" font-weight="400"><tspan class="TextPosition" x="1298" y="506"/><tspan class="TextPosition" x="1298" y="506"><tspan fill="rgb(0,0,0)" stroke="none">6</tspan></tspan></tspan></text>
 <path fill="rgb(217,217,217)" stroke="none" d="M 6705,9192 L 2793,9192 2793,8594 10617,8594 10617,9192 6705,9192 Z"/>
 <path fill="none" stroke="rgb(0,0,0)" stroke-linejoin="round" d="M 6705,9192 L 2793,9192 2793,8594 10617,8594 10617,9192 6705,9192 Z"/>
 <path fill="none" stroke="rgb(0,69,134)" stroke-width="80" stroke-linejoin="round" d="M 2909,8892 L 3709,8892"/>
 <path fill="rgb(0,69,134)" stroke="none" d="M 3203,8787 L 3203,8998 3414,8998 3414,8787 3203,8787 Z"/>
 <path fill="none" stroke="rgb(0,69,134)" stroke-linejoin="round" d="M 3203,8787 L 3203,8998 3414,8998 3414,8787 3203,8787 Z"/>
 <path fill="none" stroke="rgb(255,66,14)" stroke-width="80" stroke-linejoin="round" d="M 5922,8892 L 6721,8892"/>
 <path fill="rgb(255,66,14)" stroke="none" d="M 6216,8892 L 6322,8998 6427,8892 6322,8787 6216,8892 Z"/>
 <path fill="none" stroke="rgb(255,66,14)" stroke-linejoin="round" d="M 6216,8892 L 6322,8998 6427,8892 6322,8787 6216,8892 Z"/>
 <text class="TextShape"><tspan class="TextParagraph" font-family="Liberation Sans" font-size="353px" font-weight="400"><tspan class="TextPosition" x="3809" y="9012"/><tspan class="TextPosition" x="3809" y="9012"><tspan fill="rgb(0,0,0)" stroke="none">Max Current</tspan></tspan></tspan></text>
 <text class="TextShape"><tspan class="TextParagraph" font-family="Liberation Sans" font-size="353px" font-weight="400"><tspan class="TextPosition" x="6821" y="9012"/><tspan class="TextPosition" x="6821" y="9012"><tspan fill="rgb(0,0,0)" stroke="none">Theoretical Max Current</tspan></tspan></tspan></text>
 <text class="TextShape"><tspan class="TextParagraph" font-family="Liberation Sans" font-size="318px" font-weight="400"><tspan class="TextPosition" x="4778" y="8000"/><tspan class="TextPosition" x="4778" y="8000"><tspan fill="rgb(0,0,0)" stroke="none">Voltage (Supply under test) (Volts)</tspan></tspan></tspan></text>
 <text class="TextShape" transform="translate(856,5288) rotate(-90) translate(-856,-5288)"><tspan class="TextParagraph" font-family="Liberation Sans" font-size="318px" font-weight="400"><tspan class="TextPosition" x="856" y="5288"/><tspan class="TextPosition" x="856" y="5288"><tspan fill="rgb(0,0,0)" stroke="none">Max Current  (Amps)</tspan></tspan></tspan></text>
</svg>