<?xml version="1.0" encoding="UTF-8"?>
<!DOCTYPE svg PUBLIC "-//W3C//DTD SVG 1.1//EN" "http://www.w3.org/Graphics/SVG/1.1/DTD/svg11.dtd">
<svg width="124mm" height="92mm" viewBox="0 0 12400 9200" version="1.1" baseProfile="tiny" xmlns="http://www.w3.org/2000/svg" stroke-width="28.222" stroke-linejoin="round" xml:space="preserve">
 <path fill="rgb(255,255,255)" stroke="none" d="M 6217,9224 L 14,9224 14,0 12419,0 12419,9224 6217,9224 Z"/>
 <path fill="none" stroke="rgb(179,179,179)" stroke-linejoin="round" d="M 6985,7412 L 1894,7412 1894,383 12077,383 12077,7412 6985,7412 Z"/>
 <path fill="none" stroke="rgb(179,179,179)" stroke-linejoin="round" d="M 1894,382 L 1894,7411"/>
 <path fill="none" stroke="rgb(179,179,179)" stroke-linejoin="round" d="M 3348,382 L 3348,7411"/>
 <path fill="none" stroke="rgb(179,179,179)" stroke-linejoin="round" d="M 4803,382 L 4803,7411"/>
 <path fill="none" stroke="rgb(179,179,179)" stroke-linejoin="round" d="M 6257,382 L 6257,7411"/>
 <path fill="none" stroke="rgb(179,179,179)" stroke-linejoin="round" d="M 7712,382 L 7712,7411"/>
 <path fill="none" stroke="rgb(179,179,179)" stroke-linejoin="round" d="M 9167,382 L 9167,7411"/>
 <path fill="none" stroke="rgb(179,179,179)" stroke-linejoin="round" d="M 10622,382 L 10622,7411"/>
 <path fill="none" stroke="rgb(179,179,179)" stroke-linejoin="round" d="M 12077,382 L 12077,7411"/>
 <path fill="none" stroke="rgb(221,221,221)" stroke-linejoin="round" d="M 2621,382 L 2621,7411"/>
 <path fill="none" stroke="rgb(221,221,221)" stroke-linejoin="round" d="M 4076,382 L 4076,7411"/>
 <path fill="none" stroke="rgb(221,221,221)" stroke-linejoin="round" d="M 5531,382 L 5531,7411"/>
 <path fill="none" stroke="rgb(221,221,221)" stroke-linejoin="round" d="M 6985,382 L 6985,7411"/>
 <path fill="none" stroke="rgb(221,221,221)" stroke-linejoin="round" d="M 8439,382 L 8439,7411"/>
 <path fill="none" stroke="rgb(221,221,221)" stroke-linejoin="round" d="M 9894,382 L 9894,7411"/>
 <path fill="none" stroke="rgb(221,221,221)" stroke-linejoin="round" d="M 11349,382 L 11349,7411"/>
 <path fill="none" stroke="rgb(179,179,179)" stroke-linejoin="round" d="M 12077,7411 L 1894,7411"/>
 <path fill="none" stroke="rgb(179,179,179)" stroke-linejoin="round" d="M 12077,6406 L 1894,6406"/>
 <path fill="none" stroke="rgb(179,179,179)" stroke-linejoin="round" d="M 12077,5402 L 1894,5402"/>
 <path fill="none" stroke="rgb(179,179,179)" stroke-linejoin="round" d="M 12077,4399 L 1894,4399"/>
 <path fill="none" stroke="rgb(179,179,179)" stroke-linejoin="round" d="M 12077,3394 L 1894,3394"/>
 <path fill="none" stroke="rgb(179,179,179)" stroke-linejoin="round" d="M 12077,2390 L 1894,2390"/>
 <path fill="none" stroke="rgb(179,179,179)" stroke-linejoin="round" d="M 12077,1386 L 1894,1386"/>
 <path fill="none" stroke="rgb(179,179,179)" stroke-linejoin="round" d="M 12077,382 L 1894,382"/>
 <path fill="none" stroke="rgb(221,221,221)" stroke-linejoin="round" d="M 12077,6908 L 1894,6908"/>
 <path fill="none" stroke="rgb(221,221,221)" stroke-linejoin="round" d="M 12077,5904 L 1894,5904"/>
 <path fill="none" stroke="rgb(221,221,221)" stroke-linejoin="round" d="M 12077,4900 L 1894,4900"/>
 <path fill="none" stroke="rgb(221,221,221)" stroke-linejoin="round" d="M 12077,3897 L 1894,3897"/>
 <path fill="none" stroke="rgb(221,221,221)" stroke-linejoin="round" d="M 12077,2892 L 1894,2892"/>
 <path fill="none" stroke="rgb(221,221,221)" stroke-linejoin="round" d="M 12077,1888 L 1894,1888"/>
 <path fill="none" stroke="rgb(221,221,221)" stroke-linejoin="round" d="M 12077,884 L 1894,884"/>
 <path fill="none" stroke="rgb(179,179,179)" stroke-linejoin="round" d="M 1894,7561 L 1894,7411"/>
 <path fill="none" stroke="rgb(179,179,179)" stroke-linejoin="round" d="M 1894,7561 L 1894,7411"/>
 <path fill="none" stroke="rgb(179,179,179)" stroke-linejoin="round" d="M 3348,7561 L 3348,7411"/>
 <path fill="none" stroke="rgb(179,179,179)" stroke-linejoin="round" d="M 3348,7561 L 3348,7411"/>
 <path fill="none" stroke="rgb(179,179,179)" stroke-linejoin="round" d="M 4803,7561 L 4803,7411"/>
 <path fill="none" stroke="rgb(179,179,179)" stroke-linejoin="round" d="M 4803,7561 L 4803,7411"/>
 <path fill="none" stroke="rgb(179,179,179)" stroke-linejoin="round" d="M 6257,7561 L 6257,7411"/>
 <path fill="none" stroke="rgb(179,179,179)" stroke-linejoin="round" d="M 6257,7561 L 6257,7411"/>
 <path fill="none" stroke="rgb(179,179,179)" stroke-linejoin="round" d="M 7712,7561 L 7712,7411"/>
 <path fill="none" stroke="rgb(179,179,179)" stroke-linejoin="round" d="M 7712,7561 L 7712,7411"/>
 <path fill="none" stroke="rgb(179,179,179)" stroke-linejoin="round" d="M 9167,7561 L 9167,7411"/>
 <path fill="none" stroke="rgb(179,179,179)" stroke-linejoin="round" d="M 9167,7561 L 9167,7411"/>
 <path fill="none" stroke="rgb(179,179,179)" stroke-linejoin="round" d="M 10622,7561 L 10622,7411"/>
 <path fill="none" stroke="rgb(179,179,179)" stroke-linejoin="round" d="M 10622,7561 L 10622,7411"/>
 <path fill="none" stroke="rgb(179,179,179)" stroke-linejoin="round" d="M 12077,7561 L 12077,7411"/>
 <path fill="none" stroke="rgb(179,179,179)" stroke-linejoin="round" d="M 12077,7561 L 12077,7411"/>
 <path fill="none" stroke="rgb(179,179,179)" stroke-linejoin="round" d="M 1894,7411 L 12077,7411"/>
 <path fill="none" stroke="rgb(179,179,179)" stroke-linejoin="round" d="M 1744,7411 L 1894,7411"/>
 <path fill="none" stroke="rgb(179,179,179)" stroke-linejoin="round" d="M 1744,7411 L 1894,7411"/>
 <path fill="none" stroke="rgb(179,179,179)" stroke-linejoin="round" d="M 1744,6406 L 1894,6406"/>
 <path fill="none" stroke="rgb(179,179,179)" stroke-linejoin="round" d="M 1744,6406 L 1894,6406"/>
 <path fill="none" stroke="rgb(179,179,179)" stroke-linejoin="round" d="M 1744,5402 L 1894,5402"/>
 <path fill="none" stroke="rgb(179,179,179)" stroke-linejoin="round" d="M 1744,5402 L 1894,5402"/>
 <path fill="none" stroke="rgb(179,179,179)" stroke-linejoin="round" d="M 1744,4399 L 1894,4399"/>
 <path fill="none" stroke="rgb(179,179,179)" stroke-linejoin="round" d="M 1744,4399 L 1894,4399"/>
 <path fill="none" stroke="rgb(179,179,179)" stroke-linejoin="round" d="M 1744,3394 L 1894,3394"/>
 <path fill="none" stroke="rgb(179,179,179)" stroke-linejoin="round" d="M 1744,3394 L 1894,3394"/>
 <path fill="none" stroke="rgb(179,179,179)" stroke-linejoin="round" d="M 1744,2390 L 1894,2390"/>
 <path fill="none" stroke="rgb(179,179,179)" stroke-linejoin="round" d="M 1744,2390 L 1894,2390"/>
 <path fill="none" stroke="rgb(179,179,179)" stroke-linejoin="round" d="M 1744,1386 L 1894,1386"/>
 <path fill="none" stroke="rgb(179,179,179)" stroke-linejoin="round" d="M 1744,1386 L 1894,1386"/>
 <path fill="none" stroke="rgb(179,179,179)" stroke-linejoin="round" d="M 1744,382 L 1894,382"/>
 <path fill="none" stroke="rgb(179,179,179)" stroke-linejoin="round" d="M 1744,382 L 1894,382"/>
 <path fill="none" stroke="rgb(179,179,179)" stroke-linejoin="round" d="M 1894,7411 L 1894,382"/>
 <path fill="none" stroke="rgb(0,69,134)" stroke-width="80" stroke-linejoin="round" d="M 2621,7115 L 3348,6880 4076,6602 4803,6254 5531,5864 6257,5378 6985,4853 10622,1506"/>
 <path fill="rgb(0,69,134)" stroke="none" d="M 2496,6990 L 2496,7240 2746,7240 2746,6990 2496,6990 Z"/>
 <path fill="none" stroke="rgb(0,69,134)" stroke-linejoin="round" d="M 2496,6990 L 2496,7240 2746,7240 2746,6990 2496,6990 Z"/>
 <path fill="rgb(0,69,134)" stroke="none" d="M 3223,6755 L 3223,7005 3473,7005 3473,6755 3223,6755 Z"/>
 <path fill="none" stroke="rgb(0,69,134)" stroke-linejoin="round" d="M 3223,6755 L 3223,7005 3473,7005 3473,6755 3223,6755 Z"/>
 <path fill="rgb(0,69,134)" stroke="none" d="M 3951,6477 L 3951,6727 4201,6727 4201,6477 3951,6477 Z"/>
 <path fill="none" stroke="rgb(0,69,134)" stroke-linejoin="round" d="M 3951,6477 L 3951,6727 4201,6727 4201,6477 3951,6477 Z"/>
 <path fill="rgb(0,69,134)" stroke="none" d="M 4678,6129 L 4678,6379 4928,6379 4928,6129 4678,6129 Z"/>
 <path fill="none" stroke="rgb(0,69,134)" stroke-linejoin="round" d="M 4678,6129 L 4678,6379 4928,6379 4928,6129 4678,6129 Z"/>
 <path fill="rgb(0,69,134)" stroke="none" d="M 5406,5739 L 5406,5989 5656,5989 5656,5739 5406,5739 Z"/>
 <path fill="none" stroke="rgb(0,69,134)" stroke-linejoin="round" d="M 5406,5739 L 5406,5989 5656,5989 5656,5739 5406,5739 Z"/>
 <path fill="rgb(0,69,134)" stroke="none" d="M 6133,5253 L 6133,5503 6382,5503 6382,5253 6133,5253 Z"/>
 <path fill="none" stroke="rgb(0,69,134)" stroke-linejoin="round" d="M 6133,5253 L 6133,5503 6382,5503 6382,5253 6133,5253 Z"/>
 <path fill="rgb(0,69,134)" stroke="none" d="M 6860,4728 L 6860,4978 7110,4978 7110,4728 6860,4728 Z"/>
 <path fill="none" stroke="rgb(0,69,134)" stroke-linejoin="round" d="M 6860,4728 L 6860,4978 7110,4978 7110,4728 6860,4728 Z"/>
 <path fill="rgb(0,69,134)" stroke="none" d="M 10497,1381 L 10497,1631 10747,1631 10747,1381 10497,1381 Z"/>
 <path fill="none" stroke="rgb(0,69,134)" stroke-linejoin="round" d="M 10497,1381 L 10497,1631 10747,1631 10747,1381 10497,1381 Z"/>
 <text class="TextShape"><tspan class="TextParagraph" font-family="Liberation Sans" font-size="353px" font-weight="400"><tspan class="TextPosition" x="1801" y="7979"/><tspan class="TextPosition" x="1801" y="7979"><tspan fill="rgb(0,0,0)" stroke="none">1</tspan></tspan></tspan></text>
 <text class="TextShape"><tspan class="TextParagraph" font-family="Liberation Sans" font-size="353px" font-weight="400"><tspan class="TextPosition" x="3255" y="7979"/><tspan class="TextPosition" x="3255" y="7979"><tspan fill="rgb(0,0,0)" stroke="none">2</tspan></tspan></tspan></text>
 <text class="TextShape"><tspan class="TextParagraph" font-family="Liberation Sans" font-size="353px" font-weight="400"><tspan class="TextPosition" x="4710" y="7979"/><tspan class="TextPosition" x="4710" y="7979"><tspan fill="rgb(0,0,0)" stroke="none">3</tspan></tspan></tspan></text>
 <text class="TextShape"><tspan class="TextParagraph" font-family="Liberation Sans" font-size="353px" font-weight="400"><tspan class="TextPosition" x="6165" y="7979"/><tspan class="TextPosition" x="6165" y="7979"><tspan fill="rgb(0,0,0)" stroke="none">4</tspan></tspan></tspan></text>
 <text class="TextShape"><tspan class="TextParagraph" font-family="Liberation Sans" font-size="353px" font-weight="400"><tspan class="TextPosition" x="7620" y="7979"/><tspan class="TextPosition" x="7620" y="7979"><tspan fill="rgb(0,0,0)" stroke="none">5</tspan></tspan></tspan></text>
 <text class="TextShape"><tspan class="TextParagraph" font-family="Liberation Sans" font-size="353px" font-weight="400"><tspan class="TextPosition" x="9075" y="7979"/><tspan class="TextPosition" x="9075" y="7979"><tspan fill="rgb(0,0,0)" stroke="none">6</tspan></tspan></tspan></text>
 <text class="TextShape"><tspan class="TextParagraph" font-family="Liberation Sans" font-size="353px" font-weight="400"><tspan class="TextPosition" x="10530" y="7979"/><tspan class="TextPosition" x="10530" y="7979"><tspan fill="rgb(0,0,0)" stroke="none">7</tspan></tspan></tspan></text>
 <text class="TextShape"><tspan class="TextParagraph" font-family="Liberation Sans" font-size="353px" font-weight="400"><tspan class="TextPosition" x="11985" y="7979"/><tspan class="TextPosition" x="11985" y="7979"><tspan fill="rgb(0,0,0)" stroke="none">8</tspan></tspan></tspan></text>
 <text class="TextShape"><tspan class="TextParagraph" font-family="Liberation Sans" font-size="353px" font-weight="400"><tspan class="TextPosition" x="1459" y="7532"/><tspan class="TextPosition" x="1459" y="7532"><tspan fill="rgb(0,0,0)" stroke="none">0</tspan></tspan></tspan></text>
 <text class="TextShape"><tspan class="TextParagraph" font-family="Liberation Sans" font-size="353px" font-weight="400"><tspan class="TextPosition" x="1459" y="6527"/><tspan class="TextPosition" x="1459" y="6527"><tspan fill="rgb(0,0,0)" stroke="none">5</tspan></tspan></tspan></text>
 <text class="TextShape"><tspan class="TextParagraph" font-family="Liberation Sans" font-size="353px" font-weight="400"><tspan class="TextPosition" x="1274" y="5523"/><tspan class="TextPosition" x="1274" y="5523"><tspan fill="rgb(0,0,0)" stroke="none">10</tspan></tspan></tspan></text>
 <text class="TextShape"><tspan class="TextParagraph" font-family="Liberation Sans" font-size="353px" font-weight="400"><tspan class="TextPosition" x="1274" y="4519"/><tspan class="TextPosition" x="1274" y="4519"><tspan fill="rgb(0,0,0)" stroke="none">15</tspan></tspan></tspan></text>
 <text class="TextShape"><tspan class="TextParagraph" font-family="Liberation Sans" font-size="353px" font-weight="400"><tspan class="TextPosition" x="1274" y="3514"/><tspan class="TextPosition" x="1274" y="3514"><tspan fill="rgb(0,0,0)" stroke="none">20</tspan></tspan></tspan></text>
 <text class="TextShape"><tspan class="TextParagraph" font-family="Liberation Sans" font-size="353px" font-weight="400"><tspan class="TextPosition" x="1274" y="2510"/><tspan class="TextPosition" x="1274" y="2510"><tspan fill="rgb(0,0,0)" stroke="none">25</tspan></tspan></tspan></text>
 <text class="TextShape"><tspan class="TextParagraph" font-family="Liberation Sans" font-size="353px" font-weight="400"><tspan class="TextPosition" x="1274" y="1506"/><tspan class="TextPosition" x="1274" y="1506"><tspan fill="rgb(0,0,0)" stroke="none">30</tspan></tspan></tspan></text>
 <text class="TextShape"><tspan class="TextParagraph" font-family="Liberation Sans" font-size="353px" font-weight="400"><tspan class="TextPosition" x="1274" y="502"/><tspan class="TextPosition" x="1274" y="502"><tspan fill="rgb(0,0,0)" stroke="none">35</tspan></tspan></tspan></text>
 <text class="TextShape"><tspan class="TextParagraph" font-family="Liberation Sans" font-size="318px" font-weight="400"><tspan class="TextPosition" x="4288" y="8630"/><tspan class="TextPosition" x="4288" y="8630"><tspan fill="rgb(0,0,0)" stroke="none">Voltage (Supply under test) (Volts)</tspan></tspan></tspan></text>
 <text class="TextShape" transform="translate(851,5113) rotate(-90) translate(-851,-5113)"><tspan class="TextParagraph" font-family="Liberation Sans" font-size="318px" font-weight="400"><tspan class="TextPosition" x="851" y="5113"/><tspan class="TextPosition" x="851" y="5113"><tspan fill="rgb(0,0,0)" stroke="none">Power (Watts)</tspan></tspan></tspan></text>
</svg>