<?xml version="1.0" encoding="UTF-8"?>
<!DOCTYPE svg PUBLIC "-//W3C//DTD SVG 1.1//EN" "http://www.w3.org/Graphics/SVG/1.1/DTD/svg11.dtd">
<svg width="223mm" height="145mm" viewBox="0 0 22300 14500" version="1.1" baseProfile="tiny" xmlns="http://www.w3.org/2000/svg" stroke-width="28.222" stroke-linejoin="round" xml:space="preserve">
 <path fill="rgb(255,255,255)" stroke="none" d="M 11158,14449 L 0,14449 0,0 22316,0 22316,14449 11158,14449 Z"/>
 <path fill="none" stroke="rgb(179,179,179)" stroke-linejoin="round" d="M 10025,12532 L 2078,12532 2078,489 17971,489 17971,12532 10025,12532 Z"/>
 <path fill="none" stroke="rgb(179,179,179)" stroke-linejoin="round" d="M 2078,488 L 2078,12531"/>
 <path fill="none" stroke="rgb(179,179,179)" stroke-linejoin="round" d="M 4064,488 L 4064,12531"/>
 <path fill="none" stroke="rgb(179,179,179)" stroke-linejoin="round" d="M 6051,488 L 6051,12531"/>
 <path fill="none" stroke="rgb(179,179,179)" stroke-linejoin="round" d="M 8038,488 L 8038,12531"/>
 <path fill="none" stroke="rgb(179,179,179)" stroke-linejoin="round" d="M 10025,488 L 10025,12531"/>
 <path fill="none" stroke="rgb(179,179,179)" stroke-linejoin="round" d="M 12010,488 L 12010,12531"/>
 <path fill="none" stroke="rgb(179,179,179)" stroke-linejoin="round" d="M 13997,488 L 13997,12531"/>
 <path fill="none" stroke="rgb(179,179,179)" stroke-linejoin="round" d="M 15984,488 L 15984,12531"/>
 <path fill="none" stroke="rgb(179,179,179)" stroke-linejoin="round" d="M 17971,488 L 17971,12531"/>
 <path fill="none" stroke="rgb(221,221,221)" stroke-linejoin="round" d="M 3071,488 L 3071,12531"/>
 <path fill="none" stroke="rgb(221,221,221)" stroke-linejoin="round" d="M 5058,488 L 5058,12531"/>
 <path fill="none" stroke="rgb(221,221,221)" stroke-linejoin="round" d="M 7044,488 L 7044,12531"/>
 <path fill="none" stroke="rgb(221,221,221)" stroke-linejoin="round" d="M 9031,488 L 9031,12531"/>
 <path fill="none" stroke="rgb(221,221,221)" stroke-linejoin="round" d="M 11018,488 L 11018,12531"/>
 <path fill="none" stroke="rgb(221,221,221)" stroke-linejoin="round" d="M 13004,488 L 13004,12531"/>
 <path fill="none" stroke="rgb(221,221,221)" stroke-linejoin="round" d="M 14990,488 L 14990,12531"/>
 <path fill="none" stroke="rgb(221,221,221)" stroke-linejoin="round" d="M 16977,488 L 16977,12531"/>
 <path fill="none" stroke="rgb(179,179,179)" stroke-linejoin="round" d="M 17971,12531 L 2078,12531"/>
 <path fill="none" stroke="rgb(179,179,179)" stroke-linejoin="round" d="M 17971,10810 L 2078,10810"/>
 <path fill="none" stroke="rgb(179,179,179)" stroke-linejoin="round" d="M 17971,9089 L 2078,9089"/>
 <path fill="none" stroke="rgb(179,179,179)" stroke-linejoin="round" d="M 17971,7369 L 2078,7369"/>
 <path fill="none" stroke="rgb(179,179,179)" stroke-linejoin="round" d="M 17971,5649 L 2078,5649"/>
 <path fill="none" stroke="rgb(179,179,179)" stroke-linejoin="round" d="M 17971,3929 L 2078,3929"/>
 <path fill="none" stroke="rgb(179,179,179)" stroke-linejoin="round" d="M 17971,2208 L 2078,2208"/>
 <path fill="none" stroke="rgb(179,179,179)" stroke-linejoin="round" d="M 17971,488 L 2078,488"/>
 <path fill="none" stroke="rgb(221,221,221)" stroke-linejoin="round" d="M 17971,11670 L 2078,11670"/>
 <path fill="none" stroke="rgb(221,221,221)" stroke-linejoin="round" d="M 17971,9950 L 2078,9950"/>
 <path fill="none" stroke="rgb(221,221,221)" stroke-linejoin="round" d="M 17971,8229 L 2078,8229"/>
 <path fill="none" stroke="rgb(221,221,221)" stroke-linejoin="round" d="M 17971,6510 L 2078,6510"/>
 <path fill="none" stroke="rgb(221,221,221)" stroke-linejoin="round" d="M 17971,4789 L 2078,4789"/>
 <path fill="none" stroke="rgb(221,221,221)" stroke-linejoin="round" d="M 17971,3068 L 2078,3068"/>
 <path fill="none" stroke="rgb(221,221,221)" stroke-linejoin="round" d="M 17971,1348 L 2078,1348"/>
 <path fill="none" stroke="rgb(179,179,179)" stroke-linejoin="round" d="M 2078,12681 L 2078,12531"/>
 <path fill="none" stroke="rgb(179,179,179)" stroke-linejoin="round" d="M 2078,12681 L 2078,12531"/>
 <path fill="none" stroke="rgb(179,179,179)" stroke-linejoin="round" d="M 4064,12681 L 4064,12531"/>
 <path fill="none" stroke="rgb(179,179,179)" stroke-linejoin="round" d="M 4064,12681 L 4064,12531"/>
 <path fill="none" stroke="rgb(179,179,179)" stroke-linejoin="round" d="M 6051,12681 L 6051,12531"/>
 <path fill="none" stroke="rgb(179,179,179)" stroke-linejoin="round" d="M 6051,12681 L 6051,12531"/>
 <path fill="none" stroke="rgb(179,179,179)" stroke-linejoin="round" d="M 8038,12681 L 8038,12531"/>
 <path fill="none" stroke="rgb(179,179,179)" stroke-linejoin="round" d="M 8038,12681 L 8038,12531"/>
 <path fill="none" stroke="rgb(179,179,179)" stroke-linejoin="round" d="M 10025,12681 L 10025,12531"/>
 <path fill="none" stroke="rgb(179,179,179)" stroke-linejoin="round" d="M 10025,12681 L 10025,12531"/>
 <path fill="none" stroke="rgb(179,179,179)" stroke-linejoin="round" d="M 12010,12681 L 12010,12531"/>
 <path fill="none" stroke="rgb(179,179,179)" stroke-linejoin="round" d="M 12010,12681 L 12010,12531"/>
 <path fill="none" stroke="rgb(179,179,179)" stroke-linejoin="round" d="M 13997,12681 L 13997,12531"/>
 <path fill="none" stroke="rgb(179,179,179)" stroke-linejoin="round" d="M 13997,12681 L 13997,12531"/>
 <path fill="none" stroke="rgb(179,179,179)" stroke-linejoin="round" d="M 15984,12681 L 15984,12531"/>
 <path fill="none" stroke="rgb(179,179,179)" stroke-linejoin="round" d="M 15984,12681 L 15984,12531"/>
 <path fill="none" stroke="rgb(179,179,179)" stroke-linejoin="round" d="M 17971,12681 L 17971,12531"/>
 <path fill="none" stroke="rgb(179,179,179)" stroke-linejoin="round" d="M 17971,12681 L 17971,12531"/>
 <path fill="none" stroke="rgb(179,179,179)" stroke-linejoin="round" d="M 2078,12531 L 17971,12531"/>
 <path fill="none" stroke="rgb(179,179,179)" stroke-linejoin="round" d="M 1928,12531 L 2078,12531"/>
 <path fill="none" stroke="rgb(179,179,179)" stroke-linejoin="round" d="M 1928,12531 L 2078,12531"/>
 <path fill="none" stroke="rgb(179,179,179)" stroke-linejoin="round" d="M 1928,10810 L 2078,10810"/>
 <path fill="none" stroke="rgb(179,179,179)" stroke-linejoin="round" d="M 1928,10810 L 2078,10810"/>
 <path fill="none" stroke="rgb(179,179,179)" stroke-linejoin="round" d="M 1928,9089 L 2078,9089"/>
 <path fill="none" stroke="rgb(179,179,179)" stroke-linejoin="round" d="M 1928,9089 L 2078,9089"/>
 <path fill="none" stroke="rgb(179,179,179)" stroke-linejoin="round" d="M 1928,7369 L 2078,7369"/>
 <path fill="none" stroke="rgb(179,179,179)" stroke-linejoin="round" d="M 1928,7369 L 2078,7369"/>
 <path fill="none" stroke="rgb(179,179,179)" stroke-linejoin="round" d="M 1928,5649 L 2078,5649"/>
 <path fill="none" stroke="rgb(179,179,179)" stroke-linejoin="round" d="M 1928,5649 L 2078,5649"/>
 <path fill="none" stroke="rgb(179,179,179)" stroke-linejoin="round" d="M 1928,3929 L 2078,3929"/>
 <path fill="none" stroke="rgb(179,179,179)" stroke-linejoin="round" d="M 1928,3929 L 2078,3929"/>
 <path fill="none" stroke="rgb(179,179,179)" stroke-linejoin="round" d="M 1928,2208 L 2078,2208"/>
 <path fill="none" stroke="rgb(179,179,179)" stroke-linejoin="round" d="M 1928,2208 L 2078,2208"/>
 <path fill="none" stroke="rgb(179,179,179)" stroke-linejoin="round" d="M 1928,488 L 2078,488"/>
 <path fill="none" stroke="rgb(179,179,179)" stroke-linejoin="round" d="M 1928,488 L 2078,488"/>
 <path fill="none" stroke="rgb(179,179,179)" stroke-linejoin="round" d="M 2078,12531 L 2078,488"/>
 <path fill="none" stroke="rgb(131,202,255)" stroke-width="80" stroke-linejoin="round" d="M 2078,12531 L 2475,11987 2872,11457 3270,10941 3667,10438 4064,9950 4462,9475 4859,9014 5256,8566 5654,8133 6051,7713 6448,7307 6846,6916 7243,6537 7640,6172 8038,5821 8435,5484 8832,5161 9230,4851 9627,4555 10025,4273 10422,4004 10819,3750 11216,3509 11613,3282 12010,3068 12408,2869 12805,2683 13202,2511 13600,2353 13997,2208 14394,2077 14792,1960 15189,1857 15586,1768 15984,1692 16381,1630 16778,1582 17176,1547 17573,1527 17971,1520"/>
 <path fill="none" stroke="rgb(126,0,33)" stroke-width="80" stroke-linejoin="round" d="M 2078,12531 L 2475,12124 2872,11732 3270,11354 3667,10989 4064,10638 4462,10301 4859,9977 5256,9667 5654,9372 6051,9089 6448,8821 6846,8566 7243,8325 7640,8098 8038,7885 8435,7685 8832,7500 9230,7327 9627,7170 10025,7026 10422,6895 10819,6778 11216,6675 11613,6585 12010,6510 12408,6448 12805,6399 13202,6365 13600,6344 13997,6337 14394,6344 14792,6365 15189,6399 15586,6448 15984,6510 16381,6585 16778,6675 17176,6778 17573,6895 17971,7026"/>
 <path fill="none" stroke="rgb(87,157,28)" stroke-width="80" stroke-linejoin="round" d="M 2078,12531 L 2475,12228 2872,11939 3270,11663 3667,11402 4064,11154 4462,10920 4859,10700 5256,10493 5654,10301 6051,10122 6448,9957 6846,9805 7243,9667 7640,9544 8038,9433 8435,9337 8832,9255 9230,9186 9627,9131 10025,9089 10422,9062 10819,9048 11216,9048 11613,9062 12010,9089 12408,9131 12805,9186 13202,9255 13600,9337 13997,9433 14394,9544 14792,9667 15189,9805 15586,9957 15984,10122 16381,10301 16778,10493 17176,10700 17573,10920 17971,11154"/>
 <path fill="none" stroke="rgb(255,211,32)" stroke-width="80" stroke-linejoin="round" d="M 2078,12531 L 2475,12365 2872,12214 3270,12076 3667,11952 4064,11842 4462,11746 4859,11663 5256,11595 5654,11539 6051,11498 6448,11471 6846,11457 7243,11457 7640,11471 8038,11498 8435,11539 8832,11595 9230,11663 9627,11746 10025,11842 10422,11952 10819,12076 11216,12214 11613,12365 12010,12531"/>
 <path fill="none" stroke="rgb(255,66,14)" stroke-width="80" stroke-linejoin="round" d="M 2078,12531 L 2475,12424 2872,12331 3270,12252 3667,12186 4064,12135 4462,12097 4859,12073 5256,12063 5654,12066 6051,12083 6448,12114 6846,12159 7243,12217 7640,12290 8038,12376 8435,12475 8628,12531"/>
 <path fill="none" stroke="rgb(0,69,134)" stroke-width="80" stroke-linejoin="round" d="M 2078,12531 L 2475,12524 2872,12503 3270,12469 3667,12420 4064,12358 4462,12283 4859,12193 5256,12090 5654,11973 6051,11842 6448,11698 6846,11539 7243,11367 7640,11182 8038,10982 8435,10769 8832,10542 9230,10301 9627,10046 10025,9778 10422,9495 10819,9199 11216,8890 11613,8566 12010,8229 12408,7878 12805,7513 13202,7136 13600,6743 13997,6337 14394,5918 14792,5484 15189,5037 15586,4576 15984,4101 16381,3612 16778,3110 17176,2593 17573,2064 17971,1520"/>
 <text class="TextShape"><tspan class="TextParagraph" font-family="Liberation Sans, sans-serif" font-size="353px" font-weight="400"><tspan class="TextPosition" x="1985" y="13099"/><tspan class="TextPosition" x="1985" y="13099"><tspan fill="rgb(0,0,0)" stroke="none">0</tspan></tspan></tspan></text>
 <text class="TextShape"><tspan class="TextParagraph" font-family="Liberation Sans, sans-serif" font-size="353px" font-weight="400"><tspan class="TextPosition" x="3971" y="13099"/><tspan class="TextPosition" x="3971" y="13099"><tspan fill="rgb(0,0,0)" stroke="none">1</tspan></tspan></tspan></text>
 <text class="TextShape"><tspan class="TextParagraph" font-family="Liberation Sans, sans-serif" font-size="353px" font-weight="400"><tspan class="TextPosition" x="5958" y="13099"/><tspan class="TextPosition" x="5958" y="13099"><tspan fill="rgb(0,0,0)" stroke="none">2</tspan></tspan></tspan></text>
 <text class="TextShape"><tspan class="TextParagraph" font-family="Liberation Sans, sans-serif" font-size="353px" font-weight="400"><tspan class="TextPosition" x="7945" y="13099"/><tspan class="TextPosition" x="7945" y="13099"><tspan fill="rgb(0,0,0)" stroke="none">3</tspan></tspan></tspan></text>
 <text class="TextShape"><tspan class="TextParagraph" font-family="Liberation Sans, sans-serif" font-size="353px" font-weight="400"><tspan class="TextPosition" x="9932" y="13099"/><tspan class="TextPosition" x="9932" y="13099"><tspan fill="rgb(0,0,0)" stroke="none">4</tspan></tspan></tspan></text>
 <text class="TextShape"><tspan class="TextParagraph" font-family="Liberation Sans, sans-serif" font-size="353px" font-weight="400"><tspan class="TextPosition" x="11918" y="13099"/><tspan class="TextPosition" x="11918" y="13099"><tspan fill="rgb(0,0,0)" stroke="none">5</tspan></tspan></tspan></text>
 <text class="TextShape"><tspan class="TextParagraph" font-family="Liberation Sans, sans-serif" font-size="353px" font-weight="400"><tspan class="TextPosition" x="13905" y="13099"/><tspan class="TextPosition" x="13905" y="13099"><tspan fill="rgb(0,0,0)" stroke="none">6</tspan></tspan></tspan></text>
 <text class="TextShape"><tspan class="TextParagraph" font-family="Liberation Sans, sans-serif" font-size="353px" font-weight="400"><tspan class="TextPosition" x="15892" y="13099"/><tspan class="TextPosition" x="15892" y="13099"><tspan fill="rgb(0,0,0)" stroke="none">7</tspan></tspan></tspan></text>
 <text class="TextShape"><tspan class="TextParagraph" font-family="Liberation Sans, sans-serif" font-size="353px" font-weight="400"><tspan class="TextPosition" x="17879" y="13099"/><tspan class="TextPosition" x="17879" y="13099"><tspan fill="rgb(0,0,0)" stroke="none">8</tspan></tspan></tspan></text>
 <text class="TextShape"><tspan class="TextParagraph" font-family="Liberation Sans, sans-serif" font-size="353px" font-weight="400"><tspan class="TextPosition" x="1643" y="12652"/><tspan class="TextPosition" x="1643" y="12652"><tspan fill="rgb(0,0,0)" stroke="none">0</tspan></tspan></tspan></text>
 <text class="TextShape"><tspan class="TextParagraph" font-family="Liberation Sans, sans-serif" font-size="353px" font-weight="400"><tspan class="TextPosition" x="1458" y="10931"/><tspan class="TextPosition" x="1458" y="10931"><tspan fill="rgb(0,0,0)" stroke="none">10</tspan></tspan></tspan></text>
 <text class="TextShape"><tspan class="TextParagraph" font-family="Liberation Sans, sans-serif" font-size="353px" font-weight="400"><tspan class="TextPosition" x="1458" y="9210"/><tspan class="TextPosition" x="1458" y="9210"><tspan fill="rgb(0,0,0)" stroke="none">20</tspan></tspan></tspan></text>
 <text class="TextShape"><tspan class="TextParagraph" font-family="Liberation Sans, sans-serif" font-size="353px" font-weight="400"><tspan class="TextPosition" x="1458" y="7490"/><tspan class="TextPosition" x="1458" y="7490"><tspan fill="rgb(0,0,0)" stroke="none">30</tspan></tspan></tspan></text>
 <text class="TextShape"><tspan class="TextParagraph" font-family="Liberation Sans, sans-serif" font-size="353px" font-weight="400"><tspan class="TextPosition" x="1458" y="5769"/><tspan class="TextPosition" x="1458" y="5769"><tspan fill="rgb(0,0,0)" stroke="none">40</tspan></tspan></tspan></text>
 <text class="TextShape"><tspan class="TextParagraph" font-family="Liberation Sans, sans-serif" font-size="353px" font-weight="400"><tspan class="TextPosition" x="1458" y="4049"/><tspan class="TextPosition" x="1458" y="4049"><tspan fill="rgb(0,0,0)" stroke="none">50</tspan></tspan></tspan></text>
 <text class="TextShape"><tspan class="TextParagraph" font-family="Liberation Sans, sans-serif" font-size="353px" font-weight="400"><tspan class="TextPosition" x="1458" y="2328"/><tspan class="TextPosition" x="1458" y="2328"><tspan fill="rgb(0,0,0)" stroke="none">60</tspan></tspan></tspan></text>
 <text class="TextShape"><tspan class="TextParagraph" font-family="Liberation Sans, sans-serif" font-size="353px" font-weight="400"><tspan class="TextPosition" x="1458" y="608"/><tspan class="TextPosition" x="1458" y="608"><tspan fill="rgb(0,0,0)" stroke="none">70</tspan></tspan></tspan></text>
 <path fill="none" stroke="rgb(0,69,134)" stroke-width="80" stroke-linejoin="round" d="M 18627,5979 L 19427,5979"/>
 <path fill="none" stroke="rgb(255,66,14)" stroke-width="80" stroke-linejoin="round" d="M 18627,6477 L 19427,6477"/>
 <path fill="none" stroke="rgb(255,211,32)" stroke-width="80" stroke-linejoin="round" d="M 18627,6975 L 19427,6975"/>
 <path fill="none" stroke="rgb(87,157,28)" stroke-width="80" stroke-linejoin="round" d="M 18627,7472 L 19427,7472"/>
 <path fill="none" stroke="rgb(126,0,33)" stroke-width="80" stroke-linejoin="round" d="M 18627,7970 L 19427,7970"/>
 <path fill="none" stroke="rgb(131,202,255)" stroke-width="80" stroke-linejoin="round" d="M 18627,8468 L 19427,8468"/>
 <text class="TextShape"><tspan class="TextParagraph" font-family="Liberation Sans, sans-serif" font-size="353px" font-weight="400"><tspan class="TextPosition" x="19527" y="6099"/><tspan class="TextPosition" x="19527" y="6099"><tspan fill="rgb(0,0,0)" stroke="none">Resistor</tspan></tspan></tspan></text>
 <text class="TextShape"><tspan class="TextParagraph" font-family="Liberation Sans, sans-serif" font-size="353px" font-weight="400"><tspan class="TextPosition" x="19527" y="6597"/><tspan class="TextPosition" x="19527" y="6597"><tspan fill="rgb(0,0,0)" stroke="none">MOSFET (3.3V)</tspan></tspan></tspan></text>
 <text class="TextShape"><tspan class="TextParagraph" font-family="Liberation Sans, sans-serif" font-size="353px" font-weight="400"><tspan class="TextPosition" x="19527" y="7095"/><tspan class="TextPosition" x="19527" y="7095"><tspan fill="rgb(0,0,0)" stroke="none">MOSFET (5V)</tspan></tspan></tspan></text>
 <text class="TextShape"><tspan class="TextParagraph" font-family="Liberation Sans, sans-serif" font-size="353px" font-weight="400"><tspan class="TextPosition" x="19527" y="7592"/><tspan class="TextPosition" x="19527" y="7592"><tspan fill="rgb(0,0,0)" stroke="none">MOSFET (9V)</tspan></tspan></tspan></text>
 <text class="TextShape"><tspan class="TextParagraph" font-family="Liberation Sans, sans-serif" font-size="353px" font-weight="400"><tspan class="TextPosition" x="19527" y="8090"/><tspan class="TextPosition" x="19527" y="8090"><tspan fill="rgb(0,0,0)" stroke="none">MOSFET (12V)</tspan></tspan></tspan></text>
 <text class="TextShape"><tspan class="TextParagraph" font-family="Liberation Sans, sans-serif" font-size="353px" font-weight="400"><tspan class="TextPosition" x="19527" y="8588"/><tspan class="TextPosition" x="19527" y="8588"><tspan fill="rgb(0,0,0)" stroke="none">MOSFET (16V)</tspan></tspan></tspan></text>
 <text class="TextShape"><tspan class="TextParagraph" font-family="Liberation Sans, sans-serif" font-size="318px" font-weight="400"><tspan class="TextPosition" x="8663" y="13855"/><tspan class="TextPosition" x="8663" y="13855"><tspan fill="rgb(0,0,0)" stroke="none">Current (Amps)</tspan></tspan></tspan></text>
 <text class="TextShape" transform="translate(837,8493) rotate(-90) translate(-837,-8493)"><tspan class="TextParagraph" font-family="Liberation Sans, sans-serif" font-size="318px" font-weight="400"><tspan class="TextPosition" x="837" y="8493"/><tspan class="TextPosition" x="837" y="8493"><tspan fill="rgb(0,0,0)" stroke="none">Power Disspated (Watts)</tspan></tspan></tspan></text>
</svg>