<?xml version="1.0" encoding="UTF-8" standalone="no"?>
<!-- Created with Inkscape (http://www.inkscape.org/) -->

<svg
   xmlns:dc="http://purl.org/dc/elements/1.1/"
   xmlns:cc="http://creativecommons.org/ns#"
   xmlns:rdf="http://www.w3.org/1999/02/22-rdf-syntax-ns#"
   xmlns:svg="http://www.w3.org/2000/svg"
   xmlns="http://www.w3.org/2000/svg"
   xmlns:sodipodi="http://sodipodi.sourceforge.net/DTD/sodipodi-0.dtd"
   xmlns:inkscape="http://www.inkscape.org/namespaces/inkscape"
   id="svg2"
   version="1.1"
   inkscape:version="0.91 r"
   xml:space="preserve"
   width="146.75526"
   height="66.800011"
   viewBox="0 0 146.75526 66.800009"
   sodipodi:docname="lab5_fft.svg"><metadata
     id="metadata8"><rdf:RDF><cc:Work
         rdf:about=""><dc:format>image/svg+xml</dc:format><dc:type
           rdf:resource="http://purl.org/dc/dcmitype/StillImage" /><dc:title></dc:title></cc:Work></rdf:RDF></metadata><defs
     id="defs6" /><sodipodi:namedview
     pagecolor="#ffffff"
     bordercolor="#666666"
     borderopacity="1"
     objecttolerance="10"
     gridtolerance="10"
     guidetolerance="10"
     inkscape:pageopacity="0"
     inkscape:pageshadow="2"
     inkscape:window-width="1366"
     inkscape:window-height="716"
     id="namedview4"
     showgrid="false"
     fit-margin-top="0"
     fit-margin-left="0"
     fit-margin-right="0"
     fit-margin-bottom="0"
     inkscape:zoom="3.1433079"
     inkscape:cx="121.30403"
     inkscape:cy="31.337806"
     inkscape:window-x="0"
     inkscape:window-y="0"
     inkscape:window-maximized="1"
     inkscape:current-layer="g28" /><g
     id="g10"
     inkscape:groupmode="layer"
     inkscape:label="lab5_fft"
     transform="matrix(1.25,0,0,-1.25,-12.013516,78.716795)"><g
       id="g12"
       transform="translate(10.162,4.312)"><g
         id="g14"><g
           id="g16" /><g
           id="g18" /><g
           id="g20" /><g
           id="g22" /><g
           id="g24" /><g
           id="g26" /><g
           id="g28"><g
             id="g30" /><g
             id="g32" /><g
             id="g34"
             transform="translate(0,24.74)"><g
               id="g36" /><g
               id="g38"
               transform="translate(0,-24.74)" /></g><g
             id="g40" /><g
             id="g42" /><g
             id="g44"><g
               id="g46"><g
                 id="g56"
                 transform="translate(-8.2783902,0)"><path
                   d="M 19.11253,41.8384 95.0373,20.0494"
                   style="fill:none;stroke:#e6e6e6;stroke-width:0.3985;stroke-linecap:butt;stroke-linejoin:miter;stroke-miterlimit:10;stroke-dasharray:none;stroke-opacity:1"
                   id="path58"
                   inkscape:connector-curvature="0" /></g><g
                 id="g60"
                 transform="translate(-8.2783902,0)"><path
                   d="m 19.11253,41.8384 c 0,0 0.54856,0.76737 0.75925,1.02242 0.21068,0.25507 0.54855,0.64206 0.75925,0.81591 0.21067,0.17383 0.54855,0.38348 0.75924,0.43705 0.21068,0.05356 0.54856,0.03478 0.75925,-0.05088 0.21068,-0.08567 0.54855,-0.34586 0.75925,-0.56658 0.21068,-0.22072 0.54857,-0.69519 0.75924,-1.02426 0.21069,-0.32909 0.54857,-0.95488 0.75925,-1.34755 0.21068,-0.39268 0.54857,-1.08171 0.75925,-1.48268 0.21068,-0.40097 0.54857,-1.05472 0.75925,-1.40724 0.21067,-0.35251 0.54856,-0.87807 0.75924,-1.13349 0.2107,-0.25541 0.54857,-0.58165 0.75925,-0.70748 0.21069,-0.12584 0.54857,-0.21419 0.75925,-0.19957 0.21069,0.01463 0.54856,0.16243 0.75924,0.305 0.2107,0.1426 0.54857,0.48592 0.75925,0.72265 0.21069,0.23672 0.54857,0.70219 0.75925,0.98355 0.21069,0.28134 0.54856,0.77517 0.75924,1.04419 0.2107,0.26901 0.54857,0.69291 0.75925,0.89477 0.21069,0.20184 0.54857,0.4691 0.75926,0.56006 0.21068,0.09094 0.54856,0.14067 0.75925,0.09553 0.21068,-0.04513 0.54855,-0.23712 0.75925,-0.42092 0.21067,-0.18381 0.54855,-0.60195 0.75924,-0.90388 0.21068,-0.30192 0.54856,-0.89248 0.75925,-1.27229 0.21068,-0.37981 0.54855,-1.06062 0.75925,-1.46513 0.21067,-0.40451 0.54855,-1.0784 0.75924,-1.4503 0.21068,-0.37191 0.54856,-0.94272 0.75925,-1.23014 0.21068,-0.2874 0.54857,-0.67624 0.75925,-0.84134 0.21067,-0.16511 0.54857,-0.3233 0.75924,-0.34867 0.21068,-0.02538 0.54857,0.05728 0.75925,0.16575 0.21068,0.10849 0.54857,0.40195 0.75924,0.61618 0.2107,0.21425 0.54858,0.6538 0.75925,0.92801 0.2107,0.27422 0.54857,0.76999 0.75925,1.0484 0.2107,0.27843 0.54857,0.73209 0.75925,0.95832 0.21069,0.22621 0.54857,0.54599 0.75925,0.67224 0.21069,0.12625 0.54856,0.24257 0.75924,0.23774 0.21069,-0.0048 0.54857,-0.12737 0.75925,-0.27257 0.21069,-0.1452 0.54857,-0.50247 0.75924,-0.77389 0.2107,-0.27141 0.54857,-0.81985 0.75927,-1.18237 0.21067,-0.36254 0.54855,-1.02714 0.75924,-1.43044 0.21068,-0.40329 0.54856,-1.08928 0.75925,-1.47622 0.21068,-0.38697 0.54855,-0.99648 0.75925,-1.31273 0.21068,-0.31624 0.54855,-0.76366 0.75924,-0.96659 0.21068,-0.20292 0.54856,-0.43014 0.75925,-0.49601 0.21068,-0.06588 0.54855,-0.05085 0.75925,0.02124 0.21068,0.07208 0.54855,0.31039 0.75924,0.49835 0.21068,0.18796 0.54858,0.5939 0.75925,0.85634 0.21068,0.26245 0.54857,0.75212 0.75925,1.03528 0.21068,0.28314 0.54857,0.75891 0.75924,1.0055 0.21068,0.24662 0.54857,0.613 0.75925,0.77193 0.21068,0.15895 0.54857,0.33888 0.75925,0.3736 0.21069,0.0347 0.54857,-0.01807 0.75924,-0.12345 0.2107,-0.10537 0.54857,-0.39808 0.75925,-0.63607 0.2107,-0.238 0.54857,-0.73821 0.75925,-1.07924 0.2107,-0.34102 0.54857,-0.98137 0.75925,-1.37868 0.21069,-0.39731 0.54856,-1.08742 0.75925,-1.48491 0.21069,-0.39751 0.54856,-1.03848 0.75924,-1.38002 0.21069,-0.34155 0.54857,-0.8429 0.75925,-1.08166 0.21069,-0.23876 0.54857,-0.53301 0.75926,-0.63929 0.21068,-0.10627 0.54855,-0.16061 0.75925,-0.12678 0.21067,0.03383 0.54855,0.21241 0.75924,0.37065 0.21068,0.15825 0.54856,0.52365 0.75925,0.76986 0.21068,0.2462 0.54855,0.72161 0.75925,1.00472 0.21067,0.2831 0.54855,0.77298 0.75924,1.03574 0.21068,0.26275 0.54856,0.66944 0.75925,0.85803 0.21067,0.18858 0.54855,0.42822 0.75925,0.50114 0.21067,0.07293 0.54856,0.08945 0.75924,0.02449 0.21068,-0.06495 0.54857,-0.29062 0.75925,-0.4927 0.21068,-0.2021 0.54857,-0.6483 0.75925,-0.96395 0.21068,-0.31564 0.54857,-0.92433 0.75924,-1.311 0.2107,-0.38667 0.54857,-1.07256 0.75925,-1.47592 0.21069,-0.40335 0.54857,-1.06832 0.75925,-1.43126 0.21069,-0.36295 0.54857,-0.91251 0.75924,-1.18465 0.2107,-0.27214 0.54857,-0.63075 0.75925,-0.77682 0.21069,-0.14606 0.54857,-0.27019 0.75925,-0.27591 0.21069,-0.0057 0.54857,0.10921 0.75924,0.23468 0.2107,0.12549 0.54857,0.44407 0.75925,0.66977 0.21069,0.22571 0.54857,0.67871 0.75926,0.95698 0.21068,0.27828 0.54855,0.77422 0.75925,1.04866 0.21068,0.27445 0.54855,0.71456 0.75925,0.92935 0.21068,0.21479 0.54855,0.50947 0.75925,0.61875 0.21067,0.10928 0.54855,0.19345 0.75924,0.16896 0.21068,-0.02449 0.54856,-0.18124 0.75925,-0.34549 0.21068,-0.16423 0.54855,-0.55165 0.75924,-0.83835 0.21068,-0.28671 0.54856,-0.85662 0.75925,-1.22815 0.21068,-0.37152 0.54857,-1.04512 0.75925,-1.44958 0.21067,-0.40445 0.54857,-1.08549 0.75924,-1.46561 0.21068,-0.38011 0.54857,-0.97156 0.75925,-1.27414 0.21068,-0.30257 0.54857,-0.72201 0.75925,-0.90666 0.21068,-0.18466 0.54857,-0.37822 0.75925,-0.42427 0.21069,-0.04604 0.54856,0.0022 0.75924,0.09233 0.2107,0.09015 0.54857,0.3562 0.75925,0.55745 0.21069,0.20126 0.54857,0.62441 0.75925,0.89317 0.21069,0.26875 0.54856,0.76247 0.75924,1.0439 0.2107,0.28144 0.54857,0.74739 0.75925,0.98456 0.21069,0.23717 0.54857,0.58156 0.75925,0.72487 0.21069,0.14331 0.54856,0.29254 0.75924,0.30803 0.2107,0.01548 0.54857,-0.07137 0.75926,-0.19632 0.21068,-0.12497 0.54856,-0.44968 0.75925,-0.70435 0.21068,-0.25465 0.54855,-0.77908 0.75925,-1.13112 0.21068,-0.35202 0.54855,-1.00531 0.75925,-1.40614 0.21067,-0.40083 0.75925,-1.4828 0.75925,-1.4828"
                   style="fill:none;stroke:#b3b3ff;stroke-width:0.95999998;stroke-linecap:butt;stroke-linejoin:miter;stroke-miterlimit:10;stroke-dasharray:none;stroke-opacity:1"
                   id="path62"
                   inkscape:connector-curvature="0" /></g><g
                 id="g48"
                 transform="translate(-8.2783902,0)"><path
                   d="M 7.8342565,36.326964 82.2956,14.8561"
                   style="fill:none;stroke:#e6e6e6;stroke-width:0.3985;stroke-linecap:butt;stroke-linejoin:miter;stroke-miterlimit:10;stroke-dasharray:none;stroke-opacity:1"
                   id="path50"
                   inkscape:connector-curvature="0"
                   sodipodi:nodetypes="cc" /></g><g
                 id="g64"
                 transform="translate(-8.2783902,0)"><path
                   d="M 31.85422,47.0317 107.77898,25.24269"
                   style="fill:none;stroke:#e6e6e6;stroke-width:0.3985;stroke-linecap:butt;stroke-linejoin:miter;stroke-miterlimit:10;stroke-dasharray:none;stroke-opacity:1"
                   id="path66"
                   inkscape:connector-curvature="0" /></g><g
                 id="g68"
                 transform="translate(-8.2783902,0)"><path
                   d="m 31.85422,47.0317 c 0,0 0.54857,0.7678 0.75924,0.96058 0.21068,0.19276 0.54857,0.42413 0.75925,0.42886 0.21069,0.0047 0.54857,-0.18197 0.75925,-0.3947 0.21069,-0.21272 0.54857,-0.777 0.75924,-1.1385 0.2107,-0.36148 0.54857,-1.09244 0.75925,-1.46687 0.2107,-0.37442 0.54857,-0.98604 0.75925,-1.23174 0.21069,-0.2457 0.54857,-0.50568 0.75925,-0.53906 0.21069,-0.03339 0.54856,0.13168 0.75924,0.29838 0.2107,0.16671 0.54857,0.63885 0.75925,0.90315 0.21069,0.2643 0.54857,0.78646 0.75926,1.00179 0.21068,0.21535 0.54855,0.50836 0.75925,0.55031 0.21068,0.04193 0.54855,-0.07025 0.75925,-0.24792 0.21067,-0.17766 0.54855,-0.68821 0.75924,-1.0326 0.21068,-0.34438 0.54856,-1.06653 0.75925,-1.44952 0.21068,-0.383 0.54855,-1.03479 0.75925,-1.3109 0.21067,-0.27609 0.54855,-0.60718 0.75924,-0.67905 0.21068,-0.07188 0.54856,0.0235 0.75925,0.16099 0.21067,0.13749 0.54857,0.57249 0.75925,0.83001 0.21067,0.25752 0.54856,0.79199 0.75924,1.02608 0.21068,0.23407 0.54857,0.58331 0.75925,0.66106 0.21068,0.07774 0.54857,0.04028 0.75925,-0.10068 0.21069,-0.14095 0.54856,-0.59197 0.75924,-0.9153 0.2107,-0.32335 0.54857,-1.02807 0.75925,-1.41517 0.21069,-0.3871 0.54857,-1.0714 0.75925,-1.3749 0.21069,-0.3035 0.54857,-0.70227 0.75924,-0.81248 0.2107,-0.11022 0.54857,-0.08738 0.75925,0.01812 0.21069,0.10552 0.54857,0.49599 0.75925,0.74234 0.21069,0.24634 0.54857,0.78447 0.75924,1.03322 0.2107,0.24873 0.54857,0.64797 0.75926,0.75958 0.21068,0.11161 0.54856,0.14804 0.75925,0.04492 0.21068,-0.10313 0.54855,-0.48966 0.75925,-0.78831 0.21068,-0.29866 0.54855,-0.97752 0.75925,-1.36421 0.21067,-0.38671 0.54855,-1.09529 0.75925,-1.42282 0.21067,-0.32753 0.54855,-0.78995 0.75924,-0.93781 0.21068,-0.14785 0.54856,-0.19912 0.75925,-0.1279 0.21068,0.07125 0.54855,0.41045 0.75924,0.64136 0.21068,0.23093 0.54857,0.76384 0.75925,1.02296 0.21068,0.25911 0.54857,0.70148 0.75925,0.84459 0.21067,0.14312 0.54857,0.25165 0.75924,0.18692 0.21068,-0.06472 0.54857,-0.38282 0.75925,-0.6535 0.21068,-0.27068 0.54857,-0.91562 0.75925,-1.29735 0.21069,-0.38174 0.54857,-1.10617 0.75924,-1.45402 0.2107,-0.34786 0.54857,-0.86881 0.75925,-1.05311 0.21069,-0.18429 0.54857,-0.31039 0.75925,-0.27525 0.21069,0.03516 0.54857,0.31715 0.75925,0.5286 0.21069,0.21144 0.54856,0.73038 0.75924,0.99542 0.2107,0.26505 0.54857,0.74313 0.75925,0.91492 0.21069,0.17178 0.54857,0.34953 0.75925,0.32327 0.21069,-0.02627 0.54856,-0.27293 0.75926,-0.51269 0.21068,-0.23977 0.54855,-0.84311 0.75924,-1.21546 0.21068,-0.37234 0.54856,-1.10394 0.75925,-1.46815 0.21068,-0.3642 0.54855,-0.93787 0.75925,-1.15688 0.21068,-0.21902 0.54855,-0.41943 0.75925,-0.42169 0.21067,-0.0022 0.54855,0.21716 0.75924,0.40538 0.21068,0.18822 0.54856,0.68471 0.75925,0.95119 0.21068,0.26648 0.54855,0.77221 0.75925,0.96944 0.21067,0.19723 0.54856,0.44038 0.75924,0.45208 0.21068,0.0117 0.54857,-0.16127 0.75925,-0.36764 0.21068,-0.2064 0.54857,-0.7612 0.75925,-1.11983 0.21067,-0.35863 0.54857,-1.08863 0.75924,-1.46497 0.2107,-0.37634 0.54857,-0.99598 0.75925,-1.24751 0.21069,-0.25151 0.54857,-0.52486 0.75925,-0.56535 0.21069,-0.0405 0.54857,0.11193 0.75924,0.27345 0.21069,0.1615 0.54857,0.62729 0.75925,0.89067 0.21069,0.26337 0.54857,0.78851 0.75924,1.00761 0.2107,0.2191 0.54858,0.52297 0.75925,0.57166 0.2107,0.04869 0.54857,-0.04968 0.75925,-0.22064 0.2107,-0.17096 0.54857,-0.67079 0.75926,-1.01155 0.21068,-0.34078 0.54856,-1.0604 0.75925,-1.44451 0.21068,-0.38411 0.54855,-1.04252 0.75925,-1.32393 0.21067,-0.2814 0.54855,-0.62526 0.75924,-0.70427 0.21068,-0.07899 0.54856,0.003 0.75925,0.13477 0.21068,0.13176 0.54855,0.55906 0.75925,0.81486 0.21067,0.25579 0.54855,0.79163 0.75924,1.02874 0.21068,0.2371 0.54856,0.59608 0.75925,0.68025 0.21068,0.08417 0.54857,0.06053 0.75925,-0.07349 0.21068,-0.13402 0.54856,-0.57345 0.75924,-0.89247 0.21068,-0.31903 0.54857,-1.01956 0.75925,-1.40693 0.21068,-0.38738 0.54857,-1.07683 0.75925,-1.38506 0.21068,-0.30821 0.54857,-0.71918 0.75924,-0.83644 0.2107,-0.11725 0.54858,-0.10799 0.75925,-0.0087 0.21069,0.09934 0.54857,0.48084 0.75925,0.72463 0.21069,0.24379 0.54857,0.78155 0.75925,1.03256 0.21069,0.25101 0.54856,0.65884 0.75924,0.77648 0.21069,0.11765 0.54857,0.1676 0.75925,0.07153 0.21069,-0.09606 0.54857,-0.47022 0.75924,-0.76393 0.2107,-0.29372 0.54857,-0.9669 0.75925,-1.353 0.2107,-0.38613 0.54857,-1.09832 0.75926,-1.42989 0.21069,-0.33157 0.54856,-0.80521 0.75925,-0.95991 0.21068,-0.15471 0.54855,-0.21982 0.75925,-0.15516 0.21068,0.06467 0.54855,0.39374 0.75925,0.62134 0.21067,0.2276 0.54855,0.75855 0.75924,1.01909 0.21068,0.26056 0.54856,0.71018 0.75925,0.85883 0.21068,0.14865 0.54855,0.2702 0.75925,0.2126 0.21067,-0.0576 0.54855,-0.36264 0.75924,-0.6278 0.21068,-0.26515 0.54857,-0.9029 0.75925,-1.28324 0.21068,-0.38034 0.54857,-1.10683 0.75925,-1.45803 0.21067,-0.35119 0.54856,-0.88231 0.75924,-1.07316 0.21068,-0.19086 0.54857,-0.33075 0.75925,-0.30246 0.21068,0.02829 0.75925,0.50638 0.75925,0.50638"
                   style="fill:none;stroke:#b3b3ff;stroke-width:0.95999998;stroke-linecap:butt;stroke-linejoin:miter;stroke-miterlimit:10;stroke-dasharray:none;stroke-opacity:1"
                   id="path70"
                   inkscape:connector-curvature="0" /></g><g
                 id="g72"
                 transform="translate(-8.2783902,0)"><path
                   d="m 44.5959,52.22499 75.92478,-21.789"
                   style="fill:none;stroke:#e6e6e6;stroke-width:0.3985;stroke-linecap:butt;stroke-linejoin:miter;stroke-miterlimit:10;stroke-dasharray:none;stroke-opacity:1"
                   id="path74"
                   inkscape:connector-curvature="0" /></g><g
                 id="g76"
                 transform="translate(-8.2783902,0)"><path
                   d="m 44.5959,52.22499 c 0,0 0.54857,0.75821 0.75925,0.87132 0.21069,0.1131 0.54857,0.10726 0.75926,-0.05607 0.21068,-0.16334 0.54855,-0.769 0.75925,-1.1212 0.21068,-0.35221 0.54855,-1.12459 0.75924,-1.41725 0.21068,-0.29267 0.54856,-0.65668 0.75925,-0.69209 0.21068,-0.03544 0.54855,0.23624 0.75925,0.43673 0.21068,0.20047 0.54855,0.79397 0.75924,1.00821 0.21068,0.21422 0.54856,0.54175 0.75925,0.53584 0.21068,-0.0059 0.54855,-0.30589 0.75925,-0.57837 0.21068,-0.27247 0.54856,-1.02701 0.75925,-1.38557 0.21067,-0.35855 0.54856,-1.00784 0.75924,-1.19866 0.21068,-0.19081 0.54857,-0.26455 0.75925,-0.17666 0.21068,0.0879 0.54857,0.56996 0.75925,0.81025 0.21067,0.2403 0.54857,0.7851 0.75924,0.92173 0.2107,0.13662 0.54857,0.19786 0.75925,0.063 0.21069,-0.13486 0.54857,-0.692 0.75925,-1.035 0.21069,-0.343 0.54856,-1.12659 0.75924,-1.43718 0.21069,-0.3106 0.54857,-0.73616 0.75925,-0.80136 0.21069,-0.0652 0.54857,0.14712 0.75924,0.33133 0.2107,0.1842 0.54858,0.77105 0.75925,0.99636 0.2107,0.22532 0.54857,0.60445 0.75927,0.62754 0.21068,0.0231 0.54855,-0.2108 0.75924,-0.46106 0.21068,-0.25025 0.54856,-0.98061 0.75925,-1.34264 0.21068,-0.36201 0.54855,-1.04956 0.75925,-1.26659 0.21067,-0.217 0.54855,-0.3589 0.75924,-0.29763 0.21068,0.06126 0.54856,0.50329 0.75925,0.73919 0.21068,0.23592 0.54855,0.80291 0.75925,0.96112 0.21067,0.15822 0.54855,0.28493 0.75924,0.17928 0.21068,-0.10565 0.54857,-0.60971 0.75925,-0.94076 0.21068,-0.33106 0.54857,-1.11922 0.75925,-1.4453 0.21067,-0.32607 0.54856,-0.80991 0.75924,-0.90485 0.21068,-0.09494 0.54857,0.05501 0.75925,0.22054 0.21068,0.16552 0.54857,0.73899 0.75925,0.97261 0.21069,0.23361 0.54857,0.6598 0.75924,0.7111 0.2107,0.05129 0.54858,-0.11525 0.75925,-0.34143 0.21069,-0.22617 0.54857,-0.92619 0.75925,-1.28874 0.21069,-0.36255 0.54857,-1.0826 0.75924,-1.32431 0.2107,-0.24172 0.54857,-0.45131 0.75925,-0.41788 0.21069,0.03342 0.54857,0.43024 0.75925,0.65888 0.21069,0.22863 0.54857,0.81137 0.75924,0.98908 0.2107,0.17771 0.54857,0.36776 0.75927,0.29174 0.21068,-0.076 0.54855,-0.52309 0.75924,-0.83959 0.21068,-0.31648 0.54856,-1.10255 0.75925,-1.44154 0.21068,-0.33899 0.54855,-0.87735 0.75924,-1.00169 0.21069,-0.12433 0.54856,-0.03916 0.75925,0.10554 0.21068,0.14469 0.54856,0.69829 0.75925,0.93734 0.21068,0.23905 0.54855,0.70722 0.75925,0.78561 0.21068,0.07837 0.54855,-0.02011 0.75925,-0.2206 0.21067,-0.20048 0.54856,-0.86426 0.75924,-1.22438 0.21068,-0.36013 0.54857,-1.10667 0.75925,-1.37133 0.21068,-0.26465 0.54857,-0.54082 0.75925,-0.53614 0.21067,0.0047 0.54856,0.35141 0.75924,0.56996 0.21068,0.21857 0.54857,0.81046 0.75925,1.00531 0.21069,0.19486 0.54857,0.44541 0.75925,0.39919 0.21069,-0.04622 0.54856,-0.43291 0.75924,-0.73233 0.2107,-0.29944 0.54857,-1.07668 0.75925,-1.42586 0.21069,-0.3492 0.54857,-0.93779 0.75925,-1.09088 0.21069,-0.15311 0.54857,-0.13448 0.75924,-0.01264 0.2107,0.12185 0.54857,0.64922 0.75925,0.89081 0.21069,0.2416 0.54857,0.74626 0.75926,0.85042 0.21068,0.10414 0.54856,0.07375 0.75925,-0.09968 0.21068,-0.17345 0.54855,-0.79554 0.75925,-1.15038 0.21067,-0.35484 0.54855,-1.12152 0.75924,-1.40712 0.21068,-0.2856 0.54856,-0.62666 0.75925,-0.65134 0.21068,-0.02467 0.54855,0.26772 0.75924,0.4735 0.21068,0.20576 0.54856,0.80009 0.75925,1.00964 0.21068,0.20954 0.54855,0.51721 0.75925,0.50064 0.21068,-0.01657 0.54857,-0.34004 0.75925,-0.62008 0.21067,-0.28006 0.54857,-1.04177 0.75925,-1.39835 0.21067,-0.35657 0.54856,-0.99067 0.75924,-1.17166 0.21068,-0.18097 0.54857,-0.23 0.75925,-0.13278 0.21068,0.09721 0.54857,0.59237 0.75924,0.83354 0.2107,0.24116 0.54857,0.77638 0.75925,0.90469 0.21069,0.12831 0.54857,0.16534 0.75925,0.02005 0.21069,-0.14528 0.54857,-0.72053 0.75924,-1.06718 0.2107,-0.34667 0.54857,-1.12697 0.75925,-1.43133 0.21069,-0.30436 0.54857,-0.70795 0.75925,-0.76234 0.21069,-0.05439 0.54857,0.17987 0.75924,0.37026 0.2107,0.19038 0.54857,0.78038 0.75925,1.002 0.2107,0.2216 0.54857,0.58259 0.75926,0.59526 0.21068,0.01266 0.54856,-0.24546 0.75925,-0.504 0.21068,-0.25853 0.54855,-0.99837 0.75925,-1.35947 0.21068,-0.36108 0.54855,-1.03543 0.75924,-1.24311 0.21068,-0.20769 0.54856,-0.32486 0.75925,-0.25379 0.21068,0.07106 0.54855,0.52826 0.75925,0.76609 0.21068,0.23783 0.54855,0.79752 0.75924,0.94814 0.21068,0.15062 0.54856,0.25379 0.75925,0.13747 0.21068,-0.1163 0.54857,-0.64011 0.75925,-0.97581 0.21068,-0.3357 0.54857,-1.12297 0.75925,-1.44371 0.21067,-0.32074 0.54856,-0.78385 0.75924,-0.86802 0.21068,-0.08418 0.54857,0.0887 0.75925,0.26128 0.21068,0.17256 0.54857,0.75159 0.75925,0.98251 0.21069,0.23092 0.54856,0.64064 0.75924,0.68183 0.2107,0.04118 0.54857,-0.14989 0.75925,-0.38499 0.21069,-0.2351 0.54857,-0.9468 0.75925,-1.3095 0.21069,-0.3627 0.54857,-1.0717 0.75924,-1.30466 0.2107,-0.23294 0.54857,-0.41806 0.75925,-0.37442 0.21069,0.04364 0.54857,0.45743 0.75925,0.68904 0.21069,0.23163 0.54857,0.80941 0.75926,0.9803 0.21067,0.1709 0.75925,0.25147 0.75925,0.25147"
                   style="fill:none;stroke:#b3b3ff;stroke-width:0.95999998;stroke-linecap:butt;stroke-linejoin:miter;stroke-miterlimit:10;stroke-dasharray:none;stroke-opacity:1"
                   id="path78"
                   inkscape:connector-curvature="0" /></g><g
                 id="g80"
                 transform="translate(-8.2783902,0)"><path
                   d="M 57.3376,57.41829 124.10169,38.330638"
                   style="fill:none;stroke:#e6e6e6;stroke-width:0.3985;stroke-linecap:butt;stroke-linejoin:miter;stroke-miterlimit:10;stroke-dasharray:none;stroke-opacity:1"
                   id="path82"
                   inkscape:connector-curvature="0"
                   sodipodi:nodetypes="cc" /></g><g
                 id="g84"
                 transform="translate(-8.2783902,0)"><path
                   d="m 57.3376,57.41829 c 0,0 0.54855,0.72916 0.75925,0.75845 0.21068,0.0293 0.54857,-0.27533 0.75925,-0.54724 0.21067,-0.2719 0.54856,-1.12213 0.75924,-1.41247 0.21068,-0.29035 0.54857,-0.67882 0.75925,-0.68018 0.21068,-0.0014 0.54857,0.46182 0.75924,0.67041 0.21068,0.20859 0.54857,0.77428 0.75925,0.83299 0.2107,0.0587 0.54857,-0.15922 0.75925,-0.40975 0.21069,-0.25054 0.54857,-1.09031 0.75925,-1.39591 0.21069,-0.3056 0.54856,-0.77388 0.75924,-0.80672 0.2107,-0.03282 0.54857,0.36702 0.75925,0.56999 0.21069,0.20298 0.54857,0.80649 0.75925,0.89298 0.21069,0.08649 0.54856,-0.04306 0.75924,-0.26958 0.2107,-0.2265 0.54857,-1.04555 0.75926,-1.363 0.21068,-0.31746 0.54856,-0.86039 0.75925,-0.9251 0.21068,-0.06473 0.54856,0.26491 0.75925,0.45862 0.21068,0.19372 0.54855,0.82535 0.75925,0.93759 0.21067,0.11223 0.54855,0.07153 0.75924,-0.12866 0.21068,-0.2002 0.54856,-0.98851 0.75925,-1.31427 0.21068,-0.32576 0.54855,-0.93712 0.75924,-1.03365 0.21068,-0.09651 0.54856,0.15698 0.75925,0.33791 0.21068,0.18094 0.54857,0.83058 0.75925,0.96615 0.21068,0.13558 0.54857,0.18294 0.75925,0.01099 0.21067,-0.17195 0.54856,-0.91991 0.75925,-1.25029 0.21067,-0.33038 0.54856,-1.00307 0.75924,-1.1309 0.21068,-0.12783 0.54857,0.04469 0.75925,0.2095 0.21069,0.16481 0.54857,0.82214 0.75924,0.97832 0.2107,0.15618 0.54857,0.28956 0.75925,0.14741 0.21069,-0.14215 0.54857,-0.84078 0.75925,-1.17203 0.21069,-0.33125 0.54857,-1.05725 0.75924,-1.21545 0.2107,-0.1582 0.54857,-0.07039 0.75925,0.07516 0.21069,0.14554 0.54857,0.80008 0.75925,0.97388 0.21069,0.17381 0.54857,0.39009 0.75924,0.27886 0.2107,-0.11124 0.54857,-0.75217 0.75927,-1.08056 0.21067,-0.32836 0.54855,-1.09899 0.75924,-1.28624 0.21068,-0.18722 0.54856,-0.18667 0.75925,-0.06324 0.21068,0.12343 0.54855,0.76474 0.75925,0.95292 0.21068,0.18818 0.54855,0.48299 0.75924,0.40342 0.21068,-0.0796 0.54856,-0.65531 0.75925,-0.97709 0.21068,-0.32177 0.54855,-1.12768 0.75925,-1.34217 0.21068,-0.21451 0.54855,-0.30262 0.75924,-0.20384 0.21068,0.09875 0.54857,0.71665 0.75925,0.91575 0.21068,0.19911 0.54857,0.567 0.75925,0.5193 0.21068,-0.04768 0.54857,-0.55151 0.75924,-0.86307 0.21068,-0.31156 0.54857,-1.14291 0.75925,-1.38253 0.21068,-0.23963 0.54857,-0.41648 0.75925,-0.34456 0.21069,0.0719 0.54856,0.65641 0.75925,0.86284 0.21069,0.20643 0.54856,0.64096 0.75924,0.62498 0.2107,-0.01597 0.54857,-0.44226 0.75925,-0.74014 0.21069,-0.29787 0.54857,-1.14452 0.75925,-1.40679 0.21069,-0.26226 0.54857,-0.52671 0.75924,-0.48352 0.2107,0.04322 0.54857,0.58494 0.75925,0.79499 0.21069,0.21003 0.54857,0.70387 0.75926,0.71899 0.21068,0.01511 0.54855,-0.3291 0.75925,-0.60998 0.21067,-0.28089 0.54855,-1.13242 0.75925,-1.41454 0.21067,-0.2821 0.54855,-0.63188 0.75924,-0.6188 0.21068,0.01307 0.54856,0.50312 0.75925,0.71304 0.21068,0.20993 0.54855,0.75482 0.75925,0.79999 0.21068,0.04518 0.54855,-0.2135 0.75924,-0.47434 0.21068,-0.26085 0.54856,-1.10678 0.75925,-1.40568 0.21068,-0.29891 0.54857,-0.73053 0.75925,-0.74862 0.21067,-0.01806 0.54856,0.41222 0.75924,0.61828 0.21068,0.20604 0.54857,0.79311 0.75925,0.86686 0.21068,0.07376 0.54857,-0.09713 0.75925,-0.33514 0.21067,-0.23802 0.54857,-1.06801 0.75924,-1.38037 0.2107,-0.31238 0.54857,-0.82115 0.75925,-0.87099 0.21069,-0.04983 0.54857,0.31334 0.75925,0.51183 0.21069,0.19847 0.54856,0.81822 0.75924,0.91873 0.2107,0.10049 0.54857,0.01837 0.75925,-0.19437 0.21069,-0.21274 0.54857,-1.0166 0.75925,-1.33894 0.21069,-0.32234 0.54857,-0.90259 0.75924,-0.9843 0.2107,-0.08171 0.54858,0.20796 0.75925,0.39528 0.21069,0.18733 0.54857,0.82985 0.75926,0.95485 0.21068,0.12498 0.54856,0.13142 0.75925,-0.05391 0.21068,-0.18535 0.54855,-0.95328 0.75925,-1.28195 0.21067,-0.32869 0.54855,-0.97373 0.75924,-1.08704 0.21068,-0.11331 0.54856,0.09753 0.75925,0.27027 0.21068,0.17271 0.54855,0.82778 0.75925,0.97471 0.21068,0.14693 0.54855,0.24048 0.75924,0.08426 0.21068,-0.15621 0.54856,-0.87891 0.75925,-1.21022 0.21068,-0.33132 0.54857,-1.03354 0.75925,-1.17774 0.21068,-0.14418 0.54857,-0.01641 0.75924,0.13849 0.21068,0.15491 0.54857,0.81203 0.75925,0.97802 0.21068,0.16597 0.54857,0.34408 0.75925,0.2183 0.21068,-0.12576 0.54857,-0.79462 0.75925,-1.1248 0.21069,-0.33018 0.54856,-1.08112 0.75924,-1.255 0.2107,-0.17388 0.54857,-0.13237 0.75925,0.0017 0.21069,0.13407 0.54857,0.78282 0.75925,0.9647 0.21069,0.1819 0.54856,0.44072 0.75924,0.34632"
                   style="fill:none;stroke:#b3b3ff;stroke-width:0.95999998;stroke-linecap:butt;stroke-linejoin:miter;stroke-miterlimit:10;stroke-dasharray:none;stroke-opacity:1"
                   id="path86"
                   inkscape:connector-curvature="0"
                   sodipodi:nodetypes="ccsccccsccscccccccccccccsccccccsccccccscccccccscccccccccccccccccccccccccccccccsccsccccccc" /></g><g
                 id="g88" /><g
                 id="g52"
                 transform="translate(-8.2783902,0)"><path
                   d="m 8.64857,39.7124 c 0.2107,0.26312 0.54857,0.67256 0.75925,0.91336 0.2107,0.2408 0.54857,0.60939 0.75925,0.82225 0.21069,0.21288 0.54857,0.53221 0.75926,0.71207 0.21068,0.17986 0.54855,0.44199 0.75925,0.58422 0.21068,0.14222 0.54855,0.3401 0.75924,0.44094 0.21068,0.10085 0.54856,0.22951 0.75925,0.28598 0.21068,0.05648 0.54855,0.11125 0.75925,0.12113 0.21068,0.0099 0.54855,-0.01189 0.75924,-0.04987 0.21068,-0.03796 0.54856,-0.1376 0.75925,-0.22386 0.21068,-0.08626 0.54855,-0.26369 0.75925,-0.39782 0.21068,-0.13412 0.54857,-0.3883 0.75924,-0.56893 0.21068,-0.18064 0.54857,-0.5082 0.75925,-0.73302 0.21068,-0.22484 0.54857,-0.62161 0.75925,-0.88754 0.21068,-0.26593 0.54857,-0.726 0.75925,-1.02919 0.21067,-0.30319 0.54856,-0.82016 0.75925,-1.15607 0.21069,-0.33591 0.54856,-0.90145 0.75924,-1.26492 0.21069,-0.36348 0.54857,-0.96941 0.75925,-1.3548 0.21069,-0.38541 0.54856,-1.02171 0.75924,-1.42291 0.2107,-0.4012 0.54857,-1.05814 0.75925,-1.46871 0.21069,-0.41058 0.54857,-1.07711 0.75925,-1.49049 0.21069,-0.41338 0.54857,-1.07921 0.75924,-1.48882 0.2107,-0.40962 0.54857,-1.06414 0.75925,-1.4635 0.21069,-0.39935 0.54857,-1.0321 0.75926,-1.41479 0.21068,-0.38271 0.54856,-0.98348 0.75925,-1.34343 0.21067,-0.35997 0.54855,-0.91946 0.75925,-1.25107 0.21067,-0.33161 0.54855,-0.84068 0.75924,-1.1389 0.21068,-0.29821 0.54856,-0.75009 0.75925,-1.0105 0.21068,-0.26039 0.54855,-0.64751 0.75925,-0.8663 0.21068,-0.21881 0.54855,-0.53639 0.75924,-0.71066 0.21068,-0.17429 0.54856,-0.41795 0.75925,-0.54547 0.21068,-0.12752 0.54857,-0.29415 0.75925,-0.37362 0.21068,-0.07948 0.54857,-0.16803 0.75924,-0.19926 0.21068,-0.03122 0.54857,-0.04233 0.75925,-0.02583 0.21068,0.01649 0.54857,0.08191 0.75925,0.14477 0.21069,0.06288 0.54857,0.20159 0.75924,0.30844 0.2107,0.10686 0.54857,0.31411 0.75925,0.46181 0.21069,0.14771 0.54857,0.41808 0.75925,0.60283 0.21069,0.18475 0.54856,0.51161 0.75924,0.72876 0.2107,0.21713 0.54857,0.59202 0.75925,0.83632 0.21069,0.24429 0.54857,0.65863 0.75925,0.9244 0.21069,0.26578 0.54857,0.71 0.75925,0.99114 0.21069,0.28113 0.54857,0.74506 0.75926,1.03506 0.21068,0.29001 0.54855,0.76279 0.75924,1.0552 0.21068,0.29239 0.54856,0.76397 0.75925,1.0522 0.21068,0.28822 0.54855,0.74777 0.75925,1.0252 0.21067,0.27744 0.54855,0.7141 0.75924,0.97445 0.21068,0.26034 0.54856,0.66473 0.75925,0.90197 0.21068,0.23725 0.54855,0.59941 0.75925,0.80793 0.21068,0.20852 0.54855,0.52018 0.75925,0.69502 0.21068,0.17483 0.54856,0.42842 0.75924,0.56511 0.21068,0.13667 0.54857,0.32519 0.75925,0.42001 0.21068,0.09482 0.54857,0.21338 0.75925,0.26343 0.21067,0.05006 0.54856,0.09425 0.75924,0.09747 0.21068,0.0032 0.54857,-0.02948 0.75925,-0.07426 0.21069,-0.04479 0.54857,-0.15549 0.75925,-0.24854 0.21069,-0.09306 0.54856,-0.2814 0.75924,-0.42213 0.2107,-0.14073 0.54857,-0.40518 0.75925,-0.59213 0.21069,-0.18696 0.54857,-0.52459 0.75925,-0.75536 0.21069,-0.23076 0.54856,-0.63654 0.75924,-0.90796 0.2107,-0.27141 0.54857,-0.74016 0.75925,-1.04829 0.21069,-0.30812 0.54857,-0.83242 0.75925,-1.17253 0.21069,-0.34011 0.54857,-0.91192 0.75926,-1.2788 0.21068,-0.36689 0.54856,-0.97754 0.75925,-1.36552 0.21067,-0.38799 0.54855,-1.02793 0.75924,-1.43082 0.21068,-0.40288 0.54856,-1.06158 0.75925,-1.4729 0.21068,-0.41132 0.54855,-1.07846 0.75925,-1.49171 0.21067,-0.41324 0.54855,-1.07821 0.75924,-1.48676 0.21068,-0.40857 0.54856,-1.06064 0.75925,-1.45801 0.21068,-0.39738 0.54855,-1.02626 0.75925,-1.40613 0.21067,-0.37986 0.54857,-0.97544 0.75924,-1.3318 0.21068,-0.35635 0.54857,-0.90928 0.75925,-1.23652 0.21068,-0.32724 0.54857,-0.82889 0.75924,-1.12206 0.21069,-0.29316 0.54858,-0.73626 0.75925,-0.99101 0.2107,-0.25476 0.54857,-0.63248 0.75925,-0.84515 0.2107,-0.2127 0.54857,-0.52007 0.75925,-0.68789 0.21069,-0.16781 0.54857,-0.40081 0.75925,-0.52168 0.21069,-0.12088 0.54856,-0.27675 0.75924,-0.3495 0.21069,-0.07274 0.54857,-0.15041 0.75925,-0.17487 0.21069,-0.02446 0.54857,-0.02456 0.75925,-0.00142 0.21069,0.02314 0.54856,0.09906 0.75924,0.16825 0.2107,0.06918 0.54857,0.21768 0.75926,0.33047 0.21068,0.11281 0.54856,0.32934 0.75925,0.48251 0.21068,0.15319 0.54855,0.43203 0.75925,0.62156 0.21068,0.18953 0.54855,0.52325 0.75924,0.74449 0.21068,0.22122 0.54856,0.60232 0.75925,0.85 0.21068,0.2477 0.54855,0.6669 0.75925,0.93523 0.21068,0.26834 0.54855,0.716 0.75925,0.99876 0.21067,0.28277 0.54855,0.74854 0.75924,1.03925 0.21068,0.29073 0.54857,0.76393 0.75925,1.05614 0.21068,0.29219 0.54857,0.76277 0.75925,1.04988 0.21067,0.28709 0.54856,0.74397 0.75924,1.01941 0.21068,0.27542 0.54857,0.70836 0.75925,0.96579 0.21068,0.25743 0.54857,0.65616 0.75924,0.88968 0.2107,0.23353 0.54857,0.58935 0.75925,0.79348 0.2107,0.20414 0.54857,0.50811 0.75925,0.67781 0.2107,0.16973 0.54857,0.41445 0.75925,0.54546"
                   style="fill:none;stroke:#948eff;stroke-width:0.95999998;stroke-linecap:butt;stroke-linejoin:miter;stroke-miterlimit:10;stroke-dasharray:none;stroke-opacity:1"
                   id="path54"
                   inkscape:connector-curvature="0"
                   sodipodi:nodetypes="ccccscccccsscscssscsccccccscccccccccscccsccsscsccccscccccsccccccsccccccsccccccssccccccccccscscccc" /></g><path
                 d="M -0.45223999,31.757869 67.64637,12.25945"
                 style="fill:none;stroke:#000000;stroke-width:0.3985;stroke-linecap:butt;stroke-linejoin:miter;stroke-miterlimit:10;stroke-dasharray:none;stroke-opacity:1"
                 id="path100"
                 inkscape:connector-curvature="0"
                 sodipodi:nodetypes="cc" /><path
                 d="M 74.119012,12.595574 116.78006,29.384831"
                 style="fill:none;stroke:#000000;stroke-width:0.3985;stroke-linecap:butt;stroke-linejoin:miter;stroke-miterlimit:10;stroke-dasharray:none;stroke-opacity:1"
                 id="path102"
                 inkscape:connector-curvature="0"
                 sodipodi:nodetypes="cc" /><g
                 id="g96"
                 transform="translate(-8.2783902,0)"><path
                   d="m 8.01195,39.04051 0.38151,-0.3867 0.38152,-0.19006 0.38153,0.05751 0.38153,0.19932 0.38152,0.14331 0.38151,-0.07843 0.38152,-0.32832 0.38153,-0.44674 0.38151,-0.3487 0.38153,-0.08501 0.3815,0.18465 0.38154,0.28262 0.38153,0.12579 0.38151,-0.21325 0.38153,-0.53298 0.3815,-0.61355 0.38153,-0.35291 0.38152,0.14816 0.38153,0.60843 0.38151,0.68917 0.38154,0.17225 0.38153,-0.90983 0.38151,-2.25359 0.38153,-3.39639 0.38152,-3.91263 0.38151,-3.60634 0.38152,-2.5941 0.38153,-1.25607 0.38153,-0.06594 0.38152,0.61487 0.38151,0.67867 0.38152,0.28744 0.38153,-0.23515 0.38151,-0.5777 0.38153,-0.58449 0.3815,-0.30909 0.38153,0.04727 0.38154,0.26607 0.38151,0.23312 0.38153,-0.0067 0.3815,-0.29028 0.38153,-0.44219 0.38152,-0.37782 0.38153,-0.14877 0.38153,0.0968 0.3815,0.20494 0.38153,0.11057 0.38152,-0.12302 0.38153,-0.34824 0.38151,-0.42173 0.38153,-0.29455 0.38152,-0.04248 0.38151,0.17528 0.38153,0.21726 0.38152,0.04512 0.38153,-0.24272 0.38152,-0.46703 0.38153,-0.47325 0.38151,-0.23213 0.38153,0.12703 0.3815,0.38047 0.38154,0.33745 0.38152,-0.03439 0.38152,-0.56008 0.38153,-0.91699 0.3815,-0.79193 0.38153,-0.04774 0.38152,1.17839 0.38153,2.50406 0.38153,3.45741 0.3815,3.67729 0.38153,3.08088 0.38151,1.89495 0.38154,0.55825 0.38151,-0.47483 0.38152,-0.92581 0.38151,-0.79125 0.38153,-0.31101 0.38154,0.17582 0.38151,0.40198 0.38152,0.28865 0.38151,-0.04463 0.38153,-0.37209 0.38152,-0.50313 0.38153,-0.38046 0.38153,-0.10266 0.38152,0.14954 0.38153,0.22518 0.38151,0.08681 0.38152,-0.16794 0.38152,-0.37765 0.38152,-0.41203 0.38152,-0.25329 0.38153,-0.0035 0.38153,0.17954 0.3815,0.17787 0.38153,-0.01055 0.38152,-0.26931 0.38153,-0.43521 0.38152,-0.39507 0.38151,-0.16302 0.38151,0.12377 0.38153,0.28104 0.38154,0.19049 0.38151,-0.11621 0.38152,-0.46402 0.38151,-0.62433 0.38153,-0.45302 0.38152,0.0063 0.38153,0.51059 0.38151,0.72096 0.38152,0.36977 0.38153,-0.58252 0.38152,-1.89912 0.38153,-3.14128 0.3815,-3.85375 0.38153,-3.76602 0.38151,-2.91147 0.38154,-1.61331 0.38153,-0.34104 0.38151,0.49581 0.38153,0.7169 0.38152,0.41778 0.38153,-0.10395 0.38151,-0.51723 0.38152,-0.61574 0.38153,-0.39928 0.38152,-0.04101 0.38153,0.23064 0.38151,0.26636 0.38152,0.06871 0.38151,-0.22217 0.38153,-0.42211 0.38152,-0.41531 0.38153,-0.21744 0.38151,0.04003 0.38152,0.19536 0.38153,0.15374 0.38152,-0.05534 0.38153,-0.29868 0.3815,-0.42225 0.38153,-0.34531 0.38151,-0.11253 0.38153,0.13038 0.38154,0.22766 0.3815,0.10797 0.38153,-0.16499 0.38151,-0.42442 0.38153,-0.49742 0.38152,-0.31488 0.38151,0.03283 0.38153,0.33664 0.38152,0.38315 0.38153,0.0892 0.38152,-0.42326 0.38153,-0.85884 0.38151,-0.88403 0.38153,-0.3012 0.38152,0.82654 0.38153,2.17206 0.38151,3.26652 0.38152,3.70061 0.38153,3.3098 0.38152,2.24209 0.38153,0.8978 0.3815,-0.25204 0.38153,-0.86886 0.38153,-0.87322 0.38151,-0.45201 0.38153,0.06466 0.3815,0.37613 0.38154,0.34716 0.38151,0.05256 0.38153,-0.29868 0.38152,-0.49374 0.38151,-0.43461 0.38153,-0.18117 0.38152,0.09593"
                   style="fill:none;stroke:#ff0000;stroke-width:0.80000001;stroke-linecap:butt;stroke-linejoin:miter;stroke-miterlimit:10;stroke-dasharray:none;stroke-opacity:1"
                   id="path98"
                   inkscape:connector-curvature="0"
                   sodipodi:nodetypes="ccccccccccccccccccccccccccccccccccccccccccccccccccccccccccccccccccccccccccccccccccccccccccccccccccccccccccccccccccccccccccccccccccccccccccccccccccccccccccccccccccccccccccccccccccc" /></g></g></g><g
             id="g104" /><g
             id="g106" /><g
             id="g108"
             transform="translate(-0.199,5.651)"><g
               id="g110" /><g
               id="g112"
               transform="translate(0.199,-5.651)" /></g><g
             id="g114" /><g
             id="g116" /></g><g
           id="g118" /><g
           id="g120"
           transform="translate(-8.2783902,0)"><g
             id="g122"><path
               d="m 86.09184,13.76665 0,9.31364 m 0,-9.31364 0,9.31364"
               style="fill:none;stroke:#0000ff;stroke-width:1.19553006;stroke-linecap:butt;stroke-linejoin:miter;stroke-miterlimit:10;stroke-dasharray:none;stroke-opacity:1"
               id="path124"
               inkscape:connector-curvature="0" /></g><g
             id="g126"><path
               d="m 98.83353,18.95995 0,3.10452 m 0,-3.10452 0,3.10452"
               style="fill:none;stroke:#0000ff;stroke-width:1.19553006;stroke-linecap:butt;stroke-linejoin:miter;stroke-miterlimit:10;stroke-dasharray:none;stroke-opacity:1"
               id="path128"
               inkscape:connector-curvature="0" /></g><g
             id="g130"><path
               d="m 111.57521,24.15324 0,1.86274 m 0,-1.86274 0,1.86274"
               style="fill:none;stroke:#0000ff;stroke-width:1.19553006;stroke-linecap:butt;stroke-linejoin:miter;stroke-miterlimit:10;stroke-dasharray:none;stroke-opacity:1"
               id="path132"
               inkscape:connector-curvature="0" /></g><g
             id="g134"><path
               d="m 124.31691,29.34654 0,1.33046 m 0,-1.33046 0,1.33046"
               style="fill:none;stroke:#0000ff;stroke-width:1.19553006;stroke-linecap:butt;stroke-linejoin:miter;stroke-miterlimit:10;stroke-dasharray:none;stroke-opacity:1"
               id="path136"
               inkscape:connector-curvature="0" /></g><g
             id="g138" /><g
             id="g142" /></g></g></g></g></svg>