<?xml version="1.0" encoding="UTF-8" standalone="no"?>
<svg
   xmlns:dc="http://purl.org/dc/elements/1.1/"
   xmlns:cc="http://creativecommons.org/ns#"
   xmlns:rdf="http://www.w3.org/1999/02/22-rdf-syntax-ns#"
   xmlns:svg="http://www.w3.org/2000/svg"
   xmlns="http://www.w3.org/2000/svg"
   xmlns:sodipodi="http://sodipodi.sourceforge.net/DTD/sodipodi-0.dtd"
   xmlns:inkscape="http://www.inkscape.org/namespaces/inkscape"
   width="124mm"
   height="83mm"
   viewBox="0 0 12400 8300"
   version="1.1"
   stroke-width="28.222"
   stroke-linejoin="round"
   xml:space="preserve"
   id="svg2"
   inkscape:version="0.91 r"
   sodipodi:docname="lab7_IV.svg"><metadata
     id="metadata386"><rdf:RDF><cc:Work
         rdf:about=""><dc:format>image/svg+xml</dc:format><dc:type
           rdf:resource="http://purl.org/dc/dcmitype/StillImage" /></cc:Work></rdf:RDF></metadata><defs
     id="defs384" /><sodipodi:namedview
     pagecolor="#ffffff"
     bordercolor="#666666"
     borderopacity="1"
     objecttolerance="10"
     gridtolerance="10"
     guidetolerance="10"
     inkscape:pageopacity="0"
     inkscape:pageshadow="2"
     inkscape:window-width="1366"
     inkscape:window-height="716"
     id="namedview382"
     showgrid="false"
     inkscape:zoom="1.0299935"
     inkscape:cx="362.21909"
     inkscape:cy="113.77057"
     inkscape:window-x="0"
     inkscape:window-y="0"
     inkscape:window-maximized="1"
     inkscape:current-layer="svg2" /><path
     fill="none"
     stroke="rgb(179,179,179)"
     stroke-linejoin="round"
     d="M 6530,7476 L 1159,7476 1159,364 11901,364 11901,7476 6530,7476 Z"
     id="path6" /><path
     fill="none"
     stroke="rgb(179,179,179)"
     stroke-linejoin="round"
     d="M 1159,363 L 1159,7475"
     id="path8" /><path
     fill="none"
     stroke="rgb(179,179,179)"
     stroke-linejoin="round"
     d="M 2949,363 L 2949,7475"
     id="path10" /><path
     fill="none"
     stroke="rgb(179,179,179)"
     stroke-linejoin="round"
     d="M 4740,363 L 4740,7475"
     id="path12" /><path
     fill="none"
     stroke="rgb(179,179,179)"
     stroke-linejoin="round"
     d="M 6529,363 L 6529,7475"
     id="path14" /><path
     fill="none"
     stroke="rgb(179,179,179)"
     stroke-linejoin="round"
     d="M 8320,363 L 8320,7475"
     id="path16" /><path
     fill="none"
     stroke="rgb(179,179,179)"
     stroke-linejoin="round"
     d="M 10110,363 L 10110,7475"
     id="path18" /><path
     fill="none"
     stroke="rgb(179,179,179)"
     stroke-linejoin="round"
     d="M 11901,363 L 11901,7475"
     id="path20" /><path
     fill="none"
     stroke="rgb(179,179,179)"
     stroke-linejoin="round"
     d="M 11901,7475 L 1159,7475"
     id="path22" /><path
     fill="none"
     stroke="rgb(179,179,179)"
     stroke-linejoin="round"
     d="M 11901,6763 L 1159,6763"
     id="path24" /><path
     fill="none"
     stroke="rgb(179,179,179)"
     stroke-linejoin="round"
     d="M 11901,6052 L 1159,6052"
     id="path26" /><path
     fill="none"
     stroke="rgb(179,179,179)"
     stroke-linejoin="round"
     d="M 11901,5341 L 1159,5341"
     id="path28" /><path
     fill="none"
     stroke="rgb(179,179,179)"
     stroke-linejoin="round"
     d="M 11901,4629 L 1159,4629"
     id="path30" /><path
     fill="none"
     stroke="rgb(179,179,179)"
     stroke-linejoin="round"
     d="M 11901,3919 L 1159,3919"
     id="path32" /><path
     fill="none"
     stroke="rgb(179,179,179)"
     stroke-linejoin="round"
     d="M 11901,3208 L 1159,3208"
     id="path34" /><path
     fill="none"
     stroke="rgb(179,179,179)"
     stroke-linejoin="round"
     d="M 11901,2496 L 1159,2496"
     id="path36" /><path
     fill="none"
     stroke="rgb(179,179,179)"
     stroke-linejoin="round"
     d="M 11901,1785 L 1159,1785"
     id="path38" /><path
     fill="none"
     stroke="rgb(179,179,179)"
     stroke-linejoin="round"
     d="M 11901,1074 L 1159,1074"
     id="path40" /><path
     fill="none"
     stroke="rgb(179,179,179)"
     stroke-linejoin="round"
     d="M 11901,363 L 1159,363"
     id="path42" /><path
     fill="none"
     stroke="rgb(179,179,179)"
     stroke-linejoin="round"
     d="M 1159,7475 L 11901,7475"
     id="path72" /><path
     fill="none"
     stroke="rgb(179,179,179)"
     stroke-linejoin="round"
     d="M 1159,7475 L 1159,363"
     id="path118" /><path
     fill="none"
     stroke="rgb(0,69,134)"
     stroke-width="80"
     stroke-linejoin="round"
     d="M 1159,7475 L 2054,7475 2949,7474 3397,7474 3844,7474 4292,7474 4740,7474 5187,7474 5635,7473 6082,7471 6529,7464 6977,7444 7424,7390 7890,7253 8320,6989 8767,6472 9215,5547 9662,4405 10110,2994 11005,789"
     id="path120" /><path
     fill="rgb(0,69,134)"
     stroke="none"
     d="M 1034,7350 L 1034,7600 1284,7600 1284,7350 1034,7350 Z"
     id="path122" /><path
     fill="none"
     stroke="rgb(0,69,134)"
     stroke-linejoin="round"
     d="M 1034,7350 L 1034,7600 1284,7600 1284,7350 1034,7350 Z"
     id="path124" /><path
     fill="rgb(0,69,134)"
     stroke="none"
     d="M 1929,7350 L 1929,7600 2179,7600 2179,7350 1929,7350 Z"
     id="path126" /><path
     fill="none"
     stroke="rgb(0,69,134)"
     stroke-linejoin="round"
     d="M 1929,7350 L 1929,7600 2179,7600 2179,7350 1929,7350 Z"
     id="path128" /><path
     fill="rgb(0,69,134)"
     stroke="none"
     d="M 2824,7349 L 2824,7599 3074,7599 3074,7349 2824,7349 Z"
     id="path130" /><path
     fill="none"
     stroke="rgb(0,69,134)"
     stroke-linejoin="round"
     d="M 2824,7349 L 2824,7599 3074,7599 3074,7349 2824,7349 Z"
     id="path132" /><path
     fill="rgb(0,69,134)"
     stroke="none"
     d="M 3272,7349 L 3272,7599 3522,7599 3522,7349 3272,7349 Z"
     id="path134" /><path
     fill="none"
     stroke="rgb(0,69,134)"
     stroke-linejoin="round"
     d="M 3272,7349 L 3272,7599 3522,7599 3522,7349 3272,7349 Z"
     id="path136" /><path
     fill="rgb(0,69,134)"
     stroke="none"
     d="M 3719,7349 L 3719,7599 3969,7599 3969,7349 3719,7349 Z"
     id="path138" /><path
     fill="none"
     stroke="rgb(0,69,134)"
     stroke-linejoin="round"
     d="M 3719,7349 L 3719,7599 3969,7599 3969,7349 3719,7349 Z"
     id="path140" /><path
     fill="rgb(0,69,134)"
     stroke="none"
     d="M 4167,7349 L 4167,7599 4417,7599 4417,7349 4167,7349 Z"
     id="path142" /><path
     fill="none"
     stroke="rgb(0,69,134)"
     stroke-linejoin="round"
     d="M 4167,7349 L 4167,7599 4417,7599 4417,7349 4167,7349 Z"
     id="path144" /><path
     fill="rgb(0,69,134)"
     stroke="none"
     d="M 4615,7349 L 4615,7599 4865,7599 4865,7349 4615,7349 Z"
     id="path146" /><path
     fill="none"
     stroke="rgb(0,69,134)"
     stroke-linejoin="round"
     d="M 4615,7349 L 4615,7599 4865,7599 4865,7349 4615,7349 Z"
     id="path148" /><path
     fill="rgb(0,69,134)"
     stroke="none"
     d="M 5062,7349 L 5062,7599 5312,7599 5312,7349 5062,7349 Z"
     id="path150" /><path
     fill="none"
     stroke="rgb(0,69,134)"
     stroke-linejoin="round"
     d="M 5062,7349 L 5062,7599 5312,7599 5312,7349 5062,7349 Z"
     id="path152" /><path
     fill="rgb(0,69,134)"
     stroke="none"
     d="M 5510,7348 L 5510,7598 5760,7598 5760,7348 5510,7348 Z"
     id="path154" /><path
     fill="none"
     stroke="rgb(0,69,134)"
     stroke-linejoin="round"
     d="M 5510,7348 L 5510,7598 5760,7598 5760,7348 5510,7348 Z"
     id="path156" /><path
     fill="rgb(0,69,134)"
     stroke="none"
     d="M 5957,7346 L 5957,7596 6206,7596 6206,7346 5957,7346 Z"
     id="path158" /><path
     fill="none"
     stroke="rgb(0,69,134)"
     stroke-linejoin="round"
     d="M 5957,7346 L 5957,7596 6206,7596 6206,7346 5957,7346 Z"
     id="path160" /><path
     fill="rgb(0,69,134)"
     stroke="none"
     d="M 6404,7339 L 6404,7589 6654,7589 6654,7339 6404,7339 Z"
     id="path162" /><path
     fill="none"
     stroke="rgb(0,69,134)"
     stroke-linejoin="round"
     d="M 6404,7339 L 6404,7589 6654,7589 6654,7339 6404,7339 Z"
     id="path164" /><path
     fill="rgb(0,69,134)"
     stroke="none"
     d="M 6852,7319 L 6852,7569 7102,7569 7102,7319 6852,7319 Z"
     id="path166" /><path
     fill="none"
     stroke="rgb(0,69,134)"
     stroke-linejoin="round"
     d="M 6852,7319 L 6852,7569 7102,7569 7102,7319 6852,7319 Z"
     id="path168" /><path
     fill="rgb(0,69,134)"
     stroke="none"
     d="M 7299,7265 L 7299,7515 7549,7515 7549,7265 7299,7265 Z"
     id="path170" /><path
     fill="none"
     stroke="rgb(0,69,134)"
     stroke-linejoin="round"
     d="M 7299,7265 L 7299,7515 7549,7515 7549,7265 7299,7265 Z"
     id="path172" /><path
     fill="rgb(0,69,134)"
     stroke="none"
     d="M 7765,7128 L 7765,7378 8015,7378 8015,7128 7765,7128 Z"
     id="path174" /><path
     fill="none"
     stroke="rgb(0,69,134)"
     stroke-linejoin="round"
     d="M 7765,7128 L 7765,7378 8015,7378 8015,7128 7765,7128 Z"
     id="path176" /><path
     fill="rgb(0,69,134)"
     stroke="none"
     d="M 8195,6864 L 8195,7114 8445,7114 8445,6864 8195,6864 Z"
     id="path178" /><path
     fill="none"
     stroke="rgb(0,69,134)"
     stroke-linejoin="round"
     d="M 8195,6864 L 8195,7114 8445,7114 8445,6864 8195,6864 Z"
     id="path180" /><path
     fill="rgb(0,69,134)"
     stroke="none"
     d="M 8642,6347 L 8642,6597 8892,6597 8892,6347 8642,6347 Z"
     id="path182" /><path
     fill="none"
     stroke="rgb(0,69,134)"
     stroke-linejoin="round"
     d="M 8642,6347 L 8642,6597 8892,6597 8892,6347 8642,6347 Z"
     id="path184" /><path
     fill="rgb(0,69,134)"
     stroke="none"
     d="M 9090,5422 L 9090,5672 9340,5672 9340,5422 9090,5422 Z"
     id="path186" /><path
     fill="none"
     stroke="rgb(0,69,134)"
     stroke-linejoin="round"
     d="M 9090,5422 L 9090,5672 9340,5672 9340,5422 9090,5422 Z"
     id="path188" /><path
     fill="rgb(0,69,134)"
     stroke="none"
     d="M 9537,4280 L 9537,4530 9787,4530 9787,4280 9537,4280 Z"
     id="path190" /><path
     fill="none"
     stroke="rgb(0,69,134)"
     stroke-linejoin="round"
     d="M 9537,4280 L 9537,4530 9787,4530 9787,4280 9537,4280 Z"
     id="path192" /><path
     fill="rgb(0,69,134)"
     stroke="none"
     d="M 9985,2869 L 9985,3119 10235,3119 10235,2869 9985,2869 Z"
     id="path194" /><path
     fill="none"
     stroke="rgb(0,69,134)"
     stroke-linejoin="round"
     d="M 9985,2869 L 9985,3119 10235,3119 10235,2869 9985,2869 Z"
     id="path196" /><path
     fill="rgb(0,69,134)"
     stroke="none"
     d="M 10880,664 L 10880,914 11130,914 11130,664 10880,664 Z"
     id="path198" /><path
     fill="none"
     stroke="rgb(0,69,134)"
     stroke-linejoin="round"
     d="M 10880,664 L 10880,914 11130,914 11130,664 10880,664 Z"
     id="path200" /></svg>