<?xml version="1.0" encoding="UTF-8" standalone="no"?>
<!-- Created with Inkscape (http://www.inkscape.org/) -->
<svg
   xmlns:dc="http://purl.org/dc/elements/1.1/"
   xmlns:cc="http://web.resource.org/cc/"
   xmlns:rdf="http://www.w3.org/1999/02/22-rdf-syntax-ns#"
   xmlns:svg="http://www.w3.org/2000/svg"
   xmlns="http://www.w3.org/2000/svg"
   xmlns:sodipodi="http://sodipodi.sourceforge.net/DTD/sodipodi-0.dtd"
   xmlns:inkscape="http://www.inkscape.org/namespaces/inkscape"
   version="1.0"
   width="175"
   height="145"
   id="svg2"
   sodipodi:version="0.32"
   inkscape:version="0.45.1"
   sodipodi:docname="Thevenin Equivalent.svg"
   inkscape:output_extension="org.inkscape.output.svg.inkscape"
   sodipodi:docbase="C:\Documents and Settings\JJB\My Documents\My Pictures\Electronics\Illustrations\Circuit Theory">
  <metadata
     id="metadata2635">
    <rdf:RDF>
      <cc:Work
         rdf:about="">
        <dc:format>image/svg+xml</dc:format>
        <dc:type
           rdf:resource="http://purl.org/dc/dcmitype/StillImage" />
      </cc:Work>
    </rdf:RDF>
  </metadata>
  <sodipodi:namedview
     inkscape:window-height="573"
     inkscape:window-width="744"
     inkscape:pageshadow="2"
     inkscape:pageopacity="0.0"
     guidetolerance="10.0"
     gridtolerance="10.0"
     objecttolerance="10.0"
     borderopacity="1.0"
     bordercolor="#666666"
     pagecolor="#ffffff"
     id="base"
     height="145px"
     width="175px"
     showgrid="true"
     inkscape:zoom="1.52331"
     inkscape:cx="91.34959"
     inkscape:cy="64.616147"
     inkscape:window-x="102"
     inkscape:window-y="29"
     inkscape:current-layer="svg2" />
  <defs
     id="defs3">
    <marker
       refX="0"
       refY="0"
       orient="auto"
       style="overflow:visible"
       id="Arrow2Mend">
      <path
         d="M 8.7185878,4.0337352 L -2.2072895,0.016013256 L 8.7185884,-4.0017078 C 6.97309,-1.6296469 6.9831476,1.6157441 8.7185878,4.0337352 z "
         transform="matrix(-0.6,0,0,-0.6,3,0)"
         style="font-size:12px;fill-rule:evenodd;stroke-width:0.625;stroke-linejoin:round"
         id="path3052" />
    </marker>
    <marker
       refX="0"
       refY="0"
       orient="auto"
       style="overflow:visible"
       id="Arrow1Mstart">
      <path
         d="M 0,0 L 5,-5 L -12.5,0 L 5,5 L 0,0 z "
         transform="scale(0.4,0.4)"
         style="fill-rule:evenodd;stroke:#000000;stroke-width:1pt;marker-start:none"
         id="path3060" />
    </marker>
    <marker
       refX="0"
       refY="0"
       orient="auto"
       style="overflow:visible"
       id="marker7437">
      <path
         d="M 0,0 L 5,-5 L -12.5,0 L 5,5 L 0,0 z "
         transform="scale(0.4,0.4)"
         style="fill-rule:evenodd;stroke:#000000;stroke-width:1pt;marker-start:none"
         id="path7439" />
    </marker>
    <marker
       refX="0"
       refY="0"
       orient="auto"
       style="overflow:visible"
       id="marker7433">
      <path
         d="M 8.7185878,4.0337352 L -2.2072895,0.016013256 L 8.7185884,-4.0017078 C 6.97309,-1.6296469 6.9831476,1.6157441 8.7185878,4.0337352 z "
         transform="matrix(-0.6,0,0,-0.6,3,0)"
         style="font-size:12px;fill-rule:evenodd;stroke-width:0.625;stroke-linejoin:round"
         id="path7435" />
    </marker>
  </defs>
  <g
     transform="translate(-17.066406,13.5)"
     id="layer1">
    <path
       d="M 82,62.5 C 82,79.068542 68.568542,92.5 52,92.5 C 35.431458,92.5 22,79.068542 22,62.5 C 22,45.931458 35.431458,32.5 52,32.5 C 68.568542,32.5 82,45.931458 82,62.5 z "
       style="opacity:1;fill:#4682b4;fill-opacity:0.11764706;stroke:#000000;stroke-width:3;stroke-linecap:square;stroke-miterlimit:4;stroke-dasharray:none;stroke-dashoffset:0;stroke-opacity:1"
       id="path2249" />
    <path
       d="M 52.066406,31.5 L 52.066406,1.5 L 87.066406,1.5"
       style="fill:none;fill-rule:evenodd;stroke:#000000;stroke-width:2;stroke-linecap:butt;stroke-linejoin:miter;stroke-miterlimit:4;stroke-dasharray:none;stroke-opacity:1"
       id="path6618" />
    <path
       d="M 52.066406,91.5 L 52.066406,121.5 L 177.06641,121.5"
       style="fill:none;fill-rule:evenodd;stroke:#000000;stroke-width:1.99999988;stroke-linecap:butt;stroke-linejoin:miter;stroke-miterlimit:4;stroke-dasharray:none;stroke-opacity:1"
       id="path6620" />
  </g>
  <g
     transform="translate(69,-17.954545)"
     style="fill:#4682b4;fill-opacity:0.11764706"
     id="g7601">
    <path
       d="M 1.5000003,23.454545 L 61.5,23.454545 L 61.5,43.454546 L 1.5000003,43.454546 L 1.5000003,23.454545 z "
       style="fill:#4682b4;fill-opacity:0.11764706;stroke:#000000;stroke-width:3;stroke-miterlimit:4;stroke-dashoffset:0;stroke-opacity:1"
       id="rect3954" />
  </g>
  <path
     d="M 41.933594,91.5 L 26.933594,91.5"
     style="fill:none;fill-rule:evenodd;stroke:#000000;stroke-width:2.5;stroke-linecap:butt;stroke-linejoin:miter;stroke-miterlimit:4;stroke-dasharray:none;stroke-opacity:1"
     id="path13275" />
  <g
     transform="translate(-143.0664,-43.5)"
     style="stroke-width:2.5;stroke-miterlimit:4;stroke-dasharray:none"
     id="g13277">
    <path
       d="M 170,105 L 185,105"
       style="fill:none;fill-rule:evenodd;stroke:#000000;stroke-width:2.5;stroke-linecap:butt;stroke-linejoin:miter;stroke-miterlimit:4;stroke-dasharray:none;stroke-opacity:1"
       id="path13279" />
    <path
       d="M 177.5,97.5 L 177.5,112.5"
       style="fill:none;fill-rule:evenodd;stroke:#000000;stroke-width:2.5;stroke-linecap:butt;stroke-linejoin:miter;stroke-miterlimit:4;stroke-dasharray:none;stroke-opacity:1"
       id="path13281" />
  </g>
  <path
     d="M 170,135 C 170,137.76142 167.76142,140 165,140 C 162.23858,140 160,137.76142 160,135 C 160,132.23858 162.23858,130 165,130 C 167.76142,130 170,132.23858 170,135 z "
     style="fill:none;fill-opacity:1;fill-rule:nonzero;stroke:#000000;stroke-width:2;stroke-linecap:round;stroke-linejoin:bevel;stroke-miterlimit:4;stroke-dasharray:none;stroke-dashoffset:0;stroke-opacity:1"
     id="path13415" />
  <path
     d="M 170,15 C 170,17.76142 167.76142,20 165,20 C 162.23858,20 160,17.76142 160,15 C 160,12.238576 162.23858,10 165,10 C 167.76142,10 170,12.238576 170,15 z "
     style="fill:none;fill-opacity:1;fill-rule:nonzero;stroke:#000000;stroke-width:2;stroke-linecap:round;stroke-linejoin:bevel;stroke-miterlimit:4;stroke-dasharray:none;stroke-dashoffset:0;stroke-opacity:1"
     id="path5728" />
  <path
     d="M 131.85084,15 L 161,15"
     style="fill:none;fill-rule:evenodd;stroke:#000000;stroke-width:2;stroke-linecap:butt;stroke-linejoin:miter;stroke-opacity:1"
     id="path5730" />
  <g
     transform="matrix(0.375,0,0,-0.375,-356.25,171.99375)"
     style="font-style:normal;font-variant:normal;font-weight:normal;font-stretch:normal;letter-spacing:normal;word-spacing:normal;text-anchor:start;fill:none;fill-opacity:1;fill-rule:evenodd;stroke:#000000;stroke-width:0.66666669;stroke-linecap:butt;stroke-linejoin:miter;stroke-miterlimit:10.43299961;stroke-dasharray:none;stroke-dashoffset:0;stroke-opacity:1"
     id="g6551"
     xml:space="preserve"><path
       d="M 1213.8,362.94 L 1214.3,363.05 L 1214.8,363.17 L 1215.3,363.31 L 1215.8,363.46 L 1216.2,363.62 L 1216.7,363.8 L 1217.2,363.99 L 1217.7,364.19 L 1218.2,364.41 L 1218.6,364.64 L 1219.1,364.88 L 1219.5,365.13 L 1220,365.4 L 1220.4,365.68 L 1220.8,365.97 L 1221.2,366.27 L 1221.6,366.58 L 1222,366.9 L 1222.3,367.24 L 1222.7,367.59 L 1223,367.94 L 1223.3,368.31 L 1223.6,368.69 L 1223.8,369.08 L 1224,369.48 L 1224.2,369.89 L 1224.4,370.31 L 1224.5,370.74 L 1224.7,371.18 L 1224.7,371.63 L 1224.8,372.08 L 1224.8,372.55 C 1224.8,376.84 1220.3,380.02 1213.8,380.02 L 1199.6,380.02 C 1198.6,380.02 1198.2,380.02 1198.2,379.03 C 1198.2,378.48 1198.6,378.48 1199.6,378.48 C 1199.7,378.48 1200.6,378.48 1201.4,378.38 C 1202.3,378.28 1202.8,378.23 1202.8,377.58 C 1202.8,377.38 1202.8,377.23 1202.6,376.64 L 1195.9,349.89 C 1195.4,347.94 1195.3,347.54 1191.4,347.54 C 1190.5,347.54 1190,347.54 1190,346.55 C 1190,346 1190.6,346 1190.7,346 C 1192.1,346 1195.6,346.15 1197,346.15 C 1198.4,346.15 1201.9,346 1203.3,346 C 1203.7,346 1204.3,346 1204.3,347 C 1204.3,347.54 1203.9,347.54 1202.9,347.54 C 1201.1,347.54 1199.7,347.54 1199.7,348.44 C 1199.7,348.74 1199.8,348.99 1199.9,349.29 L 1203.1,362.49 L 1209.1,362.49 L 1209,363.59 L 1203.4,363.59 L 1206.7,376.59 C 1207,377.78 1207.1,378.28 1208.1,378.43 C 1208.5,378.48 1210.1,378.48 1211.1,378.48 C 1214.7,378.48 1220.2,378.48 1220.2,373.55 C 1220.2,371.85 1219.4,368.41 1217.4,366.47 C 1216.1,365.18 1213.5,363.59 1209,363.59 L 1209.1,362.49 C 1213.6,362.49 1214.5,359.7 1214.5,357.96 C 1214.5,357.21 1214.1,355.66 1213.8,354.52 C 1213.4,353.13 1213,351.28 1213,350.29 C 1213,344.9 1219,344.9 1219.6,344.9 C 1223.9,344.9 1225.6,349.93 1225.6,350.63 C 1225.6,351.23 1225.1,351.23 1225,351.23 C 1224.6,351.23 1224.5,350.88 1224.4,350.53 C 1223.1,346.85 1221,346 1219.8,346 C 1218.2,346 1217.8,347.1 1217.8,349.04 C 1217.8,350.58 1218.1,353.13 1218.3,354.72 C 1218.4,355.41 1218.5,356.36 1218.5,357.06 C 1218.5,360.89 1215.2,362.44 1213.8,362.94 z "
       style="fill:#000000;stroke-width:0"
       id="path6553" /><path
       d="M 1241,352.11 L 1240.9,352.09 L 1240.9,352.06 L 1240.8,352.04 L 1240.7,352.01 L 1240.6,351.98 L 1240.6,351.94 L 1240.5,351.9 L 1240.4,351.86 L 1240.3,351.82 L 1240.3,351.78 L 1240.2,351.73 L 1240.2,351.68 L 1240.1,351.63 L 1240.1,351.58 L 1240,351.53 L 1240,351.47 L 1239.9,351.42 L 1239.9,351.36 L 1239.8,351.3 L 1239.8,351.24 L 1239.8,351.18 L 1239.7,351.12 L 1239.7,351.06 L 1239.7,350.99 L 1239.6,350.93 L 1239.6,350.86 L 1239.6,350.8 L 1239.6,350.73 L 1239.6,350.67 L 1239.6,350.6 L 1239.6,350.54 L 1239.6,350.47 C 1239.6,349.67 1240.3,349.36 1240.7,349.36 C 1241.1,349.36 1242.4,349.57 1242.4,351.34 C 1242.4,353.61 1239.9,354.38 1237.8,354.38 C 1232.3,354.38 1231.3,350.37 1231.3,349.29 C 1231.3,348 1232.1,347.16 1232.6,346.74 C 1233.5,346.04 1234.1,345.9 1236.5,345.48 C 1237.2,345.35 1239.5,344.93 1239.5,343.18 C 1239.5,342.59 1239.1,341.27 1237.6,340.39 C 1236.3,339.63 1234.5,339.63 1234.1,339.63 C 1232.7,339.63 1230.7,339.94 1229.9,341.09 C 1231.1,341.23 1231.9,342.1 1231.9,343.08 C 1231.9,343.95 1231.2,344.37 1230.5,344.37 C 1229.5,344.37 1228.5,343.57 1228.5,342.04 C 1228.5,339.94 1230.7,338.65 1234.1,338.65 C 1240.5,338.65 1241.7,343.04 1241.7,344.41 C 1241.7,347.61 1238.2,348.24 1236.9,348.48 C 1236.6,348.55 1235.7,348.7 1235.5,348.76 C 1234.2,349.01 1233.6,349.74 1233.6,350.51 C 1233.6,351.31 1234.2,352.25 1235,352.74 C 1235.9,353.33 1237.1,353.4 1237.7,353.4 C 1238.4,353.4 1240.3,353.3 1241,352.11 z "
       style="fill:#000000;stroke-width:0"
       id="path6555" /></g>  <g
     transform="matrix(0.375,0,0,-0.375,-396.775,207.49369)"
     style="font-style:normal;font-variant:normal;font-weight:normal;font-stretch:normal;letter-spacing:normal;word-spacing:normal;text-anchor:start;fill:none;fill-opacity:1;fill-rule:evenodd;stroke:#000000;stroke-width:0.66666669;stroke-linecap:butt;stroke-linejoin:miter;stroke-miterlimit:10.43299961;stroke-dasharray:none;stroke-dashoffset:0;stroke-opacity:1"
     id="g6595">
    <path
       d="M 1270.3,364.53 L 1270.3,364.66 L 1270.3,364.78 L 1270.3,364.9 L 1270.3,365.01 L 1270.3,365.13 L 1270.3,365.24 L 1270.3,365.35 L 1270.3,365.45 L 1270.2,365.66 L 1270.2,365.85 L 1270.1,366.03 L 1270.1,366.21 L 1270,366.37 L 1270,366.53 L 1269.9,366.68 L 1269.9,366.81 L 1269.8,366.94 L 1269.7,367.06 L 1269.6,367.18 L 1269.6,367.28 L 1269.5,367.38 L 1269.4,367.47 L 1269.3,367.55 L 1269.2,367.62 L 1269.1,367.69 L 1269,367.75 L 1268.9,367.8 L 1268.8,367.85 L 1268.7,367.89 L 1268.7,367.92 L 1268.6,367.95 L 1268.5,367.98 L 1268.4,367.99 L 1268.3,368.01 L 1268.2,368.01 L 1268.1,368.02 C 1266.9,368.02 1265.7,366.72 1265.7,365.63 C 1265.7,364.98 1265.9,364.68 1266.5,364.13 C 1267.5,363.14 1268.2,361.84 1268.2,360.05 C 1268.2,357.96 1265.1,346.55 1259.3,346.55 C 1256.8,346.55 1255.6,348.29 1255.6,350.88 C 1255.6,353.67 1257,357.31 1258.5,361.44 C 1258.9,362.29 1259.1,362.98 1259.1,363.93 C 1259.1,366.18 1257.5,368.02 1255,368.02 C 1250.3,368.02 1248.4,360.79 1248.4,360.35 C 1248.4,359.85 1248.9,359.85 1249,359.85 C 1249.5,359.85 1249.6,359.95 1249.8,360.75 C 1251.3,365.78 1253.4,366.92 1254.9,366.92 C 1255.3,366.92 1256.1,366.92 1256.1,365.33 C 1256.1,364.08 1255.6,362.74 1255.3,361.84 C 1253.1,356.06 1252.4,353.77 1252.4,351.63 C 1252.4,346.25 1256.8,345.45 1259.1,345.45 C 1267.5,345.45 1270.3,361.94 1270.3,364.53 z "
       style="fill:#000000;stroke-width:0"
       id="path6557" />
    <path
       d="M 1286,352.11 L 1285.9,352.09 L 1285.9,352.06 L 1285.8,352.04 L 1285.7,352.01 L 1285.6,351.98 L 1285.6,351.94 L 1285.5,351.9 L 1285.4,351.86 L 1285.3,351.82 L 1285.3,351.78 L 1285.2,351.73 L 1285.2,351.68 L 1285.1,351.63 L 1285.1,351.58 L 1285,351.53 L 1285,351.47 L 1284.9,351.42 L 1284.9,351.36 L 1284.8,351.3 L 1284.8,351.24 L 1284.8,351.18 L 1284.7,351.12 L 1284.7,351.06 L 1284.7,350.99 L 1284.6,350.93 L 1284.6,350.86 L 1284.6,350.8 L 1284.6,350.73 L 1284.6,350.67 L 1284.6,350.6 L 1284.6,350.54 L 1284.6,350.47 C 1284.6,349.67 1285.3,349.36 1285.7,349.36 C 1286.1,349.36 1287.4,349.57 1287.4,351.34 C 1287.4,353.61 1284.9,354.38 1282.8,354.38 C 1277.3,354.38 1276.3,350.37 1276.3,349.29 C 1276.3,348 1277.1,347.16 1277.6,346.74 C 1278.5,346.04 1279.1,345.9 1281.5,345.48 C 1282.2,345.35 1284.5,344.93 1284.5,343.18 C 1284.5,342.59 1284.1,341.27 1282.6,340.39 C 1281.3,339.63 1279.5,339.63 1279.1,339.63 C 1277.7,339.63 1275.7,339.94 1274.9,341.09 C 1276.1,341.23 1276.9,342.1 1276.9,343.08 C 1276.9,343.95 1276.2,344.37 1275.5,344.37 C 1274.5,344.37 1273.5,343.57 1273.5,342.04 C 1273.5,339.94 1275.7,338.65 1279.1,338.65 C 1285.5,338.65 1286.7,343.04 1286.7,344.41 C 1286.7,347.61 1283.2,348.24 1281.9,348.48 C 1281.6,348.55 1280.7,348.7 1280.5,348.76 C 1279.2,349.01 1278.6,349.74 1278.6,350.51 C 1278.6,351.31 1279.2,352.25 1280,352.74 C 1280.9,353.33 1282.1,353.4 1282.7,353.4 C 1283.4,353.4 1285.3,353.3 1286,352.11 z "
       style="fill:#000000;stroke-width:0"
       id="path6559" />
  </g>
</svg>
