<?xml version="1.0" encoding="UTF-8" standalone="no"?>
<svg
   xmlns:dc="http://purl.org/dc/elements/1.1/"
   xmlns:cc="http://creativecommons.org/ns#"
   xmlns:rdf="http://www.w3.org/1999/02/22-rdf-syntax-ns#"
   xmlns:svg="http://www.w3.org/2000/svg"
   xmlns="http://www.w3.org/2000/svg"
   xmlns:xlink="http://www.w3.org/1999/xlink"
   xmlns:sodipodi="http://sodipodi.sourceforge.net/DTD/sodipodi-0.dtd"
   xmlns:inkscape="http://www.inkscape.org/namespaces/inkscape"
   version="1.1"
   width="146.5"
   height="174.65176"
   viewBox="0 -6 146.5 174.65176"
   id="svg2"
   inkscape:version="0.91 r"
   sodipodi:docname="lab9_follower.svg">
  <metadata
     id="metadata128">
    <rdf:RDF>
      <cc:Work
         rdf:about="">
        <dc:format>image/svg+xml</dc:format>
        <dc:type
           rdf:resource="http://purl.org/dc/dcmitype/StillImage" />
        <dc:title>NPN emitter follower circuit diagram</dc:title>
      </cc:Work>
    </rdf:RDF>
  </metadata>
  <sodipodi:namedview
     pagecolor="#ffffff"
     bordercolor="#666666"
     borderopacity="1"
     objecttolerance="10"
     gridtolerance="10"
     guidetolerance="10"
     inkscape:pageopacity="0"
     inkscape:pageshadow="2"
     inkscape:window-width="1366"
     inkscape:window-height="716"
     id="namedview126"
     showgrid="false"
     inkscape:zoom="1.5893067"
     inkscape:cx="128.99644"
     inkscape:cy="88.515945"
     inkscape:window-x="0"
     inkscape:window-y="0"
     inkscape:window-maximized="1"
     inkscape:current-layer="g42"
     fit-margin-top="0"
     fit-margin-left="0"
     fit-margin-right="0"
     fit-margin-bottom="0" />
  <title
     id="title4">NPN emitter follower circuit diagram</title>
  <desc
     id="desc6">An svg diagram of an NPN common collector amplifier</desc>
  <defs
     id="defs8">
    <g
       id="npn">
      <circle
         r="18"
         cx="32"
         cy="0"
         id="circle11" />
      <path
         d="M 0,0 26,0"
         id="path13"
         inkscape:connector-curvature="0" />
      <path
         d="m 26,-6 13,-9 0,-10"
         id="path15"
         inkscape:connector-curvature="0" />
      <path
         d="m 26,6 13,9 0,10"
         id="path17"
         inkscape:connector-curvature="0" />
      <path
         d="m 33.4,13.2 4.1,1 -2.5,-3.9 z"
         id="path19"
         inkscape:connector-curvature="0" />
      <path
         d="m 25,-10 0,20"
         id="path21"
         inkscape:connector-curvature="0"
         style="stroke-width:4" />
      <g
         font-size="12"
         id="g23"
         style="font-size:12px;fill:#000000;stroke:none">
        <text
           y="-3"
           x="4"
           id="text25">B</text>
        <text
           y="-16"
           x="43"
           id="text27">C</text>
        <text
           y="24"
           x="43"
           id="text29">E</text>
      </g>
    </g>
    <g
       id="resistor"
       style="stroke-linejoin:bevel">
      <path
         d="m 0,0 0,6 -4,2.2 8,4.4 -8,4.4 8,4.4 -8,4.4 8,4.4 -4,2.2 0,6"
         id="path32"
         inkscape:connector-curvature="0" />
    </g>
    <g
       id="node">
      <circle
         r="3.5"
         id="circle35"
         cx="0"
         cy="0"
         style="fill:#ffffff;stroke-width:1.5" />
    </g>
    <g
       id="ground">
      <path
         d="M 0,0 0,6"
         id="path38"
         inkscape:connector-curvature="0" />
      <path
         d="m -14,6 28,0 m -23,5 18,0 m -13,5 8,0"
         id="path40"
         inkscape:connector-curvature="0" />
    </g>
  </defs>
  <!-- rect x="0" y="-20" width="300" height="300" fill="#A0F0A0" / -->
  <g
     id="g42"
     style="font-family:Times;fill:none;stroke:#000000;stroke-width:2.5"
     transform="translate(-7.75,-19.75)">
    <path
       id="p1"
       d="m 102,18 0,18 m 0,-6 -48,0 0,18 m 0,36 0,24 12,0 m -24,0 12,0 0,24"
       inkscape:connector-curvature="0" />
    <path
       id="p2"
       d="m 102,78 18,0 m 18,0 12,0 m -48,66 0,-6 36,0 0,18 m -126,-48 12,0"
       inkscape:connector-curvature="0" />
    <g
       id="rc"
       transform="translate(102,36)">
      <path
         id="rstr"
         d="m 0,0 0,6 -4,2.2 8,4.4 -8,4.4 8,4.4 -8,4.4 8,4.4 -4,2.2 0,6"
         inkscape:connector-curvature="0"
         style="stroke-linejoin:bevel" />
    </g>
    <use
       id="re"
       x="102"
       y="144"
       xlink:href="#rstr"
       width="100%"
       height="100%" />
    <use
       id="r1"
       x="54"
       y="48"
       xlink:href="#rstr"
       width="100%"
       height="100%" />
    <use
       id="r2"
       x="54"
       y="132"
       xlink:href="#rstr"
       width="100%"
       height="100%" />
    <g
       id="Cin"
       transform="translate(24,108)">
      <path
         id="cpctr"
         d="M 0,0 7,0 M 7,-8 7,8 m 5,0 0,-16 m 0,8 6,0"
         inkscape:connector-curvature="0" />
    </g>
    <use
       id="Cout"
       x="120"
       y="78"
       xlink:href="#cpctr"
       width="100%"
       height="100%" />
    <use
       id="Ce"
       transform="matrix(0,1,-1,0,138,156)"
       xlink:href="#cpctr"
       x="0"
       y="0"
       width="100%"
       height="100%" />
    <use
       xlink:href="#npn"
       x="63"
       y="108"
       id="use55"
       width="100%"
       height="100%" />
    <g
       transform="translate(54,186.65176)"
       id="g57">
      <path
         id="gnd"
         d="M -7,0 7,0"
         inkscape:connector-curvature="0"
         style="stroke-width:3.5" />
    </g>
    <use
       x="102"
       y="192"
       xlink:href="#gnd"
       id="use60"
       transform="translate(0,-5.3482441)"
       width="100%"
       height="100%" />
    <use
       x="138"
       y="192"
       xlink:href="#gnd"
       id="use62"
       transform="translate(0,-5.3482441)"
       width="100%"
       height="100%" />
    <path
       d="M 54,186.33715 54,168 M 102,186.33715 102,180 m 36,5.70795 L 138,174"
       id="path64"
       inkscape:connector-curvature="0"
       sodipodi:nodetypes="cccccc" />
    <g
       id="g66"
       style="fill:#000000;stroke:none">
      <circle
         cx="102"
         cy="30"
         r="3"
         id="circle68" />
      <circle
         cx="102"
         cy="78"
         r="3"
         id="circle70" />
      <circle
         cx="102"
         cy="138"
         r="3"
         id="circle72" />
      <circle
         cx="54"
         cy="108"
         r="3"
         id="circle74" />
    </g>
    <path
       id="p4"
       d="M 102,73.910166 102,84 m 0,54 0,-6"
       inkscape:connector-curvature="0"
       sodipodi:nodetypes="cccc" />
    <g
       transform="translate(102,18)"
       id="g77">
      <circle
         id="vnode"
         r="3.5"
         cx="0"
         cy="0"
         style="fill:#ffffff;stroke-width:1.5" />
    </g>
    <use
       id="Vin"
       x="12"
       y="108"
       xlink:href="#vnode"
       width="100%"
       height="100%" />
    <use
       id="Vout"
       x="150"
       y="78"
       xlink:href="#vnode"
       width="100%"
       height="100%" />
  </g>
</svg>
