<?xml version="1.0" encoding="UTF-8" standalone="no"?>
<svg
   xmlns:sketch="http://www.bohemiancoding.com/sketch/ns"
   xmlns:dc="http://purl.org/dc/elements/1.1/"
   xmlns:cc="http://creativecommons.org/ns#"
   xmlns:rdf="http://www.w3.org/1999/02/22-rdf-syntax-ns#"
   xmlns:svg="http://www.w3.org/2000/svg"
   xmlns="http://www.w3.org/2000/svg"
   xmlns:sodipodi="http://sodipodi.sourceforge.net/DTD/sodipodi-0.dtd"
   xmlns:inkscape="http://www.inkscape.org/namespaces/inkscape"
   width="320"
   height="270"
   viewBox="0 0 320 270"
   version="1.1"
   id="svg2"
   inkscape:version="0.91 r"
   sodipodi:docname="Books.svg">
  <metadata
     id="metadata82">
    <rdf:RDF>
      <cc:Work
         rdf:about="">
        <dc:format>image/svg+xml</dc:format>
        <dc:type
           rdf:resource="http://purl.org/dc/dcmitype/StillImage" />
        <dc:title>Untitled</dc:title>
      </cc:Work>
    </rdf:RDF>
  </metadata>
  <sodipodi:namedview
     pagecolor="#ffffff"
     bordercolor="#666666"
     borderopacity="1"
     objecttolerance="10"
     gridtolerance="10"
     guidetolerance="10"
     inkscape:pageopacity="0"
     inkscape:pageshadow="2"
     inkscape:window-width="976"
     inkscape:window-height="716"
     id="namedview80"
     showgrid="false"
     fit-margin-top="0"
     fit-margin-left="0"
     fit-margin-right="0"
     fit-margin-bottom="0"
     inkscape:zoom="1.1427988"
     inkscape:cx="74.9354"
     inkscape:cy="90.898984"
     inkscape:window-x="0"
     inkscape:window-y="0"
     inkscape:window-maximized="0"
     inkscape:current-layer="g69" />
  <title
     id="title4">Untitled</title>
  <desc
     id="desc6">Created with Sketch.</desc>
  <defs
     id="defs8" />
  <g
     id="Page-1"
     sketch:type="MSPage"
     style="fill:none;fill-rule:evenodd;stroke:none;stroke-width:1"
     transform="translate(-44.03347,144)">
    <g
       id="books"
       sketch:type="MSLayerGroup"
       transform="matrix(2.0431188,0,0,2.0220876,-49.562894,-126.61712)">
      <g
         id="Group"
         sketch:type="MSShapeGroup">
        <g
           id="g4210"
           transform="translate(3.4806716,-4.5406184)">
          <g
             id="g13"
             transform="translate(161,16)">
            <path
               style="fill:#244f1d"
               inkscape:connector-curvature="0"
               id="Shape"
               d="m 21.9,106.9 c 0.4,2.1 2.5,3.4 4.6,3 l 6.5,-1.4 c 2.1,-0.4 3.4,-2.5 3,-4.6 L 14.7,3.9 C 14.3,1.8 12.2,0.5 10.1,0.9 L 3.6,2.3 C 1.5,2.7 0.2,4.8 0.6,6.9 l 21.3,100 0,0 z" />
            <rect
               style="fill:#dddddd"
               height="8.3995886"
               width="14.399295"
               y="88.601295"
               x="19.042503"
               transform="matrix(-0.97814792,0.20791019,-0.20791019,-0.97814792,71.205147,178.11827)"
               id="Rectangle-path" />
            <rect
               style="fill:#dddddd"
               height="8.3995886"
               width="14.399295"
               y="12.025785"
               x="2.7870727"
               transform="matrix(-0.97814792,0.20791019,-0.20791019,-0.97814792,23.128673,30.020256)"
               id="rect17" />
          </g>
          <g
             id="g19"
             transform="translate(148,2)">
            <path
               style="fill:#30383c"
               inkscape:connector-curvature="0"
               id="path21"
               d="m 0.6,120.1 c 0,2.2 1.7,3.9 3.9,3.9 l 4.6,0 c 2.2,0 3.9,-1.7 3.9,-3.9 L 13,4.1 C 13,1.9 11.3,0.2 9.1,0.2 l -4.6,0 C 2.3,0.2 0.6,1.9 0.6,4.1 l 0,116 0,0 z" />
            <rect
               style="fill:#89cdef"
               height="4.4000001"
               width="12.4"
               y="10.8"
               x="0.60000002"
               id="rect23" />
            <rect
               style="fill:#89cdef"
               height="8.3999996"
               width="12.4"
               y="103"
               x="0.60000002"
               id="rect25" />
            <rect
               style="fill:#89cdef"
               height="8.3999996"
               width="12.4"
               y="90"
               x="0.60000002"
               id="rect27" />
          </g>
          <g
             transform="translate(43.53347,-0.21876116)"
             id="g29">
            <path
               style="fill:#e5ed00"
               inkscape:connector-curvature="0"
               id="path31"
               d="m 0.5,122.1 c 0,2.2 1.7,3.9 3.9,3.9 l 23,0 c 2.2,0 3.9,-1.7 3.9,-3.9 L 31.3,4.2 C 31.3,2 29.6,0.3 27.4,0.3 l -23,0 C 2.2,0.3 0.5,2 0.5,4.2 l 0,117.9 0,0 z" />
            <rect
               style="fill:#1586ca"
               height="8.3999996"
               width="30.799999"
               y="105"
               x="0.5"
               id="rect33" />
            <rect
               style="fill:#1586ca"
               height="8.3999996"
               width="30.799999"
               y="92"
               x="0.5"
               id="rect35" />
            <rect
               style="fill:#1586ca"
               height="8.3999996"
               width="30.799999"
               y="23.9"
               x="0.5"
               id="rect37" />
            <rect
               style="fill:#1586ca"
               height="8.3999996"
               width="30.799999"
               y="10.9"
               x="0.5"
               id="rect39" />
          </g>
          <g
             id="g41"
             transform="translate(74,28)">
            <path
               style="fill:#89cdef"
               inkscape:connector-curvature="0"
               id="path43"
               d="m 0.4,94.1 c 0,2.2 1.7,3.9 3.9,3.9 l 23,0 c 2.2,0 3.9,-1.7 3.9,-3.9 l 0,-89.9 C 31.2,2 29.5,0.3 27.3,0.3 l -23,0 C 2.1,0.3 0.4,2 0.4,4.2 l 0,89.9 0,0 z" />
            <rect
               style="fill:#8b572a"
               height="78.599998"
               width="30.799999"
               y="9.8000002"
               x="0.40000001"
               id="rect45" />
            <g
               style="fill:#89cdef"
               id="g47"
               transform="translate(0,15)">
              <rect
                 id="rect49"
                 height="2.4000001"
                 width="30.799999"
                 y="0.69999999"
                 x="0.40000001" />
              <rect
                 id="rect51"
                 height="2.4000001"
                 width="30.799999"
                 y="65.199997"
                 x="0.40000001" />
            </g>
          </g>
          <g
             id="g61"
             transform="translate(105,3)">
            <path
               style="fill:#ff4e00"
               inkscape:connector-curvature="0"
               id="path63"
               d="m 0.2,119.9 c 0,1.7 1.4,3.1 3.1,3.1 l 10.5,0 c 1.7,0 3.1,-1.4 3.1,-3.1 L 16.9,3.4 C 16.9,1.7 15.5,0.3 13.8,0.3 L 3.3,0.3 C 1.6,0.3 0.2,1.7 0.2,3.4 l 0,116.5 0,0 z" />
            <rect
               style="fill:#5fb2de"
               height="9.8999996"
               width="16.700001"
               y="8.6000004"
               x="0.2"
               id="rect65" />
            <rect
               style="fill:#5fb2de"
               height="9.8999996"
               width="16.700001"
               y="105.3"
               x="0.2"
               id="rect67" />
          </g>
          <g
             id="g69"
             transform="translate(121,8)">
            <path
               style="fill:#bd8b80;fill-opacity:1"
               inkscape:connector-curvature="0"
               id="path71"
               d="m 0.9,114.9 c 0,1.7 1.4,3.1 3.1,3.1 l 20.5,0 c 1.7,0 3.1,-1.4 3.1,-3.1 L 27.6,3.8 C 27.6,2.1 26.2,0.7 24.5,0.7 L 4,0.7 C 2.3,0.7 0.9,2.1 0.9,3.8 l 0,111.1 0,0 z" />
            <rect
               style="fill:#eeeeee"
               height="7.5"
               width="16.700001"
               y="14.2"
               x="5.9000001"
               id="rect73" />
            <rect
               style="fill:#eeeeee"
               height="7.5"
               width="16.700001"
               y="24.799999"
               x="5.9000001"
               id="rect75" />
            <rect
               style="fill:#eeeeee"
               height="7.5"
               width="16.700001"
               y="35.299999"
               x="5.9000001"
               id="rect77" />
            <circle
               style="fill:#eeeeee"
               r="5.4000001"
               cy="104.7"
               cx="14.2"
               id="Oval" />
          </g>
        </g>
      </g>
    </g>
  </g>
</svg>
